<?xml version="1.0" standalone="no"?>
<!DOCTYPE svg PUBLIC "-//W3C//DTD SVG 20010904//EN"
 "http://www.w3.org/TR/2001/REC-SVG-20010904/DTD/svg10.dtd">
<svg version="1.0" xmlns="http://www.w3.org/2000/svg"
 width="348.000000pt" height="96.000000pt" viewBox="0 0 348.000000 96.000000"
 preserveAspectRatio="xMidYMid meet">

<g transform="translate(0.000000,96.000000) scale(0.100000,-0.100000)"
fill="#000000" stroke="none">
<path d="M0 480 l0 -480 1740 0 1740 0 0 480 0 480 -1740 0 -1740 0 0 -480z
m3450 0 l0 -450 -1715 0 -1715 0 0 450 0 450 1715 0 1715 0 0 -450z"/>
<path d="M90 480 l0 -390 820 0 820 0 0 390 0 390 -820 0 -820 0 0 -390z m646
116 c36 -31 38 -84 5 -120 -18 -19 -36 -26 -75 -28 l-51 -3 -3 -42 c-2 -29 -8
-43 -18 -43 -11 0 -14 23 -14 130 l0 130 64 0 c54 0 70 -4 92 -24z m294 9 c0
-11 -12 -15 -45 -15 l-45 0 0 -115 c0 -96 -3 -115 -15 -115 -12 0 -15 19 -15
115 l0 115 -45 0 c-33 0 -45 4 -45 15 0 12 18 15 105 15 87 0 105 -3 105 -15z
m230 0 c0 -12 -13 -15 -55 -15 l-55 0 0 -45 0 -45 50 0 c38 0 50 -4 50 -15 0
-11 -12 -15 -50 -15 l-50 0 0 -55 c0 -48 -2 -55 -20 -55 -19 0 -20 7 -20 130
l0 130 75 0 c60 0 75 -3 75 -15z"/>
<path d="M610 535 l0 -55 48 0 c55 0 72 12 72 51 0 40 -24 59 -76 59 l-44 0 0
-55z"/>
<path d="M2250 480 l0 -130 90 0 90 0 0 35 0 35 -50 0 -50 0 0 95 0 95 -40 0
-40 0 0 -130z"/>
<path d="M2450 575 c0 -34 1 -35 40 -35 l40 0 0 -95 0 -95 40 0 40 0 0 95 0
95 40 0 c39 0 40 1 40 35 l0 35 -120 0 -120 0 0 -35z"/>
<path d="M2730 480 l0 -130 70 0 c116 0 166 33 177 118 7 49 -17 96 -60 122
-24 15 -50 20 -109 20 l-78 0 0 -130z m154 44 c39 -38 7 -104 -51 -104 l-33 0
0 60 0 60 34 0 c19 0 42 -7 50 -16z"/>
</g>
</svg>
