<?xml version="1.0" standalone="no"?>
<!DOCTYPE svg PUBLIC "-//W3C//DTD SVG 20010904//EN"
 "http://www.w3.org/TR/2001/REC-SVG-20010904/DTD/svg10.dtd">
<svg version="1.0" xmlns="http://www.w3.org/2000/svg"
 width="496.000000pt" height="125.000000pt" viewBox="0 0 496.000000 125.000000"
 preserveAspectRatio="xMidYMid meet">

<g transform="translate(0.000000,125.000000) scale(0.100000,-0.100000)"
fill="#000000" stroke="none">
<path d="M2670 1022 l0 -99 -46 -6 c-26 -2 -61 -1 -78 4 -41 12 -142 11 -187
-1 -20 -6 -53 -21 -73 -35 -32 -21 -35 -22 -26 -6 5 11 10 24 10 30 0 16 -195
15 -207 -1 -5 -7 -34 -66 -63 -131 -30 -65 -57 -120 -61 -123 -4 -2 -40 57
-80 131 l-73 135 -103 0 c-57 0 -103 -3 -103 -7 0 -5 11 -27 25 -51 l25 -43
-46 40 c-56 49 -118 71 -204 71 -83 0 -172 -40 -225 -103 -31 -36 -35 -38 -26
-14 6 15 18 41 26 57 l16 31 -35 14 c-71 30 -162 12 -219 -42 l-27 -27 0 38 0
37 -93 -3 -92 -3 -3 -267 -2 -268 95 0 95 0 0 151 c0 169 10 208 60 229 18 7
47 10 72 6 24 -4 53 -8 64 -9 18 -2 20 -6 13 -25 -18 -46 -10 -144 15 -197 51
-108 148 -167 273 -167 103 1 164 23 227 84 l51 50 -68 34 -68 35 -30 -25
c-37 -32 -90 -42 -139 -27 -42 12 -80 52 -80 82 0 18 11 19 196 19 l197 0 -6
58 c-3 31 -9 66 -13 77 -15 40 6 7 90 -140 l85 -150 -90 -172 c-49 -94 -89
-174 -89 -177 0 -3 47 -6 104 -6 l104 0 182 350 c100 193 183 350 186 350 2 0
1 -13 -2 -29 -8 -39 11 -92 44 -124 15 -14 62 -42 105 -61 58 -27 77 -40 77
-55 0 -22 -27 -41 -58 -41 -11 0 -46 13 -78 30 -32 16 -59 28 -60 27 -20 -25
-64 -119 -59 -127 25 -41 169 -74 265 -60 108 15 166 59 179 136 17 96 -25
162 -125 199 -113 42 -116 43 -112 67 3 20 10 23 50 26 26 2 62 -4 84 -13 21
-9 40 -12 41 -8 2 5 23 7 47 5 l44 -4 4 -141 c3 -129 6 -146 28 -186 34 -62
75 -83 154 -83 76 1 141 24 132 48 -3 9 -9 27 -12 40 -6 22 -3 21 32 -11 74
-68 225 -97 341 -66 61 17 134 70 171 125 l32 48 0 -86 0 -86 89 0 90 0 3 170
3 170 30 30 c18 18 46 33 67 36 30 5 41 1 69 -24 l34 -30 3 -176 3 -176 89 0
89 0 3 76 3 76 32 -46 c64 -91 173 -133 299 -115 77 11 137 39 180 85 l31 33
12 -39 c13 -42 52 -77 91 -80 55 -5 73 1 107 35 33 33 35 38 31 87 -4 42 -11
57 -37 80 -55 49 -155 31 -184 -34 -6 -16 -15 -28 -20 -28 -4 0 -35 14 -68 30
l-60 31 -30 -25 c-72 -61 -185 -38 -208 42 l-10 32 196 0 196 0 -5 69 c-9 118
-78 201 -193 232 -58 16 -172 6 -220 -18 -43 -22 -135 -113 -136 -135 0 -7 -7
5 -15 27 -32 87 -102 129 -216 130 -70 0 -80 -3 -122 -32 l-46 -33 0 30 0 30
-90 0 -90 0 0 -92 -1 -93 -19 36 c-10 19 -38 53 -63 76 -116 107 -313 112
-446 12 l-51 -39 0 50 0 50 -55 0 -54 0 -3 98 -3 97 -92 3 -93 3 0 -99z
m-1218 -232 c14 -11 28 -29 31 -40 5 -19 1 -20 -94 -20 -110 0 -121 9 -74 55
31 32 100 35 137 5z m3019 -9 c16 -16 29 -34 29 -40 0 -7 -35 -11 -100 -11
-65 0 -100 4 -100 11 0 6 13 24 29 40 41 41 101 41 142 0z m-1537 -23 c-4 -13
-8 -68 -9 -123 0 -87 -3 -100 -18 -103 -39 -8 -47 15 -47 134 l0 114 41 0 c39
0 41 -2 33 -22z m392 -22 c30 -30 34 -40 34 -85 0 -44 -5 -56 -34 -89 -31 -33
-39 -37 -84 -37 -63 0 -102 26 -120 81 -17 51 -3 103 39 138 24 20 41 26 81
26 44 0 54 -4 84 -34z"/>
<path d="M210 909 c-127 -57 -188 -207 -146 -353 21 -70 81 -140 146 -169 62
-28 170 -27 233 1 l47 21 0 -39 c0 -109 -163 -157 -251 -74 l-27 25 -71 -35
c-39 -20 -71 -40 -71 -44 0 -20 44 -74 77 -95 61 -38 112 -51 208 -51 111 -1
176 20 238 75 79 69 82 87 82 439 l0 305 -92 3 -93 3 0 -26 0 -26 -27 19 c-68
47 -176 56 -253 21z m239 -165 c70 -59 56 -176 -26 -210 -42 -18 -67 -18 -109
2 -43 21 -64 59 -64 120 0 39 5 51 34 80 30 30 40 34 84 34 40 0 57 -6 81 -26z"/>
</g>
</svg>
