<?xml version="1.0" standalone="no"?>
<!DOCTYPE svg PUBLIC "-//W3C//DTD SVG 20010904//EN"
 "http://www.w3.org/TR/2001/REC-SVG-20010904/DTD/svg10.dtd">
<svg version="1.0" xmlns="http://www.w3.org/2000/svg"
 width="500.000000pt" height="500.000000pt" viewBox="0 0 500.000000 500.000000"
 preserveAspectRatio="xMidYMid meet">

<g transform="translate(0.000000,500.000000) scale(0.100000,-0.100000)"
fill="#000000" stroke="none">
<path d="M1340 2510 c0 -107 3 -130 14 -130 10 0 16 14 18 43 l3 42 51 3 c64
4 98 34 98 89 0 56 -38 83 -120 83 l-64 0 0 -130z m134 84 c19 -18 21 -65 4
-82 -7 -7 -34 -12 -60 -12 l-48 0 0 55 0 55 44 0 c27 0 51 -6 60 -16z"/>
<path d="M1580 2625 c0 -11 12 -15 45 -15 l45 0 0 -115 c0 -96 3 -115 15 -115
12 0 15 19 15 115 l0 115 45 0 c33 0 45 4 45 15 0 12 -18 15 -105 15 -87 0
-105 -3 -105 -15z"/>
<path d="M1870 2510 c0 -123 1 -130 20 -130 18 0 20 7 20 55 l0 55 50 0 c38 0
50 4 50 15 0 11 -12 15 -50 15 l-50 0 0 45 0 45 55 0 c42 0 55 3 55 15 0 12
-15 15 -75 15 l-75 0 0 -130z"/>
</g>
</svg>
