<?xml version="1.0" standalone="no"?>
<!DOCTYPE svg PUBLIC "-//W3C//DTD SVG 20010904//EN"
 "http://www.w3.org/TR/2001/REC-SVG-20010904/DTD/svg10.dtd">
<svg version="1.0" xmlns="http://www.w3.org/2000/svg"
 width="512.000000pt" height="512.000000pt" viewBox="0 0 512.000000 512.000000"
 preserveAspectRatio="xMidYMid meet">

<g transform="translate(0.000000,512.000000) scale(0.100000,-0.100000)"
fill="#000000" stroke="none">
<path d="M430 5113 c-180 -30 -335 -161 -402 -339 l-23 -59 -3 -2129 c-2
-1890 -1 -2136 13 -2190 43 -171 164 -305 331 -368 l59 -23 2155 0 2155 0 59
23 c154 58 270 178 322 332 18 53 19 134 19 2200 0 2066 -1 2147 -19 2200 -52
154 -168 274 -322 332 l-59 23 -2130 1 c-1172 1 -2141 -1 -2155 -3z m2405
-1728 c149 -24 301 -75 412 -137 l52 -29 -32 -67 c-17 -37 -32 -68 -33 -69 0
-2 -25 10 -55 27 -111 60 -281 111 -424 129 l-65 7 0 -768 0 -768 -90 0 -90 0
0 769 0 769 -42 -5 c-153 -16 -365 -80 -466 -139 l-43 -25 -29 65 c-17 36 -30
69 -30 74 0 14 186 97 280 126 47 14 121 32 165 40 109 19 376 20 490 1z
m1620 -10 c77 -21 204 -82 212 -101 4 -11 -36 -121 -52 -141 -1 -2 -31 13 -67
32 -100 53 -201 76 -343 77 -195 2 -313 -38 -400 -135 -75 -83 -89 -133 -93
-344 l-4 -183 399 -2 398 -3 3 -77 3 -78 -401 0 -400 0 0 -355 0 -355 -90 0
-90 0 0 593 c0 653 2 675 62 797 42 87 143 187 231 229 122 58 200 71 397 67
122 -3 193 -9 235 -21z m-3229 4 c275 -38 461 -183 518 -405 21 -80 21 -241 1
-319 -50 -191 -197 -327 -420 -387 -71 -19 -113 -22 -387 -26 l-308 -4 0 -264
0 -264 -90 0 -90 0 0 840 0 840 349 0 c196 0 384 -5 427 -11z"/>
<path d="M630 2821 l0 -421 283 0 c305 0 359 7 462 56 152 72 235 244 206 430
-20 133 -90 232 -203 290 -95 48 -153 56 -460 61 l-288 5 0 -421z"/>
</g>
</svg>
