<?xml version="1.0" encoding="UTF-8"?>
<svg xmlns="http://www.w3.org/2000/svg" xmlns:xlink="http://www.w3.org/1999/xlink" width="212px" height="150px" viewBox="0 0 421 298" version="1.1">
<g id="surface1">
<path style=" stroke:none;fill-rule:nonzero;fill:rgb(0%,66.666667%,67.45098%);fill-opacity:1;" d="M 325.648438 148.835938 C 325.648438 212.40625 274.203125 263.9375 210.738281 263.9375 C 147.273438 263.9375 95.820312 212.402344 95.820312 148.835938 C 95.820312 85.269531 147.273438 33.726562 210.730469 33.726562 C 274.191406 33.726562 325.648438 85.261719 325.648438 148.835938 "/>
<path style=" stroke:none;fill-rule:nonzero;fill:rgb(96.078431%,61.176471%,13.72549%);fill-opacity:1;" d="M 293.789062 148.835938 C 293.789062 194.78125 256.601562 232.03125 210.730469 232.03125 C 164.863281 232.03125 127.675781 194.78125 127.675781 148.835938 C 127.675781 102.890625 164.863281 65.640625 210.730469 65.640625 C 256.601562 65.640625 293.789062 102.882812 293.789062 148.835938 "/>
<path style=" stroke:none;fill-rule:nonzero;fill:rgb(100%,100%,100%);fill-opacity:1;" d="M 210.730469 228.609375 C 166.75 228.609375 131.089844 192.894531 131.089844 148.835938 C 131.089844 104.777344 166.75 69.058594 210.730469 69.058594 C 254.714844 69.058594 290.375 104.777344 290.375 148.835938 C 290.375 192.894531 254.722656 228.609375 210.730469 228.609375 M 210.730469 61.078125 C 162.351562 61.078125 123.128906 100.367188 123.128906 148.828125 C 123.128906 197.292969 162.351562 236.585938 210.730469 236.585938 C 259.113281 236.585938 298.335938 197.296875 298.335938 148.835938 C 298.335938 100.371094 259.121094 61.078125 210.730469 61.078125 "/>
<path style=" stroke:none;fill-rule:nonzero;fill:rgb(0.392157%,0.784314%,0.784314%);fill-opacity:1;" d="M 222.03125 152.347656 C 217.054688 158.242188 213.125 165.191406 210.730469 172.769531 C 208.339844 165.191406 204.410156 158.246094 199.433594 152.347656 C 199.40625 152.320312 199.378906 152.285156 199.351562 152.253906 L 222.113281 152.253906 C 222.085938 152.285156 222.058594 152.3125 222.03125 152.347656 Z M 210.738281 140.09375 C 204.78125 140.09375 198.78125 140.246094 192.796875 140.539062 C 190.183594 137.066406 187.027344 134.027344 183.460938 131.5625 C 192.464844 130.921875 201.5625 130.597656 210.738281 130.597656 C 228.898438 130.597656 246.753906 131.875 264.210938 134.335938 L 265.195312 124.972656 C 247.613281 121.4375 229.402344 119.578125 210.742188 119.578125 C 192.082031 119.578125 173.863281 121.4375 156.289062 124.972656 L 157.273438 134.335938 C 161.628906 133.722656 166.011719 133.179688 170.421875 132.714844 C 171.207031 132.625 171.835938 132.835938 172.183594 132.992188 C 176.296875 134.796875 179.855469 137.636719 182.554688 141.1875 C 171.359375 142.046875 160.246094 143.410156 149.425781 145.261719 L 150.445312 154.96875 C 159.121094 154.210938 169.738281 153.414062 171.976562 153.371094 C 184.695312 153.121094 195.25 161.859375 198.292969 174.265625 C 200.398438 183.125 199.28125 194.570312 198.988281 200.117188 L 222.507812 200.117188 C 222.210938 194.570312 221.097656 183.121094 223.203125 174.265625 C 226.246094 161.867188 236.804688 153.121094 249.519531 153.371094 C 251.757812 153.414062 262.375 154.214844 271.050781 154.96875 L 272.070312 145.261719 C 252.15625 141.855469 231.253906 140.097656 210.738281 140.09375 Z M 210.738281 102.109375 C 197.546875 102.109375 184.691406 103.5 172.285156 106.144531 L 173.191406 114.757812 C 185.4375 112.929688 197.976562 111.984375 210.738281 111.984375 C 223.496094 111.984375 236.03125 112.929688 248.285156 114.757812 L 249.1875 106.144531 C 236.785156 103.5 223.921875 102.109375 210.738281 102.109375 "/>
</g>
</svg>
