<?xml version="1.0" encoding="UTF-8"?>
<svg xmlns="http://www.w3.org/2000/svg" xmlns:xlink="http://www.w3.org/1999/xlink" width="300px" height="117px" viewBox="0 0 198 77" version="1.1">
<g id="surface1">
<path style=" stroke:none;fill-rule:nonzero;fill:rgb(0%,0%,0%);fill-opacity:1;" d="M 103.496094 76.699219 C 94.601562 76.699219 86.359375 73.652344 79.5625 67.804688 C 74.464844 63.410156 71.96875 59.011719 71.867188 58.8125 L 78.113281 55.363281 C 78.113281 55.414062 80.210938 59.011719 84.410156 62.558594 C 89.90625 67.207031 96.351562 69.554688 103.496094 69.554688 C 109.292969 69.554688 114.488281 67.855469 118.136719 64.808594 C 121.285156 62.160156 123.085938 58.710938 123.085938 55.3125 C 123.085938 50.917969 121.285156 47.96875 117.1875 45.769531 C 112.992188 43.472656 107.042969 42.273438 101.25 41.074219 C 95.253906 39.824219 89.007812 38.574219 84.160156 36.027344 C 78.0625 32.828125 75.015625 27.933594 75.015625 21.4375 C 75.015625 14.390625 77.964844 8.695312 83.460938 4.898438 C 88.105469 1.699219 94.402344 0.0507812 101.75 0.0507812 C 109.144531 0.0507812 115.988281 2.5 121.585938 7.09375 C 125.734375 10.542969 127.78125 13.941406 127.980469 14.289062 L 121.785156 17.839844 C 121.785156 17.789062 120.136719 15.089844 116.839844 12.390625 C 112.492188 8.894531 107.445312 7.144531 101.699219 7.144531 C 95.851562 7.144531 90.90625 8.394531 87.457031 10.742188 C 83.910156 13.191406 82.109375 16.738281 82.109375 21.386719 C 82.109375 25.183594 83.710938 27.683594 87.457031 29.679688 C 91.355469 31.730469 96.851562 32.878906 102.597656 34.027344 C 108.894531 35.328125 115.4375 36.625 120.535156 39.425781 C 126.933594 42.921875 130.179688 48.21875 130.179688 55.265625 C 130.179688 60.808594 127.429688 66.257812 122.683594 70.253906 C 117.738281 74.402344 110.941406 76.699219 103.496094 76.699219 "/>
<path style=" stroke:none;fill-rule:nonzero;fill:rgb(0%,0%,0%);fill-opacity:1;" d="M 148.019531 1.847656 L 197.886719 1.847656 L 197.886719 8.996094 L 148.019531 8.996094 Z M 148.019531 1.847656 "/>
<path style=" stroke:none;fill-rule:nonzero;fill:rgb(0%,0%,0%);fill-opacity:1;" d="M 17.953125 1.847656 L 55.378906 1.847656 L 55.378906 8.996094 L 17.953125 8.996094 Z M 17.953125 1.847656 "/>
<path style=" stroke:none;fill-rule:nonzero;fill:rgb(0%,0%,0%);fill-opacity:1;" d="M 148.019531 26.78125 L 197.886719 26.78125 L 197.886719 33.929688 L 148.019531 33.929688 Z M 148.019531 26.78125 "/>
<path style=" stroke:none;fill-rule:nonzero;fill:rgb(0%,0%,0%);fill-opacity:1;" d="M 148.019531 42.820312 L 197.886719 42.820312 L 197.886719 49.96875 L 148.019531 49.96875 Z M 148.019531 42.820312 "/>
<path style=" stroke:none;fill-rule:nonzero;fill:rgb(0%,0%,0%);fill-opacity:1;" d="M 148.019531 67.757812 L 197.886719 67.757812 L 197.886719 74.902344 L 148.019531 74.902344 Z M 148.019531 67.757812 "/>
<path style=" stroke:none;fill-rule:nonzero;fill:rgb(0%,0%,0%);fill-opacity:1;" d="M 26.847656 76.699219 C 15.355469 76.699219 8.707031 71.652344 5.160156 67.40625 C 1.363281 62.859375 0.3125 58.363281 0.164062 57.863281 L 7.109375 56.3125 C 7.109375 56.363281 7.960938 59.761719 10.808594 63.058594 C 14.503906 67.355469 19.902344 69.554688 26.796875 69.554688 C 30.34375 69.554688 48.183594 68.457031 48.183594 46.371094 L 48.183594 25.035156 L 17.953125 25.035156 L 17.953125 17.886719 L 55.378906 17.886719 L 55.378906 46.371094 C 55.378906 53.515625 53.28125 60.609375 49.582031 65.808594 C 46.085938 70.753906 39.289062 76.699219 26.847656 76.699219 "/>
</g>
</svg>
