<?xml version="1.0" encoding="UTF-8"?>
<svg xmlns="http://www.w3.org/2000/svg" xmlns:xlink="http://www.w3.org/1999/xlink" width="150px" height="150px" viewBox="0 0 326 326" version="1.1">
<g id="surface1">
<path style=" stroke:none;fill-rule:nonzero;fill:rgb(0%,0%,0%);fill-opacity:1;" d="M 87.25 143 C 89.199219 143 91.050781 143.601562 92.75 144.699219 L 99 148.601562 L 104.75 146.898438 L 113.199219 136.75 L 95.25 118.800781 C 88.148438 111.699219 78 107.800781 66.898438 107.800781 L 66.648438 107.800781 C 61.5 104.050781 54 101.800781 46.25 101.800781 C 43 101.800781 39.75 102.199219 36.601562 102.898438 C 37.949219 106.75 40.699219 111.199219 42.800781 114.351562 C 25.300781 124.449219 13.25 145.199219 13.25 169.050781 C 13.25 173.800781 13.75 176.25 13.75 176.25 C 13.75 176.25 19.5 170.398438 27.101562 170.398438 C 27.101562 182.148438 19.648438 193.5 19.648438 193.5 C 38.601562 193.5 72.449219 202.398438 84.550781 210.601562 C 84.550781 205 72.449219 190.898438 60.851562 183.351562 C 60.851562 183.351562 94.949219 198.148438 100.101562 224.050781 C 100.101562 224.050781 102.648438 218.699219 102.648438 209.898438 C 102.648438 170.800781 52.148438 171.898438 51.800781 139.398438 C 51.699219 130.699219 55.25 125.351562 55.25 125.351562 C 54.449219 128.699219 54.050781 132.101562 54 135.5 C 54 160.550781 80.300781 161.648438 96.800781 177.398438 L 100.351562 158.199219 L 93.5 160.398438 L 88.5 158.949219 C 83 157.351562 79.800781 154.199219 79.800781 150.148438 C 79.800781 146.101562 82.851562 143 87.25 143 Z M 66.449219 123 C 66.449219 123 70.601562 122.5 73.550781 122.5 C 79.648438 122.5 85.5 124.601562 89.050781 127.75 L 85.398438 132.148438 C 82.25 128.5 71.949219 123.5 66.449219 123 Z M 174.351562 175.25 L 169 167.648438 C 176.449219 164.699219 180.949219 158.699219 180.949219 151.398438 C 180.949219 141.75 173.050781 135.148438 161.550781 135.148438 L 135.351562 135.148438 L 136.199219 136.5 C 138.101562 139.398438 139.101562 142.050781 139.101562 144.550781 L 139.101562 179.351562 C 139.101562 181.800781 138.101562 184.5 136.199219 187.398438 L 135.351562 188.75 L 150.351562 188.75 L 150.351562 145.25 L 160.851562 145.25 C 166 145.25 169.449219 148.148438 169.449219 152.351562 C 169.449219 157.300781 165.300781 160.449219 153.601562 163.351562 L 166.449219 183.148438 C 169.648438 188.101562 174.5 190.75 180.25 190.75 C 185.550781 190.75 187.699219 188.550781 187.699219 188.550781 C 187.699219 188.550781 182.398438 186.75 174.351562 175.25 Z M 259.351562 188.699219 L 258.5 187.601562 C 256.601562 185.351562 255.800781 183.050781 255.601562 181.050781 L 251.5 144.5 C 251.25 142.050781 252.101562 139.398438 253.699219 136.449219 L 254.449219 135.101562 L 238.648438 135.101562 L 224.851562 165.5 L 211.050781 135.101562 L 195.25 135.101562 L 196 136.449219 C 197.601562 139.398438 198.449219 142 198.199219 144.5 L 194.101562 181.050781 C 193.898438 183.050781 193.101562 185.351562 191.199219 187.601562 L 190.351562 188.699219 L 204.851562 188.699219 L 208.050781 154 L 224.75 190.699219 L 241.449219 154 L 244.699219 188.699219 Z M 304.050781 160.25 C 307.949219 158 310.101562 154.351562 310.101562 149.601562 C 310.101562 141 303 135.148438 292.5 135.148438 L 266.25 135.148438 L 267.101562 136.5 C 269 139.300781 270 142.050781 270 144.550781 L 270 179.351562 C 270 181.800781 269 184.550781 267.101562 187.398438 L 266.25 188.75 L 294.699219 188.75 C 305.5 188.75 313.199219 182.199219 313.199219 172.898438 C 313.148438 166.800781 309.898438 162.449219 304.050781 160.25 Z M 291.300781 144.75 C 295.949219 144.75 299.148438 147.300781 299.148438 151 C 299.148438 154.699219 295.949219 157.25 291.300781 157.25 L 281.25 157.25 L 281.25 144.800781 L 291.300781 144.800781 Z M 293.648438 179.101562 L 281.25 179.101562 L 281.25 166 L 293.648438 166 C 298.449219 166 301.601562 168.550781 301.601562 172.550781 C 301.601562 176.601562 298.449219 179.101562 293.648438 179.101562 Z M 293.648438 179.101562 "/>
</g>
</svg>
