<?xml version="1.0" encoding="utf-8"?>
<!-- Generator: Adobe Illustrator 16.0.3, SVG Export Plug-In . SVG Version: 6.00 Build 0)  -->
<!DOCTYPE svg PUBLIC "-//W3C//DTD SVG 1.1//EN" "http://www.w3.org/Graphics/SVG/1.1/DTD/svg11.dtd">
<svg version="1.1" id="Ebene_1" xmlns="http://www.w3.org/2000/svg" xmlns:xlink="http://www.w3.org/1999/xlink" x="0px" y="0px"
	 width="74.792px" height="74.792px" viewBox="0 0 74.792 74.792" enable-background="new 0 0 74.792 74.792" xml:space="preserve">
<g>
	<defs>
		<rect id="SVGID_1_" width="74.792" height="74.792"/>
	</defs>
	<clipPath id="SVGID_2_">
		<use xlink:href="#SVGID_1_"  overflow="visible"/>
	</clipPath>
	<path clip-path="url(#SVGID_2_)" d="M47.837,56.192c-2.146-0.638-3.067-1.046-3.067-2.088v-0.046c0-0.771,0.756-1.385,1.789-1.385
		c1.237,0,2.514,0.589,3.807,1.565l1.673-2.635c-1.483-1.297-3.302-2.023-5.435-2.023c-2.99,0-5.124,1.911-5.124,4.796v0.045
		c0,2.111,1.941,3.918,4.851,4.863c2.258,0.732,2.959,1.151,2.959,2.04v0.044c0,0.931-1.053,1.481-2.121,1.481
		c-1.67,0-3.052-0.745-4.364-1.928l-1.693,2.668c1.726,1.572,3.867,2.353,5.997,2.353c3.154,0,5.369-2.385,5.369-4.931v-0.046
		C52.477,58.637,50.795,57.073,47.837,56.192"/>
</g>
<g>
	<defs>
		<rect id="SVGID_3_" x="10.422" y="10.423" width="7.219" height="35.627"/>
	</defs>
	<clipPath id="SVGID_4_">
		<use xlink:href="#SVGID_3_"  overflow="visible"/>
	</clipPath>
	
		<linearGradient id="SVGID_5_" gradientUnits="userSpaceOnUse" x1="-258.7422" y1="439.9814" x2="-257.7416" y2="439.9814" gradientTransform="matrix(-1.700000e-006 -39.0666 -39.0666 1.700000e-006 17202.6191 -10063.3799)">
		<stop  offset="0" style="stop-color:#1C5292"/>
		<stop  offset="0.45" style="stop-color:#00B0E3"/>
		<stop  offset="0.4837" style="stop-color:#00B6E6"/>
		<stop  offset="0.6027" style="stop-color:#6AC8EE"/>
		<stop  offset="0.7172" style="stop-color:#99D6F4"/>
		<stop  offset="0.8244" style="stop-color:#B4E0F8"/>
		<stop  offset="0.9217" style="stop-color:#C4E6FB"/>
		<stop  offset="1" style="stop-color:#C9E8FB"/>
	</linearGradient>
	<rect x="10.422" y="10.423" clip-path="url(#SVGID_4_)" fill="url(#SVGID_5_)" width="7.219" height="35.627"/>
</g>
<g>
	<defs>
		<rect id="SVGID_6_" x="20.047" y="10.423" width="7.217" height="35.627"/>
	</defs>
	<clipPath id="SVGID_7_">
		<use xlink:href="#SVGID_6_"  overflow="visible"/>
	</clipPath>
	
		<linearGradient id="SVGID_8_" gradientUnits="userSpaceOnUse" x1="-258.7422" y1="439.9814" x2="-257.7416" y2="439.9814" gradientTransform="matrix(-1.700000e-006 -39.0666 -39.0666 1.700000e-006 17212.2441 -10063.3799)">
		<stop  offset="0" style="stop-color:#1C5292"/>
		<stop  offset="0.45" style="stop-color:#00B0E3"/>
		<stop  offset="0.4837" style="stop-color:#00B6E6"/>
		<stop  offset="0.6027" style="stop-color:#6AC8EE"/>
		<stop  offset="0.7172" style="stop-color:#99D6F4"/>
		<stop  offset="0.8244" style="stop-color:#B4E0F8"/>
		<stop  offset="0.9217" style="stop-color:#C4E6FB"/>
		<stop  offset="1" style="stop-color:#C9E8FB"/>
	</linearGradient>
	<rect x="20.047" y="10.423" clip-path="url(#SVGID_7_)" fill="url(#SVGID_8_)" width="7.217" height="35.627"/>
</g>
<g>
	<defs>
		<rect id="SVGID_9_" x="29.67" y="10.423" width="7.222" height="35.627"/>
	</defs>
	<clipPath id="SVGID_10_">
		<use xlink:href="#SVGID_9_"  overflow="visible"/>
	</clipPath>
	
		<linearGradient id="SVGID_11_" gradientUnits="userSpaceOnUse" x1="-258.7422" y1="439.9814" x2="-257.7416" y2="439.9814" gradientTransform="matrix(-1.700000e-006 -39.0666 -39.0666 1.700000e-006 17221.8691 -10063.3799)">
		<stop  offset="0" style="stop-color:#1C5292"/>
		<stop  offset="0.45" style="stop-color:#00B0E3"/>
		<stop  offset="0.4837" style="stop-color:#00B6E6"/>
		<stop  offset="0.6027" style="stop-color:#6AC8EE"/>
		<stop  offset="0.7172" style="stop-color:#99D6F4"/>
		<stop  offset="0.8244" style="stop-color:#B4E0F8"/>
		<stop  offset="0.9217" style="stop-color:#C4E6FB"/>
		<stop  offset="1" style="stop-color:#C9E8FB"/>
	</linearGradient>
	<rect x="29.67" y="10.423" clip-path="url(#SVGID_10_)" fill="url(#SVGID_11_)" width="7.222" height="35.627"/>
</g>
<g>
	<defs>
		<rect id="SVGID_12_" x="39.294" y="10.423" width="7.221" height="35.627"/>
	</defs>
	<clipPath id="SVGID_13_">
		<use xlink:href="#SVGID_12_"  overflow="visible"/>
	</clipPath>
	
		<linearGradient id="SVGID_14_" gradientUnits="userSpaceOnUse" x1="-258.7422" y1="439.9814" x2="-257.7416" y2="439.9814" gradientTransform="matrix(-1.700000e-006 -39.0666 -39.0666 1.700000e-006 17231.4941 -10063.3799)">
		<stop  offset="0" style="stop-color:#1C5292"/>
		<stop  offset="0.45" style="stop-color:#00B0E3"/>
		<stop  offset="0.4837" style="stop-color:#00B6E6"/>
		<stop  offset="0.6027" style="stop-color:#6AC8EE"/>
		<stop  offset="0.7172" style="stop-color:#99D6F4"/>
		<stop  offset="0.8244" style="stop-color:#B4E0F8"/>
		<stop  offset="0.9217" style="stop-color:#C4E6FB"/>
		<stop  offset="1" style="stop-color:#C9E8FB"/>
	</linearGradient>
	<rect x="39.294" y="10.423" clip-path="url(#SVGID_13_)" fill="url(#SVGID_14_)" width="7.221" height="35.627"/>
</g>
<g>
	<defs>
		<rect id="SVGID_15_" x="48.921" y="10.423" width="7.219" height="35.627"/>
	</defs>
	<clipPath id="SVGID_16_">
		<use xlink:href="#SVGID_15_"  overflow="visible"/>
	</clipPath>
	
		<linearGradient id="SVGID_17_" gradientUnits="userSpaceOnUse" x1="-258.7422" y1="439.9814" x2="-257.7416" y2="439.9814" gradientTransform="matrix(-1.700000e-006 -39.0666 -39.0666 1.700000e-006 17241.1191 -10063.3799)">
		<stop  offset="0" style="stop-color:#1C5292"/>
		<stop  offset="0.45" style="stop-color:#00B0E3"/>
		<stop  offset="0.4837" style="stop-color:#00B6E6"/>
		<stop  offset="0.6027" style="stop-color:#6AC8EE"/>
		<stop  offset="0.7172" style="stop-color:#99D6F4"/>
		<stop  offset="0.8244" style="stop-color:#B4E0F8"/>
		<stop  offset="0.9217" style="stop-color:#C4E6FB"/>
		<stop  offset="1" style="stop-color:#C9E8FB"/>
	</linearGradient>
	<rect x="48.921" y="10.423" clip-path="url(#SVGID_16_)" fill="url(#SVGID_17_)" width="7.219" height="35.627"/>
</g>
<g>
	<defs>
		<rect id="SVGID_18_" x="58.545" y="10.423" width="7.217" height="35.627"/>
	</defs>
	<clipPath id="SVGID_19_">
		<use xlink:href="#SVGID_18_"  overflow="visible"/>
	</clipPath>
	
		<linearGradient id="SVGID_20_" gradientUnits="userSpaceOnUse" x1="-258.7422" y1="439.9814" x2="-257.7416" y2="439.9814" gradientTransform="matrix(-1.700000e-006 -39.0666 -39.0666 1.700000e-006 17250.7441 -10063.3799)">
		<stop  offset="0" style="stop-color:#1C5292"/>
		<stop  offset="0.45" style="stop-color:#00B0E3"/>
		<stop  offset="0.4837" style="stop-color:#00B6E6"/>
		<stop  offset="0.6027" style="stop-color:#6AC8EE"/>
		<stop  offset="0.7172" style="stop-color:#99D6F4"/>
		<stop  offset="0.8244" style="stop-color:#B4E0F8"/>
		<stop  offset="0.9217" style="stop-color:#C4E6FB"/>
		<stop  offset="1" style="stop-color:#C9E8FB"/>
	</linearGradient>
	<rect x="58.545" y="10.423" clip-path="url(#SVGID_19_)" fill="url(#SVGID_20_)" width="7.217" height="35.627"/>
</g>
<g>
	<defs>
		<rect id="SVGID_21_" width="74.792" height="74.792"/>
	</defs>
	<clipPath id="SVGID_22_">
		<use xlink:href="#SVGID_21_"  overflow="visible"/>
	</clipPath>
	<polygon clip-path="url(#SVGID_22_)" points="58.545,62.945 58.545,59.175 64.754,59.175 64.754,56.353 58.545,56.353 
		58.545,52.579 65.759,52.579 65.759,49.762 55.334,49.762 55.334,65.765 65.759,65.765 65.759,62.945 	"/>
	<polygon clip-path="url(#SVGID_22_)" points="20.042,49.762 20.042,59.841 13.654,49.762 10.422,49.762 10.422,65.765 
		13.608,65.765 13.608,55.214 20.299,65.765 23.231,65.765 23.231,49.762 	"/>
	<polygon clip-path="url(#SVGID_22_)" points="36.563,49.762 33.013,55.562 29.454,49.762 25.61,49.762 31.42,58.834 31.42,65.765 
		34.657,65.765 34.657,58.772 40.434,49.762 	"/>
	<path clip-path="url(#SVGID_22_)" d="M68.247,49.964h-0.362v1.138h-0.235v-1.138h-0.362v-0.205h0.96V49.964z M69.598,50.244
		l-0.016-0.005l-0.375,0.862h-0.128l-0.39-0.897l-0.016,0.005v0.893h-0.231v-1.343h0.29l0.403,0.976h0.014l0.406-0.976h0.274v1.343
		h-0.232V50.244z"/>
</g>
</svg>
