<?xml version="1.0" encoding="UTF-8"?>
<svg xmlns="http://www.w3.org/2000/svg" xmlns:xlink="http://www.w3.org/1999/xlink" width="300px" height="86px" viewBox="0 0 86 25" version="1.1">
<g id="surface1">
<path style=" stroke:none;fill-rule:nonzero;fill:rgb(0%,12.941176%,29.019608%);fill-opacity:1;" d="M 26.15625 23.75 L 26.917969 23.75 C 26.917969 24.003906 27.175781 24.261719 27.53125 24.261719 C 27.886719 24.261719 28.089844 24.054688 28.089844 23.800781 C 28.089844 23.597656 27.9375 23.445312 27.632812 23.34375 L 27.175781 23.1875 C 26.359375 22.984375 26.207031 22.472656 26.207031 22.117188 C 26.207031 21.453125 26.765625 20.945312 27.53125 20.945312 C 28.292969 20.945312 28.800781 21.402344 28.800781 22.117188 L 27.988281 22.117188 C 27.988281 21.863281 27.785156 21.65625 27.480469 21.65625 C 27.175781 21.65625 26.96875 21.863281 26.96875 22.117188 C 26.96875 22.21875 27.019531 22.421875 27.378906 22.527344 L 27.785156 22.628906 C 28.34375 22.78125 28.851562 23.085938 28.851562 23.75 C 28.851562 24.515625 28.191406 24.921875 27.480469 24.921875 C 26.714844 24.921875 26.15625 24.414062 26.15625 23.75 Z M 26.15625 23.75 "/>
<path style=" stroke:none;fill-rule:nonzero;fill:rgb(0%,12.941176%,29.019608%);fill-opacity:1;" d="M 34.65625 24.871094 L 33.890625 24.871094 L 33.585938 22.472656 L 32.667969 24.414062 L 32.058594 24.414062 L 31.144531 22.472656 L 30.890625 24.820312 L 30.125 24.820312 L 30.53125 21.046875 L 31.195312 21.046875 L 32.363281 23.546875 L 33.535156 21.046875 L 34.195312 21.046875 Z M 34.65625 24.871094 "/>
<path style=" stroke:none;fill-rule:nonzero;fill:rgb(0%,12.941176%,29.019608%);fill-opacity:1;" d="M 38.472656 24.871094 L 38.164062 23.953125 L 36.742188 23.953125 L 36.433594 24.871094 L 35.621094 24.871094 L 37.046875 21.046875 L 37.859375 21.046875 L 39.285156 24.871094 Z M 36.945312 23.289062 L 37.910156 23.289062 L 37.402344 21.863281 Z M 36.945312 23.289062 "/>
<path style=" stroke:none;fill-rule:nonzero;fill:rgb(0%,12.941176%,29.019608%);fill-opacity:1;" d="M 42.339844 24.871094 L 41.421875 23.496094 L 41.167969 23.496094 L 41.167969 24.871094 L 40.40625 24.871094 L 40.40625 21.046875 L 41.929688 21.046875 C 42.796875 21.046875 43.152344 21.65625 43.152344 22.269531 C 43.152344 22.832031 42.796875 23.34375 42.238281 23.445312 L 43.203125 24.820312 Z M 41.167969 21.710938 L 41.167969 22.832031 L 41.777344 22.832031 C 42.1875 22.832031 42.390625 22.578125 42.390625 22.269531 C 42.390625 21.964844 42.1875 21.710938 41.828125 21.710938 Z M 41.167969 21.710938 "/>
<path style=" stroke:none;fill-rule:nonzero;fill:rgb(0%,12.941176%,29.019608%);fill-opacity:1;" d="M 47.070312 21.046875 L 47.070312 21.710938 L 46.003906 21.710938 L 46.003906 24.820312 L 45.238281 24.820312 L 45.238281 21.710938 L 44.171875 21.710938 L 44.171875 21.046875 Z M 47.070312 21.046875 "/>
<path style=" stroke:none;fill-rule:nonzero;fill:rgb(0%,12.941176%,29.019608%);fill-opacity:1;" d="M 49.105469 24.15625 L 50.785156 24.15625 L 50.785156 24.820312 L 48.34375 24.820312 L 48.34375 21.046875 L 50.734375 21.046875 L 50.734375 21.710938 L 49.105469 21.710938 L 49.105469 22.628906 L 50.53125 22.628906 L 50.53125 23.34375 L 49.105469 23.34375 Z M 49.105469 24.15625 "/>
<path style=" stroke:none;fill-rule:nonzero;fill:rgb(0%,12.941176%,29.019608%);fill-opacity:1;" d="M 54.195312 24.871094 L 53.277344 23.496094 L 53.023438 23.496094 L 53.023438 24.871094 L 52.261719 24.871094 L 52.261719 21.046875 L 53.789062 21.046875 C 54.652344 21.046875 55.007812 21.65625 55.007812 22.269531 C 55.007812 22.832031 54.652344 23.34375 54.09375 23.445312 L 55.058594 24.820312 Z M 53.023438 21.710938 L 53.023438 22.832031 L 53.636719 22.832031 C 54.042969 22.832031 54.246094 22.578125 54.246094 22.269531 C 54.246094 21.964844 54.042969 21.710938 53.6875 21.710938 Z M 53.023438 21.710938 "/>
<path style=" stroke:none;fill-rule:nonzero;fill:rgb(0%,12.941176%,29.019608%);fill-opacity:1;" d="M 60.8125 21.046875 L 60.8125 21.710938 L 59.742188 21.710938 L 59.742188 24.820312 L 59.03125 24.820312 L 59.03125 21.710938 L 57.960938 21.710938 L 57.960938 21.046875 Z M 60.8125 21.046875 "/>
<path style=" stroke:none;fill-rule:nonzero;fill:rgb(0%,12.941176%,29.019608%);fill-opacity:1;" d="M 64.066406 24.871094 L 63.152344 23.496094 L 62.898438 23.496094 L 62.898438 24.871094 L 62.132812 24.871094 L 62.132812 21.046875 L 63.660156 21.046875 C 64.527344 21.046875 64.882812 21.65625 64.882812 22.269531 C 64.882812 22.832031 64.527344 23.34375 63.964844 23.445312 L 64.933594 24.820312 Z M 62.898438 21.710938 L 62.898438 22.832031 L 63.507812 22.832031 C 63.914062 22.832031 64.117188 22.578125 64.117188 22.269531 C 64.117188 21.964844 63.914062 21.710938 63.558594 21.710938 Z M 62.898438 21.710938 "/>
<path style=" stroke:none;fill-rule:nonzero;fill:rgb(0%,12.941176%,29.019608%);fill-opacity:1;" d="M 68.699219 24.871094 L 68.394531 23.953125 L 66.96875 23.953125 L 66.664062 24.871094 L 65.847656 24.871094 L 67.273438 21.046875 L 68.085938 21.046875 L 69.511719 24.871094 Z M 67.171875 23.289062 L 68.136719 23.289062 L 67.628906 21.863281 Z M 67.171875 23.289062 "/>
<path style=" stroke:none;fill-rule:nonzero;fill:rgb(0%,12.941176%,29.019608%);fill-opacity:1;" d="M 72.160156 21.046875 C 73.226562 21.046875 73.890625 21.863281 73.890625 22.933594 C 73.890625 24.003906 73.277344 24.820312 72.160156 24.820312 L 70.683594 24.820312 L 70.683594 21.046875 Z M 72.160156 24.15625 C 72.769531 24.15625 73.125 23.597656 73.125 22.933594 C 73.125 22.269531 72.820312 21.710938 72.160156 21.710938 L 71.445312 21.710938 L 71.445312 24.15625 Z M 72.160156 24.15625 "/>
<path style=" stroke:none;fill-rule:nonzero;fill:rgb(0%,12.941176%,29.019608%);fill-opacity:1;" d="M 75.3125 24.871094 L 75.3125 21.046875 L 76.078125 21.046875 L 76.078125 24.871094 Z M 75.3125 24.871094 "/>
<path style=" stroke:none;fill-rule:nonzero;fill:rgb(0%,12.941176%,29.019608%);fill-opacity:1;" d="M 79.792969 21.046875 L 80.554688 21.046875 L 80.554688 24.871094 L 79.84375 24.871094 L 78.46875 22.472656 L 78.46875 24.871094 L 77.707031 24.871094 L 77.707031 21.046875 L 78.417969 21.046875 L 79.792969 23.394531 Z M 79.792969 21.046875 "/>
<path style=" stroke:none;fill-rule:nonzero;fill:rgb(0%,12.941176%,29.019608%);fill-opacity:1;" d="M 81.929688 22.933594 C 81.929688 21.863281 82.792969 20.945312 83.863281 20.945312 C 84.421875 20.945312 84.929688 21.199219 85.289062 21.554688 L 84.726562 22.015625 C 84.523438 21.761719 84.21875 21.65625 83.863281 21.65625 C 83.203125 21.65625 82.691406 22.21875 82.691406 22.933594 C 82.691406 23.597656 83.203125 24.210938 83.914062 24.210938 C 84.421875 24.210938 84.878906 23.902344 84.878906 23.445312 L 83.8125 23.445312 L 83.8125 22.832031 L 85.746094 22.832031 C 85.746094 24.261719 84.980469 24.871094 83.914062 24.871094 C 82.792969 24.921875 81.929688 24.054688 81.929688 22.933594 Z M 81.929688 22.933594 "/>
<path style=" stroke:none;fill-rule:nonzero;fill:rgb(0%,12.941176%,29.019608%);fill-opacity:1;" d="M 31.246094 5.535156 C 28.039062 5.535156 25.445312 8.1875 25.445312 11.402344 C 25.445312 14.617188 28.039062 17.320312 31.246094 17.320312 C 34.449219 17.320312 37.046875 14.667969 37.046875 11.402344 C 37.046875 8.136719 34.449219 5.535156 31.246094 5.535156 Z M 31.246094 14.71875 C 29.464844 14.71875 28.191406 13.34375 28.191406 11.402344 C 28.191406 9.464844 29.464844 8.085938 31.246094 8.085938 C 33.027344 8.085938 34.296875 9.515625 34.296875 11.402344 C 34.296875 13.289062 32.976562 14.71875 31.246094 14.71875 Z M 31.246094 14.71875 "/>
<path style=" stroke:none;fill-rule:nonzero;fill:rgb(0%,12.941176%,29.019608%);fill-opacity:1;" d="M 58.164062 5.6875 L 58.164062 11.300781 L 54.042969 5.6875 L 51.449219 5.6875 L 51.449219 17.117188 L 54.347656 17.117188 L 54.347656 11.402344 L 58.570312 17.117188 L 61.066406 17.117188 L 61.066406 5.6875 Z M 58.164062 5.6875 "/>
<path style=" stroke:none;fill-rule:nonzero;fill:rgb(0%,12.941176%,29.019608%);fill-opacity:1;" d="M 68.292969 5.6875 L 63.558594 5.6875 L 63.558594 17.066406 L 68.292969 17.066406 C 71.394531 17.066406 73.480469 14.769531 73.480469 11.402344 C 73.480469 8.035156 71.394531 5.6875 68.292969 5.6875 Z M 66.410156 8.289062 L 68.292969 8.289062 C 69.867188 8.289062 70.582031 9.921875 70.582031 11.402344 C 70.582031 12.882812 69.867188 14.515625 68.292969 14.515625 L 66.410156 14.515625 Z M 66.410156 8.289062 "/>
<path style=" stroke:none;fill-rule:nonzero;fill:rgb(0%,12.941176%,29.019608%);fill-opacity:1;" d="M 46.664062 17.117188 L 49.769531 17.117188 L 45.136719 5.738281 L 42.289062 5.738281 L 37.65625 17.117188 L 40.710938 17.117188 L 41.625 14.515625 L 45.695312 14.515625 Z M 42.542969 11.964844 L 43.660156 8.851562 L 44.78125 11.964844 Z M 42.542969 11.964844 "/>
<path style=" stroke:none;fill-rule:nonzero;fill:rgb(0%,12.941176%,29.019608%);fill-opacity:1;" d="M 82.894531 17.117188 L 86 17.117188 L 81.371094 5.738281 L 78.519531 5.738281 L 73.890625 17.117188 L 76.992188 17.117188 L 77.910156 14.515625 L 81.980469 14.515625 Z M 78.773438 11.964844 L 79.894531 8.851562 L 81.011719 11.964844 Z M 78.773438 11.964844 "/>
<path style=" stroke:none;fill-rule:nonzero;fill:rgb(0%,12.941176%,29.019608%);fill-opacity:1;" d="M 4.886719 15.332031 L 1.679688 15.332031 L 0 9.003906 L 3.257812 9.003906 Z M 4.886719 15.332031 "/>
<path style=" stroke:none;fill-rule:nonzero;fill:rgb(0%,82.745098%,49.411765%);fill-opacity:1;" d="M 18.726562 9.871094 L 15.46875 9.871094 L 18.066406 0.128906 L 21.320312 0.128906 Z M 18.726562 9.871094 "/>
<path style=" stroke:none;fill-rule:nonzero;fill:rgb(0%,82.745098%,49.411765%);fill-opacity:1;" d="M 12.214844 5.027344 L 9.464844 15.28125 L 7.835938 21.300781 L 11.09375 21.300781 L 15.46875 5.027344 Z M 12.214844 5.027344 "/>
<path style=" stroke:none;fill-rule:nonzero;fill:rgb(0%,12.941176%,29.019608%);fill-opacity:1;" d="M 8.394531 11.402344 L 5.140625 11.402344 L 7.785156 21.300781 L 11.042969 21.300781 Z M 8.394531 11.402344 "/>
</g>
</svg>
