<?xml version="1.0" encoding="UTF-8"?>
<svg xmlns="http://www.w3.org/2000/svg" xmlns:xlink="http://www.w3.org/1999/xlink" width="300px" height="114px" viewBox="0 0 882 336" version="1.1">
<g id="surface1">
<path style=" stroke:none;fill-rule:nonzero;fill:rgb(64.313725%,81.568627%,62.352941%);fill-opacity:1;" d="M 779.804688 109.851562 C 780.605469 109.902344 789.15625 113.804688 790.707031 114.453125 L 801.503906 119.203125 C 802.65625 119.800781 803.753906 120.253906 805.105469 120.800781 L 816.054688 125.652344 C 818.503906 126.753906 820.851562 127.851562 823.402344 128.902344 C 825.902344 129.953125 828.101562 131.050781 830.601562 132.050781 L 845.152344 138.5 C 846.503906 139.101562 846.050781 139.203125 848.601562 137.652344 C 854.953125 133.800781 856.601562 133.550781 863.101562 128.453125 L 867.199219 124.652344 C 867.5 124.351562 867.5 124.351562 867.75 124.003906 C 875.199219 115.101562 877.699219 108.351562 877.699219 95.503906 C 877.699219 88.855469 875.25 82.753906 872.851562 78.40625 C 871.5 75.957031 869.902344 74.054688 868.152344 72.003906 C 865.449219 68.804688 862.851562 66.65625 859.351562 64.304688 C 857.101562 62.804688 857.5 62.207031 852.300781 65.707031 L 786.457031 105.402344 C 785.253906 106.101562 784.207031 106.753906 783.054688 107.453125 C 781.40625 108.402344 780.105469 108.804688 779.804688 109.851562 Z M 751.957031 214.949219 C 751.707031 214.746094 751.957031 214.898438 751.558594 214.597656 C 749.90625 213.296875 749.457031 213.597656 747.15625 211.347656 C 747.109375 211.296875 747.058594 211.246094 747.058594 211.246094 C 747.007812 211.199219 746.957031 211.148438 746.957031 211.097656 C 746.65625 210.746094 746.457031 210.546875 746.15625 210.148438 C 745.609375 209.398438 745.207031 208.648438 744.957031 207.648438 C 743.507812 201.949219 755.355469 196.546875 759.957031 193.847656 C 761.707031 192.796875 768.355469 189.25 769.007812 188.347656 L 748.207031 179.300781 C 746.707031 178.597656 745.359375 178.148438 743.957031 177.398438 C 742.558594 176.699219 741.257812 176.300781 739.859375 175.597656 L 718.960938 166.398438 C 714.960938 164.449219 708.261719 161.898438 704.410156 160 C 704.058594 159.851562 703.761719 159.652344 703.359375 159.5 C 702.558594 159.199219 702.460938 159.300781 702.261719 159.5 C 701.109375 161.5 698.460938 163.25 697.011719 168.898438 C 696.011719 172.898438 695.960938 177.898438 697.109375 181.800781 C 699.109375 188.898438 705.410156 193.796875 711.410156 196.847656 C 719.558594 200.949219 732.660156 206.699219 741.609375 210.496094 C 744.65625 211.746094 748.90625 214.046875 751.957031 214.949219 Z M 751.957031 214.949219 "/>
<path style=" stroke:none;fill-rule:nonzero;fill:rgb(46.666667%,67.843137%,82.352941%);fill-opacity:1;" d="M 701.410156 53.15625 C 700.859375 54.65625 699.710938 56.257812 698.960938 58.054688 C 696.460938 63.957031 696.308594 71.105469 698.710938 76.855469 C 701.410156 83.253906 708.058594 87.804688 714.660156 90.953125 C 721.359375 94.152344 728.558594 97.304688 735.457031 100.253906 C 738.957031 101.753906 742.308594 103.355469 745.90625 104.855469 C 748.308594 105.855469 754.355469 108.953125 756.457031 109.351562 C 755.355469 107.902344 745.207031 104.652344 747.359375 97.804688 C 748.757812 93.304688 754.605469 90.453125 758.90625 87.855469 L 793.253906 66.503906 C 810.253906 52.957031 814.902344 30.15625 802.105469 11.957031 C 801.753906 11.457031 801.355469 10.957031 800.953125 10.410156 L 797.953125 7.007812 C 797.90625 6.960938 797.855469 6.910156 797.804688 6.910156 L 795.753906 5.007812 C 795.253906 4.507812 794.804688 4.257812 794.253906 3.808594 L 789.605469 0.558594 C 788.15625 -0.339844 788.605469 0.0078125 786.304688 1.410156 L 781.207031 4.460938 C 777.65625 6.359375 768.855469 12.058594 764.65625 14.558594 Z M 663.710938 293.59375 C 663.710938 299.34375 665.761719 305.640625 667.761719 309.542969 C 677.160156 328.242188 698.859375 338.191406 717.710938 330.589844 C 718.507812 330.289062 719.109375 329.992188 720.007812 329.691406 C 722.460938 328.839844 726.207031 326.691406 728.558594 325.390625 L 769.65625 299.441406 C 770.40625 298.992188 770.957031 298.492188 771.707031 298.292969 L 767.554688 296.042969 C 766.257812 295.492188 764.957031 294.84375 763.457031 294.191406 C 753.207031 289.941406 740.90625 283.742188 730.757812 279.59375 C 729.410156 279.042969 728.058594 278.394531 726.707031 277.742188 L 714.460938 272.242188 C 713.257812 271.742188 706.761719 268.695312 706.160156 268.695312 C 705.460938 268.695312 683.011719 282.195312 679.710938 284.195312 L 666.5625 292.042969 C 665.761719 292.492188 664.511719 293.34375 663.710938 293.59375 Z M 849.703125 246.746094 C 850.300781 245.796875 850.851562 245.546875 851.550781 244.796875 C 856.300781 239.445312 857.75 232.347656 855.703125 225.347656 C 851.800781 211.996094 833.703125 206.699219 821.253906 201.097656 C 817.855469 199.597656 814.453125 198.097656 810.953125 196.597656 C 810.203125 196.25 801.703125 192.148438 800.953125 192.546875 C 803.804688 194 807.054688 196.597656 806.554688 200.347656 C 806.15625 203.449219 802.40625 206.546875 800.203125 207.847656 L 783.753906 217.296875 C 783.003906 217.695312 783.207031 217.296875 782.957031 218.195312 L 799.554688 225.496094 C 802.40625 226.847656 805.105469 227.847656 807.953125 229.195312 L 848.652344 247.246094 C 849.902344 247.34375 849.550781 247.195312 849.703125 246.746094 Z M 849.703125 246.746094 "/>
<path style=" stroke:none;fill-rule:nonzero;fill:rgb(0%,44.313725%,66.27451%);fill-opacity:1;" d="M 801.003906 192.5 C 801.753906 192.097656 810.253906 196.25 811.003906 196.546875 C 814.453125 198.046875 817.902344 199.546875 821.304688 201.046875 C 833.753906 206.648438 851.800781 211.949219 855.75 225.296875 C 857.800781 232.296875 856.351562 239.394531 851.601562 244.746094 C 850.902344 245.546875 850.300781 245.746094 849.75 246.695312 C 850.851562 246.445312 854.5 244.046875 855.601562 243.296875 C 864.5 237.296875 871.050781 232.695312 876.449219 222.695312 C 884 208.648438 883.949219 187.949219 875.898438 174.351562 C 875.25 173.25 874.902344 172.648438 874.199219 171.601562 C 871.351562 167.351562 867.601562 163.398438 864.800781 161.050781 C 864.601562 160.902344 864.550781 160.851562 864.402344 160.699219 C 863.902344 160.25 863.601562 160.050781 863.050781 159.601562 C 853.703125 152.050781 846.851562 149.550781 836.503906 144.703125 C 835.351562 144.152344 834.351562 143.851562 833.203125 143.300781 L 820.402344 137.652344 C 814.554688 134.902344 806.902344 131.902344 801.253906 129.203125 C 795.804688 126.601562 787.90625 123.351562 782.105469 120.753906 L 762.957031 112.304688 C 761.707031 111.753906 760.90625 111.351562 759.707031 110.851562 C 759.207031 110.652344 758.707031 110.453125 758.207031 110.152344 C 757.605469 109.804688 757.40625 109.503906 756.457031 109.402344 C 754.355469 109.003906 748.308594 105.953125 745.90625 104.902344 C 742.359375 103.355469 738.957031 101.804688 735.457031 100.304688 C 728.558594 97.355469 721.359375 94.203125 714.660156 91.003906 C 708.011719 87.804688 701.359375 83.253906 698.710938 76.90625 C 696.308594 71.15625 696.460938 64.054688 698.960938 58.105469 C 699.761719 56.257812 700.859375 54.65625 701.410156 53.207031 C 698.660156 55.15625 696.308594 56.40625 693.261719 58.855469 C 691.359375 60.355469 687.3125 63.855469 685.910156 65.605469 C 684.511719 67.40625 683.5625 68.105469 681.613281 70.65625 C 678.660156 74.605469 676.910156 78.15625 675.113281 82.65625 C 673.710938 86.105469 671.8125 93.503906 671.8125 98.105469 C 671.8125 99.855469 671.5625 100.503906 671.5625 102.304688 C 671.5625 112.402344 674.410156 123.152344 680.613281 130.753906 L 683.710938 134.550781 C 684.859375 135.902344 686.261719 137 687.410156 138 C 691.160156 141.300781 693.8125 143.300781 698.210938 145.953125 C 701.859375 148.152344 706.261719 150.601562 710.257812 152.351562 L 742.808594 166.648438 C 743.90625 167.101562 745.007812 167.648438 746.007812 168.101562 L 762.105469 175.148438 C 764.308594 176.148438 766.40625 177.050781 768.65625 178 C 769.707031 178.398438 770.757812 178.949219 771.90625 179.449219 L 781.65625 183.75 C 784.90625 185.050781 799.40625 191.347656 801.003906 192.5 Z M 51.996094 83.953125 C 51.996094 87.953125 52.898438 91.65625 54.546875 94.953125 C 64.695312 115.101562 104.992188 107.804688 114.144531 123.601562 C 116.59375 127.800781 115.792969 134 113.542969 138.101562 C 110.09375 144.453125 100.644531 147.050781 92.894531 147.050781 C 85.644531 147.050781 80.34375 146.601562 74.046875 143.25 C 72.445312 142.402344 71.546875 141.652344 70.246094 140.652344 C 65.746094 137.203125 63.246094 131.300781 62.847656 125.601562 C 62.644531 122.300781 64.996094 123.152344 49.746094 123.152344 C 49.347656 123.152344 48.996094 123.300781 48.996094 123.652344 C 48.996094 132.101562 51.246094 139.652344 55.945312 145.550781 C 57.296875 147.25 59.148438 149.25 60.847656 150.5 C 65.746094 154.199219 71.296875 156.851562 77.394531 158.101562 C 86.695312 160 96.644531 160.199219 105.894531 157.550781 C 112.292969 155.699219 115.542969 153.851562 120.34375 150.300781 C 121.894531 149.152344 123.542969 147.300781 124.691406 145.800781 C 125.292969 145 125.941406 144.101562 126.492188 143.152344 C 130.59375 135.703125 131.441406 125.851562 127.84375 117.953125 C 126.34375 114.601562 124.492188 112.503906 121.894531 110.054688 C 113.394531 102.203125 96.695312 100.054688 86.394531 97.453125 C 78.394531 95.402344 66.496094 92.953125 66.496094 82.855469 C 66.496094 63.40625 96.34375 63.355469 105.394531 72.054688 C 107.292969 73.90625 108.695312 75.207031 109.992188 78.105469 C 110.894531 80.203125 112.144531 83.953125 112.144531 86.804688 L 125.992188 86.804688 C 125.992188 84.203125 125.644531 81.503906 125.144531 79.253906 C 124.042969 74.304688 122.84375 71.457031 120.09375 67.503906 C 118.742188 65.554688 117.691406 64.554688 116.042969 62.90625 C 114.742188 61.605469 112.742188 60.355469 111.144531 59.40625 C 101.496094 53.605469 87.644531 53.15625 76.746094 55.554688 C 74.496094 56.054688 69.695312 57.757812 67.695312 58.855469 C 66.046875 59.757812 64.144531 60.804688 62.695312 61.957031 C 55.847656 67.554688 51.996094 75.15625 51.996094 83.953125 Z M 0 246.496094 C 0 254.195312 0.898438 261.894531 2.949219 267.996094 C 4 271.09375 4.851562 273.394531 6.199219 276.09375 C 8.800781 281.292969 12 285.292969 16.097656 289.09375 C 17.847656 290.691406 19.25 291.542969 21.046875 292.742188 C 35.398438 302.191406 60.695312 302.140625 74.394531 291.042969 L 77.394531 288.34375 C 77.796875 287.992188 77.796875 288.042969 78.195312 287.644531 C 85.144531 280.292969 88.894531 270.542969 89.996094 260.496094 C 90.09375 259.445312 90.496094 258.542969 89.496094 258.542969 L 75.695312 258.542969 C 75.597656 263.445312 73.695312 270.144531 71.097656 274.445312 L 66.894531 279.84375 C 66.847656 279.894531 66.796875 279.945312 66.746094 279.945312 C 65.296875 281.34375 64.394531 282.144531 62.597656 283.195312 C 51.898438 289.644531 35.648438 288.144531 26.5 279.792969 L 25.398438 278.695312 C 20.25 273.042969 19.148438 270.445312 16.699219 263.246094 C 13.5 253.894531 13.847656 238.945312 16.949219 229.648438 C 21.546875 215.898438 30.898438 206.746094 47.796875 206.746094 C 51.546875 206.746094 55.398438 207.398438 58.246094 208.398438 C 61.546875 209.546875 64.695312 211.246094 66.996094 213.449219 L 67.746094 214.199219 C 70.945312 217.097656 73.296875 221.648438 74.296875 225.898438 C 74.496094 226.796875 74.546875 227.945312 75.445312 227.945312 C 91.445312 227.945312 89.546875 228.945312 88.695312 224.796875 C 88.445312 223.597656 88.144531 222.148438 87.796875 220.996094 C 86.496094 216.796875 83.546875 210.796875 80.546875 207.796875 L 79.695312 206.898438 C 79.644531 206.847656 79.59375 206.796875 79.59375 206.746094 L 78.945312 205.949219 C 78.644531 205.597656 78.695312 205.648438 78.296875 205.347656 C 76.09375 203.648438 74.996094 202.148438 71.644531 200.398438 C 62.046875 195.347656 56.398438 194.398438 45.347656 194.398438 C 35.648438 194.398438 25.648438 198.148438 18.449219 203.746094 C 14.25 207.046875 11.25 210.496094 8.5 214.996094 C 5.648438 219.695312 5.550781 220.398438 3.5 225.546875 C 1.351562 231.046875 0 240.394531 0 246.496094 Z M 348.128906 121.453125 C 348.128906 113.652344 350.332031 105.054688 354.230469 100.652344 C 358.179688 96.203125 362.78125 94.304688 369.328125 94.304688 C 376.527344 94.304688 382.078125 97.203125 385.277344 101.304688 C 388.828125 105.855469 391.027344 113.003906 391.027344 118.703125 C 391.027344 125.050781 390.828125 130.453125 387.929688 136.300781 C 386.128906 139.902344 383.578125 142.953125 380.027344 144.953125 C 374.230469 148.199219 365.179688 148.25 359.53125 144.800781 C 351.378906 139.902344 348.128906 130.753906 348.128906 121.453125 Z M 390.777344 82.003906 C 390.777344 82.855469 390.527344 82.753906 390.679688 84.15625 L 390.777344 92.855469 C 389.726562 92.15625 388.078125 88.90625 382.128906 85.953125 C 372.980469 81.355469 361.128906 81.753906 352.128906 86.304688 C 347.230469 88.753906 343.378906 92.453125 340.582031 96.953125 C 337.480469 102.003906 335.53125 107.253906 334.832031 113.351562 L 334.28125 121.703125 C 334.332031 122.753906 334.480469 122.601562 334.53125 123.652344 C 334.582031 124.351562 334.480469 125.152344 334.53125 125.851562 C 334.78125 129.152344 335.980469 133.800781 336.929688 136.75 C 338.128906 140.300781 340.730469 145.300781 343.179688 148.25 C 352.429688 159.25 369.378906 162 381.828125 156.449219 C 384.929688 155.050781 386.578125 153.652344 388.777344 151.351562 C 389.476562 150.652344 390.027344 149.550781 390.679688 149.050781 L 390.628906 153.949219 C 390.628906 154 390.578125 154.5 390.578125 154.550781 L 390.679688 157.449219 L 403.726562 157.449219 L 403.726562 57.605469 C 403.726562 57.054688 403.578125 56.855469 402.976562 56.855469 L 390.628906 56.855469 Z M 574.46875 147.351562 C 567.519531 147.351562 564.769531 146.953125 559.417969 142.902344 C 558.269531 142.050781 557.667969 141.25 556.769531 140.152344 C 555.070312 138.101562 553.96875 135.902344 552.867188 133.203125 C 549.320312 124.402344 550.867188 108.152344 556.417969 101.453125 C 558.269531 99.253906 559.71875 97.753906 562.46875 96.402344 C 570.46875 92.402344 581.816406 94.105469 587.714844 101.105469 C 591.117188 105.105469 593.714844 112.652344 593.714844 118.054688 C 593.714844 123.953125 593.964844 127.050781 592.015625 132.902344 C 590.265625 138.050781 587.566406 142.25 582.867188 144.953125 C 580.917969 145.953125 577.417969 147.351562 574.46875 147.351562 Z M 593.417969 92.855469 C 592.867188 92.503906 591.066406 90.15625 589.617188 89.003906 C 585.167969 85.554688 578.367188 82.753906 572.21875 82.753906 C 565.019531 82.753906 561.019531 83.15625 554.769531 86.304688 C 544.46875 91.453125 539.019531 102.203125 537.519531 113.402344 C 534.570312 135.652344 545.019531 159.199219 571.21875 159.199219 C 577.765625 159.199219 585.117188 157.25 589.515625 153.351562 L 593.417969 149.101562 L 593.417969 157.5 L 606.464844 157.5 L 606.464844 56.855469 L 593.417969 56.855469 Z M 574.46875 287.144531 C 569.71875 287.144531 566.769531 287.191406 562.519531 284.792969 C 557.867188 282.195312 554.71875 278.09375 552.917969 272.945312 C 550.71875 266.542969 551.019531 264.496094 551.019531 258.042969 C 551.019531 249.644531 554.96875 239.894531 562.417969 236.195312 C 570.417969 232.195312 581.765625 233.894531 587.667969 240.894531 C 591.066406 244.894531 593.667969 252.445312 593.667969 257.84375 C 593.667969 263.792969 593.917969 266.792969 591.964844 272.695312 C 590.265625 277.792969 587.417969 282.09375 582.816406 284.742188 C 580.917969 285.792969 577.367188 287.144531 574.46875 287.144531 Z M 593.417969 232.644531 C 593.015625 232.347656 590.917969 229.847656 589.617188 228.796875 C 586.316406 226.195312 583.367188 224.847656 579.21875 223.648438 C 568.816406 220.695312 557.617188 223.148438 549.320312 229.695312 C 544.320312 233.644531 541.070312 239.796875 539.019531 246.046875 C 537.871094 249.445312 536.667969 257.445312 537.167969 261.542969 C 537.519531 264.496094 536.96875 264.042969 537.871094 269.746094 C 538.21875 272.042969 538.96875 274.84375 539.71875 276.792969 C 541.871094 282.445312 544.269531 286.441406 548.269531 290.441406 C 549.070312 291.242188 549.71875 291.792969 550.667969 292.492188 L 554.71875 295.09375 C 557.269531 296.492188 559.71875 297.441406 562.816406 298.09375 C 571.316406 299.792969 579.367188 299.191406 586.964844 294.992188 C 588.667969 294.042969 591.417969 291.644531 592.464844 290.144531 C 592.867188 289.542969 592.867188 289.34375 593.464844 288.894531 L 593.464844 297.292969 L 606.515625 297.292969 L 606.515625 196.648438 L 593.464844 196.648438 L 593.464844 232.644531 Z M 445.523438 147.351562 L 442.074219 147.351562 C 436.324219 147.351562 430.476562 144.101562 430.476562 138.453125 C 430.476562 134.351562 431.125 131.003906 434.875 128.550781 C 442.375 123.550781 454.472656 125.050781 462.722656 121.902344 C 463.574219 121.550781 464.222656 121.152344 465.023438 121.003906 C 465.023438 129.601562 466.375 134.203125 461.574219 140.5 C 458.425781 144.550781 451.175781 147.351562 445.523438 147.351562 Z M 419.375 107.902344 L 432.425781 107.902344 C 432.425781 91.054688 454.375 93.402344 460.023438 96.304688 C 464.523438 98.605469 464.921875 102.402344 464.921875 106.652344 C 464.921875 109.253906 462.523438 111.101562 460.625 112.003906 C 453.375 115.304688 434.027344 113.804688 422.726562 122.902344 C 419.175781 125.753906 416.578125 131.753906 416.578125 136.25 C 416.578125 142.351562 416.875 146.703125 420.976562 151.601562 L 421.925781 152.601562 C 426.976562 157.25 432.527344 159.152344 441.226562 159.152344 C 446.824219 159.152344 451.625 157.949219 455.523438 156.199219 C 457.625 155.25 459.175781 154.25 460.972656 153 C 461.375 152.699219 461.722656 152.550781 462.125 152.199219 L 465.625 149.050781 C 465.921875 150.351562 466.023438 151.851562 466.523438 153.101562 C 467.023438 154.300781 467.671875 155.402344 468.523438 156.300781 C 471.671875 159.601562 477.371094 159.75 481.523438 158.550781 C 482.324219 158.300781 482.921875 158.199219 483.574219 157.902344 C 484.324219 157.550781 484.621094 157.199219 485.371094 157 L 485.371094 146.652344 C 483.273438 146.851562 478.371094 149.5 477.972656 144.203125 L 477.972656 126.953125 C 477.972656 119.304688 477.972656 111.652344 477.972656 104.003906 C 478.023438 92.304688 472.773438 86.953125 463.273438 84.203125 C 454.675781 81.703125 439.324219 82.304688 431.527344 86.65625 C 430.324219 87.304688 428.476562 88.453125 427.476562 89.253906 C 422.125 93.855469 419.375 100.253906 419.375 107.902344 Z M 202.886719 287.144531 C 198.738281 287.144531 195.089844 287.242188 191.539062 284.695312 C 186.589844 281.144531 186.9375 272.34375 192.238281 268.34375 C 192.988281 267.792969 195.339844 266.695312 196.390625 266.34375 C 197.988281 265.792969 199.738281 265.394531 201.488281 265.042969 C 207.6875 263.792969 213.9375 263.894531 220.289062 261.644531 C 221.238281 261.292969 221.789062 260.945312 222.585938 260.746094 C 222.585938 265.996094 223.386719 272.195312 221.386719 276.542969 C 220.335938 278.894531 218.136719 281.542969 216.1875 282.945312 C 215.039062 283.792969 213.835938 284.394531 212.386719 285.09375 C 210.136719 286.191406 206.1875 287.144531 202.886719 287.144531 Z M 177.039062 247.695312 L 190.089844 247.695312 C 190.089844 230.546875 212.488281 233.296875 217.886719 236.195312 C 222.136719 238.445312 222.636719 242.046875 222.636719 246.246094 C 222.636719 248.996094 220.386719 250.945312 218.289062 251.796875 C 213.789062 253.59375 206.886719 254.144531 201.738281 254.996094 C 194.238281 256.246094 185.640625 258.09375 180.140625 262.996094 C 175.441406 267.144531 174.289062 272.542969 174.289062 278.84375 C 174.289062 286.042969 177.339844 290.691406 181.339844 293.941406 C 187.640625 299.042969 198.6875 299.941406 206.488281 298.191406 C 210.488281 297.292969 212.589844 296.441406 215.789062 294.691406 C 216.886719 294.09375 217.585938 293.691406 218.539062 292.992188 L 223.335938 288.941406 C 224.1875 299.390625 233.636719 300.59375 241.035156 297.792969 C 241.835938 297.492188 242.285156 297.042969 243.035156 296.84375 L 243.035156 286.492188 C 241.035156 286.644531 242.484375 287.242188 238.085938 287.242188 C 234.886719 287.242188 235.636719 281.195312 235.636719 278.34375 L 235.636719 243.597656 C 235.636719 239.695312 235.136719 236.695312 233.886719 233.996094 C 229.035156 223.296875 216.039062 222.648438 205.789062 222.648438 C 197.890625 222.648438 189.640625 225.445312 185.289062 228.996094 C 180.441406 232.945312 177.039062 238.847656 177.039062 247.695312 Z M 209.789062 147.101562 C 205.6875 147.101562 202.539062 147 199.238281 144.851562 C 193.9375 141.402344 194.339844 132.300781 199.738281 128.453125 C 206.589844 123.550781 220.488281 124.550781 227.738281 121.652344 C 228.535156 121.300781 229.285156 120.902344 230.035156 120.753906 C 230.035156 124.601562 230.136719 128.550781 230.035156 132.351562 C 229.988281 135.453125 228.035156 138.601562 226.488281 140.402344 C 223.1875 144.300781 217.039062 147.101562 209.789062 147.101562 Z M 184.441406 107.652344 L 197.488281 107.652344 C 197.539062 105.703125 198.140625 103.003906 198.789062 101.554688 C 200.4375 98.003906 203.136719 96.003906 207.039062 95.003906 C 215.136719 92.953125 230.285156 92.902344 230.285156 105.402344 C 230.285156 108.554688 228.636719 110.351562 226.4375 111.402344 C 222.085938 113.554688 214.039062 113.953125 209.636719 114.851562 C 199.488281 116.902344 188.1875 118.304688 183.441406 128.851562 C 179.589844 137.402344 181.738281 150.800781 191.890625 155.902344 C 200.339844 160.152344 212.589844 159.800781 220.835938 155.902344 C 223.6875 154.550781 226.386719 152.902344 228.738281 150.75 C 229.535156 150 230.136719 149.199219 231.035156 148.601562 C 231.035156 154.601562 234.9375 158.949219 240.886719 158.949219 C 245.1875 158.949219 247.085938 158.550781 250.484375 156.75 L 250.484375 146.402344 C 248.734375 146.550781 249.785156 147.152344 245.535156 147.152344 C 242.386719 147.152344 243.085938 140.953125 243.085938 138.050781 L 243.085938 103.054688 C 243.085938 99.453125 242.484375 95.703125 241.1875 93.355469 C 235.886719 83.503906 224.386719 82.605469 214.238281 82.605469 C 206.738281 82.605469 199.089844 84.355469 193.089844 88.855469 C 187.289062 93.054688 184.589844 100.503906 184.441406 107.652344 Z M 374.527344 234.144531 C 379.878906 234.144531 384.976562 236.144531 388.527344 239.644531 C 391.726562 242.796875 394.628906 248.496094 394.726562 253.144531 L 354.78125 253.144531 C 355.429688 251.796875 355.679688 240.695312 366.378906 235.894531 C 368.628906 234.894531 371.277344 234.144531 374.527344 234.144531 Z M 340.980469 260.042969 C 340.980469 262.945312 341.378906 265.792969 341.730469 268.394531 C 342.429688 273.492188 344.832031 280.945312 347.929688 285.144531 C 349.332031 287.042969 350.28125 288.441406 352.03125 290.191406 C 354.28125 292.441406 357.578125 294.492188 360.480469 295.792969 C 361.578125 296.292969 362.328125 296.644531 363.679688 297.042969 C 364.828125 297.394531 366.078125 297.742188 367.378906 298.042969 C 378.378906 300.242188 388.527344 298.691406 397.226562 292.09375 C 401.828125 288.59375 405.226562 282.394531 406.777344 276.742188 C 407.675781 273.492188 408.675781 274.34375 394.976562 274.34375 C 393.828125 274.34375 393.925781 276.59375 392.476562 278.992188 C 390.476562 282.242188 388.328125 284.492188 384.578125 285.894531 C 379.078125 287.992188 371.628906 287.441406 366.328125 285.242188 C 358.429688 281.945312 354.78125 273.492188 354.78125 264.996094 L 407.777344 264.996094 C 408.875 264.996094 408.675781 262.34375 408.625 261.695312 C 408.328125 257.195312 408.425781 254.394531 407.125 249.34375 C 405.726562 243.746094 404.378906 240.796875 401.578125 236.144531 C 400.976562 235.144531 400.328125 234.394531 399.578125 233.445312 C 399.128906 232.894531 399.078125 232.796875 398.578125 232.246094 C 393.078125 226.445312 385.828125 222.546875 377.429688 222.546875 C 370.230469 222.546875 366.027344 222.898438 359.679688 226.246094 C 347.429688 232.644531 340.980469 246.34375 340.980469 260.042969 Z M 494.820312 234.144531 C 500.972656 234.144531 504.621094 236.144531 508.820312 239.644531 C 511.871094 242.144531 514.972656 248.84375 515.070312 253.144531 L 475.125 253.144531 C 475.972656 242.796875 483.722656 234.144531 494.820312 234.144531 Z M 461.273438 260.042969 C 461.273438 274.195312 466.972656 289.941406 480.671875 295.894531 C 482.921875 296.84375 485.023438 297.542969 487.621094 298.042969 C 497.371094 299.992188 508.421875 298.894531 516.070312 293.144531 C 521.019531 289.441406 522.96875 286.34375 525.46875 281.09375 C 526.070312 279.84375 526.21875 279.242188 526.671875 277.894531 C 528.121094 273.695312 527.671875 274.644531 523.171875 274.644531 C 520.269531 274.644531 517.421875 274.644531 514.519531 274.644531 C 513.320312 279.84375 509.671875 284.09375 504.621094 285.941406 C 496.671875 288.894531 485.074219 287.144531 479.574219 279.742188 L 477.523438 276.59375 C 477.222656 275.992188 476.972656 275.394531 476.722656 274.695312 C 475.472656 271.492188 475.074219 268.996094 475.074219 264.996094 L 528.070312 264.996094 C 529.269531 264.996094 528.820312 263.042969 528.820312 259.792969 C 528.820312 252.59375 526.671875 245.445312 523.71875 239.496094 C 520.621094 233.347656 517.070312 229.597656 511.320312 226.246094 C 499.070312 219.148438 479.921875 222.097656 470.324219 234.097656 C 464.324219 241.546875 461.273438 249.84375 461.273438 260.042969 Z M 102.292969 297.292969 L 115.34375 297.292969 L 115.34375 255.144531 C 115.34375 249.796875 117.542969 242.644531 121.742188 239.097656 C 121.792969 239.046875 121.84375 238.996094 121.894531 238.996094 C 132.390625 230.195312 149.839844 233.644531 149.839844 246.496094 L 149.839844 297.292969 L 162.992188 297.292969 L 162.992188 246.496094 C 162.992188 240.445312 161.242188 234.597656 157.542969 229.996094 C 157.242188 229.648438 157.242188 229.597656 156.890625 229.148438 C 155.242188 227.296875 152.390625 225.496094 149.941406 224.496094 C 139.742188 220.445312 123.441406 222.046875 116.242188 231.996094 L 115.394531 233.144531 L 115.394531 196.648438 L 102.34375 196.648438 L 102.34375 297.292969 Z M 274.183594 94.355469 L 274.183594 86.203125 C 274.183594 85.15625 274.433594 84.253906 273.433594 84.253906 L 262.335938 84.253906 C 261.785156 84.253906 261.585938 84.40625 261.585938 85.003906 L 261.585938 156.75 C 261.585938 157.300781 261.734375 157.5 262.335938 157.5 L 274.183594 157.5 C 275.132812 157.5 274.933594 156.699219 274.933594 155.800781 L 274.933594 116.101562 C 274.933594 110.503906 276.132812 105.152344 279.632812 101.054688 C 287.933594 91.304688 309.484375 90.855469 309.484375 108.453125 L 309.484375 157.5 L 322.480469 157.5 L 322.480469 108.652344 C 322.480469 98.855469 319.03125 88.40625 309.382812 84.753906 C 299.53125 81.003906 285.632812 82.054688 277.785156 89.855469 C 276.132812 91.503906 275.734375 92.253906 274.585938 93.804688 Z M 303.734375 275.84375 C 303.734375 280.742188 304.683594 286.34375 307.183594 290.144531 C 313.183594 299.191406 323.980469 298.292969 334.082031 298.292969 C 334.832031 298.292969 334.832031 297.242188 334.832031 295.59375 L 334.78125 288.191406 C 334.78125 287.742188 334.78125 288.144531 334.832031 287.441406 C 334.882812 286.492188 334.78125 286.441406 334.632812 285.742188 C 328.03125 285.742188 320.832031 287.09375 318.082031 281.792969 C 317.382812 280.394531 316.882812 278.242188 316.882812 276.09375 L 316.882812 235.894531 L 334.132812 235.894531 C 334.679688 235.894531 334.882812 235.746094 334.882812 235.144531 L 334.882812 224.296875 L 316.882812 224.296875 L 316.882812 202.597656 L 303.832031 202.597656 Z M 172.839844 84.40625 L 155.191406 84.355469 C 154.640625 82.554688 155.042969 66.304688 155.042969 63.007812 L 142.242188 62.757812 L 142.242188 132.300781 C 142.242188 140.300781 142.191406 147.449219 147.589844 152.851562 C 149.140625 154.402344 150.691406 155.652344 152.839844 156.449219 C 158.539062 158.550781 162.039062 158.449219 168.089844 158.449219 C 174.039062 158.449219 173.039062 159.300781 173.039062 154.75 C 173.039062 151.800781 173.039062 148.851562 173.039062 145.851562 C 167.941406 145.851562 161.089844 146.601562 158.089844 144.050781 C 154.542969 141.101562 155.292969 136.050781 155.292969 129.800781 L 155.292969 96.003906 C 160.242188 96.003906 165.140625 95.953125 170.089844 96.003906 C 171.539062 96.003906 172.789062 96.402344 173.039062 95.253906 L 173.039062 85.15625 C 172.941406 84.40625 173.140625 85.003906 172.839844 84.40625 Z M 433.425781 237.597656 L 433.425781 224.046875 L 421.074219 224.046875 L 421.074219 297.292969 L 434.125 297.292969 C 434.125 288.742188 433.625 264.144531 434.625 257.09375 C 435.375 251.695312 436.976562 246.945312 440.476562 242.945312 C 442.425781 240.695312 445.476562 238.847656 448.625 237.796875 C 450.425781 237.195312 451.925781 236.945312 454.023438 236.546875 C 455.972656 236.195312 458.625 236.597656 460.222656 235.847656 L 459.972656 222.546875 C 455.472656 222.546875 452.324219 222.445312 447.972656 224.097656 C 442.175781 226.296875 438.574219 229.746094 435.226562 234.796875 C 434.875 235.296875 434.574219 235.695312 434.324219 236.144531 C 434.027344 236.894531 434.125 237.097656 433.425781 237.597656 Z M 266.535156 237.597656 L 266.535156 224.046875 L 254.1875 224.046875 L 254.1875 297.292969 L 267.234375 297.292969 L 267.234375 263.996094 C 267.234375 253.296875 270.382812 241.546875 281.382812 237.945312 C 285.035156 236.746094 289.285156 236.195312 293.132812 236.144531 L 293.132812 222.597656 C 287.832031 222.597656 286.433594 222.398438 281.132812 224.148438 C 271.632812 227.347656 267.484375 236.894531 266.535156 237.597656 Z M 508.871094 97.804688 L 508.871094 87.203125 C 508.871094 83.304688 510.671875 84.253906 496.523438 84.253906 L 496.523438 157.5 L 508.871094 157.5 C 510.070312 157.5 509.621094 155.199219 509.621094 152.800781 L 509.621094 125.203125 C 509.621094 121.050781 509.769531 118.453125 510.421875 114.902344 C 512.621094 102.902344 521.371094 96.402344 533.269531 96.605469 C 534.371094 96.605469 535.46875 96.902344 535.46875 95.855469 L 535.46875 82.804688 C 530.96875 82.804688 527.820312 82.703125 523.46875 84.355469 C 521.121094 85.253906 519.269531 86.304688 517.421875 87.65625 C 516.070312 88.65625 513.671875 90.953125 512.671875 92.253906 C 511.972656 93.152344 511.269531 94.003906 510.722656 94.953125 L 509.320312 97.253906 C 509.269531 97.304688 509.222656 97.355469 509.222656 97.402344 C 508.769531 97.953125 509.222656 97.402344 508.871094 97.804688 Z M 508.871094 97.804688 "/>
<path style=" stroke:none;fill-rule:nonzero;fill:rgb(12.941176%,66.27451%,27.843137%);fill-opacity:1;" d="M 751.957031 214.949219 C 748.90625 214.046875 744.65625 211.796875 741.609375 210.496094 C 732.660156 206.699219 719.558594 200.898438 711.410156 196.847656 C 705.359375 193.847656 699.109375 188.898438 697.109375 181.800781 C 696.011719 177.847656 696.011719 172.898438 697.011719 168.898438 C 698.460938 163.25 701.058594 161.5 702.261719 159.5 C 701.359375 159.699219 701.058594 160.101562 700.308594 160.601562 C 699.558594 161.101562 699.109375 161.351562 698.359375 161.851562 L 690.660156 167 C 686.5625 170.050781 682.3125 173.75 679.261719 177.800781 C 673.0625 186.148438 670.960938 192.597656 669.8125 203.347656 C 668.210938 218.097656 672.910156 231.695312 682.511719 241.296875 L 684.109375 242.894531 C 686.410156 244.945312 686.460938 245.246094 689.210938 247.394531 C 696.109375 252.84375 705.558594 257.792969 713.558594 261.246094 L 832.503906 314.390625 L 844.902344 320.992188 C 853.902344 326.140625 858.300781 328.941406 866.351562 334.789062 C 867.199219 335.390625 867.101562 335.742188 868.300781 336.039062 C 869.949219 334.839844 873.5 328.390625 874.449219 326.140625 C 880.648438 310.84375 881.300781 294.242188 873.25 280.292969 L 864.300781 269.042969 C 855.851562 261.445312 851.550781 259.394531 841.953125 254.644531 L 830.804688 249.746094 C 829.804688 249.34375 829.101562 248.996094 828.054688 248.546875 C 810.703125 241.097656 791.707031 232.097656 774.457031 224.945312 C 773.40625 224.496094 772.855469 224.195312 771.757812 223.695312 L 754.808594 216.246094 C 753.855469 215.746094 753.007812 215.148438 751.957031 214.949219 Z M 751.957031 214.949219 "/>
<path style=" stroke:none;fill-rule:nonzero;fill:rgb(0%,20.784314%,30.588235%);fill-opacity:1;" d="M 172.839844 84.40625 C 171.941406 83.953125 156.742188 84.203125 155.339844 84.203125 L 155.339844 63.507812 C 155.191406 62.90625 155.339844 63.355469 155.089844 63.007812 C 155.089844 66.253906 154.691406 82.503906 155.242188 84.355469 Z M 172.839844 84.40625 "/>
</g>
</svg>
