<?xml version="1.0" standalone="no"?>
<!DOCTYPE svg PUBLIC "-//W3C//DTD SVG 20010904//EN"
 "http://www.w3.org/TR/2001/REC-SVG-20010904/DTD/svg10.dtd">
<svg version="1.0" xmlns="http://www.w3.org/2000/svg"
 width="1320.000000pt" height="902.000000pt" viewBox="0 0 1320.000000 902.000000"
 preserveAspectRatio="xMidYMid meet">

<g transform="translate(0.000000,902.000000) scale(0.100000,-0.100000)"
fill="#000000" stroke="none">
<path d="M11194 8755 c0 -66 1 -92 3 -57 2 34 2 88 0 120 -2 31 -3 3 -3 -63z"/>
<path d="M12564 8755 c0 -60 1 -84 3 -52 2 32 2 81 0 110 -2 29 -3 3 -3 -58z"/>
<path d="M1754 8822 c-21 -14 -31 -47 -26 -94 5 -61 32 -68 32 -9 0 23 5 41
13 44 9 3 9 7 -2 20 -11 14 -11 18 3 23 9 3 13 10 10 15 -6 11 -15 11 -30 1z"/>
<path d="M1807 8824 c-8 -8 1 -24 14 -24 5 0 9 7 9 15 0 15 -12 20 -23 9z"/>
<path d="M4115 8818 c-76 -44 -49 -159 37 -158 37 1 59 14 76 47 19 35 14 63
-17 94 -31 30 -63 36 -96 17z m89 -27 c42 -46 -8 -130 -68 -115 -54 13 -70 78
-30 118 22 22 77 20 98 -3z"/>
<path d="M4152 8725 c0 -16 2 -22 5 -12 2 9 2 23 0 30 -3 6 -5 -1 -5 -18z"/>
<path d="M200 8750 c0 -68 15 -98 22 -42 2 21 9 28 31 30 37 4 35 22 -3 22
-23 0 -30 4 -30 20 0 16 7 20 35 20 19 0 35 5 35 10 0 6 -20 10 -45 10 l-45 0
0 -70z"/>
<path d="M620 8750 c0 -56 3 -70 15 -70 11 0 15 11 15 40 0 33 3 40 20 40 17
0 20 -7 20 -40 0 -29 4 -40 15 -40 11 0 15 11 15 38 0 50 -12 66 -44 60 -22
-4 -26 -2 -26 18 0 15 -6 24 -15 24 -12 0 -15 -14 -15 -70z"/>
<path d="M741 8750 l2 -71 51 3 c45 3 51 6 54 27 2 13 -1 28 -6 33 -7 7 -7 16
1 28 18 29 -7 50 -60 50 l-44 0 2 -70z m74 30 c0 -8 -10 -16 -22 -18 -18 -3
-23 2 -23 18 0 16 5 21 23 18 12 -2 22 -10 22 -18z m5 -60 c0 -15 -7 -20 -25
-20 -18 0 -25 5 -25 20 0 15 7 20 25 20 18 0 25 -5 25 -20z"/>
<path d="M1120 8750 c0 -56 3 -70 15 -70 9 0 15 9 15 23 l1 22 18 -22 c11 -13
27 -23 36 -23 15 0 15 3 -3 27 -18 25 -18 29 -5 50 14 21 14 23 0 23 -9 0 -23
-10 -31 -22 -16 -22 -16 -21 -16 20 0 31 -4 42 -15 42 -12 0 -15 -14 -15 -70z"/>
<path d="M1400 8750 c0 -56 3 -70 15 -70 8 0 15 9 15 19 0 13 9 21 30 26 72
16 55 95 -20 95 l-40 0 0 -70z m70 35 c15 -18 5 -35 -21 -35 -14 0 -19 7 -19
25 0 28 21 33 40 10z"/>
<path d="M2300 8796 c0 -19 -4 -22 -25 -18 -33 6 -55 -14 -55 -48 0 -37 20
-51 66 -48 42 4 39 -5 35 108 -1 35 -21 41 -21 6z m-5 -66 c0 -29 -32 -41 -41
-16 -9 24 4 48 23 44 12 -2 18 -12 18 -28z"/>
<path d="M2400 8750 l0 -70 45 0 c25 0 45 5 45 10 0 6 -13 10 -30 10 l-30 0 0
60 c0 47 -3 60 -15 60 -12 0 -15 -14 -15 -70z"/>
<path d="M2910 8750 l0 -70 44 0 c35 0 48 5 60 22 22 31 20 60 -5 92 -16 20
-29 26 -60 26 l-39 0 0 -70z m74 34 c32 -31 10 -90 -30 -82 -30 6 -30 98 0 98
8 0 22 -7 30 -16z"/>
<path d="M3280 8750 c0 -54 3 -70 14 -70 10 0 16 13 18 37 2 27 8 39 21 41 14
3 17 -4 17 -37 0 -30 4 -41 15 -41 11 0 15 12 15 45 0 49 -21 71 -52 54 -15
-8 -18 -6 -18 16 0 16 -6 25 -15 25 -12 0 -15 -14 -15 -70z"/>
<path d="M3410 8750 l0 -70 44 0 c46 0 56 10 56 55 0 29 -24 49 -53 43 -20 -4
-23 -1 -19 19 3 16 0 23 -12 23 -13 0 -16 -12 -16 -70z m70 -20 c0 -23 -5 -30
-19 -30 -21 0 -33 22 -25 45 4 8 15 15 25 15 14 0 19 -7 19 -30z"/>
<path d="M3920 8796 c0 -20 -4 -22 -26 -18 -31 6 -44 -10 -44 -55 0 -35 30
-61 53 -46 6 4 20 6 30 5 15 -3 17 6 17 67 0 56 -3 71 -15 71 -9 0 -15 -9 -15
-24z m0 -66 c0 -23 -4 -30 -20 -30 -16 0 -20 7 -20 30 0 23 4 30 20 30 16 0
20 -7 20 -30z"/>
<path d="M10481 8804 c0 -11 3 -14 6 -6 3 7 2 16 -1 19 -3 4 -6 -2 -5 -13z"/>
<path d="M1861 8788 c-10 -16 -10 -23 -2 -26 6 -2 11 -21 11 -42 0 -25 5 -40
16 -44 26 -10 35 4 19 27 -20 28 -19 47 3 63 10 8 12 13 5 14 -7 0 -13 7 -13
15 0 22 -23 18 -39 -7z"/>
<path d="M11437 8792 c-10 -10 -17 -25 -17 -33 0 -9 5 -7 12 6 21 37 68 50 68
19 0 -9 5 -14 12 -12 21 7 19 25 -4 32 -38 10 -54 7 -71 -12z"/>
<path d="M12308 8803 c10 -4 9 -9 -4 -24 -9 -10 -12 -19 -6 -19 6 0 14 5 17
10 4 6 11 8 16 5 5 -4 9 3 9 14 0 15 -6 21 -22 20 -13 0 -17 -3 -10 -6z"/>
<path d="M10450 8788 c15 -18 12 -26 -12 -31 l-23 -4 23 -2 c25 -1 28 -10 10
-31 -11 -13 -11 -13 2 -2 17 15 51 16 68 2 9 -7 9 -7 2 2 -14 16 -13 51 2 66
9 9 9 12 0 12 -7 0 -12 -4 -12 -10 0 -5 -10 -10 -23 -10 -13 0 -28 5 -35 10
-9 7 -9 7 -2 -2z m50 -33 c0 -8 -7 -15 -15 -15 -8 0 -15 7 -15 15 0 8 7 15 15
15 8 0 15 -7 15 -15z"/>
<path d="M11824 8775 c-26 -40 6 -82 45 -58 11 7 21 7 32 0 44 -28 68 34 27
69 -13 10 -17 12 -10 4 21 -24 14 -30 -40 -30 -50 0 -51 0 -33 20 10 11 13 20
7 20 -6 0 -19 -11 -28 -25z m44 -37 c-3 -7 -13 -13 -23 -13 -10 0 -20 6 -22
13 -3 7 5 12 22 12 17 0 25 -5 23 -12z m72 -3 c0 -8 -6 -15 -14 -15 -7 0 -19
7 -26 15 -11 13 -8 15 14 15 16 0 26 -5 26 -15z"/>
<path d="M413 8779 c-27 -10 -39 -49 -23 -78 8 -15 20 -21 45 -21 18 0 37 5
40 11 10 16 -1 22 -22 11 -20 -10 -43 -6 -43 9 0 5 16 9 35 9 27 0 35 4 35 18
0 36 -31 55 -67 41z m42 -29 c4 -6 -5 -10 -19 -10 -14 0 -26 5 -26 10 0 6 9
10 19 10 11 0 23 -4 26 -10z"/>
<path d="M1014 8764 c-15 -14 -23 -31 -20 -40 3 -9 6 -19 6 -23 0 -4 12 -13
26 -20 37 -16 74 8 74 48 0 52 -50 72 -86 35z m56 -34 c0 -23 -5 -30 -19 -30
-21 0 -33 22 -25 45 4 8 15 15 25 15 14 0 19 -7 19 -30z"/>
<path d="M1263 8779 c-34 -13 -29 -45 9 -58 24 -8 29 -14 20 -23 -8 -8 -15 -8
-27 2 -8 7 -19 10 -23 6 -4 -4 1 -13 11 -20 20 -16 66 -9 74 10 7 19 -15 44
-38 44 -11 0 -19 4 -19 9 0 15 18 23 25 11 8 -13 25 -13 25 0 0 17 -34 28 -57
19z"/>
<path d="M1640 8782 c-43 -13 -53 -73 -17 -96 28 -19 61 -11 74 17 19 40 -19
92 -57 79z m34 -38 c3 -8 1 -24 -5 -35 -8 -16 -13 -18 -25 -8 -15 12 -19 41
-7 52 11 12 31 7 37 -9z"/>
<path d="M2766 8778 c-20 -11 -21 -47 -1 -53 8 -3 22 -7 31 -10 8 -3 12 -9 9
-15 -4 -7 -13 -6 -26 1 -27 14 -39 1 -16 -16 24 -18 72 -5 72 20 0 18 -13 28
-50 40 -16 5 -17 8 -5 15 9 5 19 5 27 -2 15 -12 28 -5 19 10 -9 15 -41 20 -60
10z"/>
<path d="M10637 8782 c6 -4 13 -23 16 -42 l4 -35 1 37 c1 20 8 39 15 41 6 3
-1 6 -18 6 -17 0 -25 -3 -18 -7z"/>
<path d="M310 8729 c0 -37 4 -49 15 -49 11 0 15 11 15 40 0 29 4 40 15 40 29
0 15 17 -15 18 -29 1 -30 0 -30 -49z"/>
<path d="M514 8765 c-9 -23 3 -45 25 -45 11 0 22 -4 26 -9 9 -15 -15 -24 -30
-11 -19 16 -37 9 -26 -9 19 -31 98 -10 88 23 -3 11 -22 21 -52 31 -16 5 -17 8
-5 15 9 5 19 5 27 -2 15 -13 28 -4 18 11 -10 17 -65 13 -71 -4z"/>
<path d="M880 8761 c-15 -29 -12 -49 9 -70 42 -42 108 9 83 64 -15 32 -75 36
-92 6z m65 -31 c0 -16 -6 -26 -18 -28 -19 -4 -32 20 -23 44 9 25 41 13 41 -16z"/>
<path d="M1530 8730 c0 -37 4 -50 15 -50 9 0 12 6 9 15 -9 23 5 65 21 65 8 0
15 5 15 10 0 6 -13 10 -30 10 -29 0 -30 -1 -30 -50z"/>
<path d="M1804 8738 c3 -24 5 -46 5 -50 1 -5 6 -8 11 -8 6 0 10 23 10 50 0 39
-3 50 -16 50 -13 0 -15 -8 -10 -42z"/>
<path d="M1997 8774 c-16 -16 -5 -23 26 -17 22 4 29 2 22 -5 -5 -5 -19 -12
-29 -14 -10 -1 -24 -11 -30 -21 -9 -15 -7 -21 8 -32 12 -9 25 -11 35 -6 9 5
22 6 29 4 10 -4 12 7 10 43 -3 46 -5 49 -33 52 -17 2 -34 0 -38 -4z m43 -69
c-12 -15 -30 -12 -30 6 0 5 10 9 21 9 18 0 19 -2 9 -15z"/>
<path d="M2100 8729 c0 -37 4 -49 15 -49 11 0 15 11 15 40 0 33 3 40 20 40 17
0 20 -7 20 -40 0 -29 4 -40 15 -40 11 0 15 11 15 38 0 52 -9 61 -58 60 l-42 0
0 -49z"/>
<path d="M2522 8768 c-7 -7 -12 -24 -12 -38 0 -33 17 -50 50 -50 14 0 31 5 38
12 7 7 12 24 12 38 0 14 -5 31 -12 38 -7 7 -24 12 -38 12 -14 0 -31 -5 -38
-12z m58 -38 c0 -23 -4 -30 -20 -30 -16 0 -20 7 -20 30 0 23 4 30 20 30 16 0
20 -7 20 -30z"/>
<path d="M2636 8764 c-8 -21 11 -44 35 -44 10 0 20 -4 24 -9 9 -16 -13 -22
-34 -9 -21 13 -37 6 -26 -11 9 -15 68 -14 83 1 19 19 14 28 -23 44 -20 8 -33
19 -30 24 4 7 14 6 26 -1 23 -12 35 -6 24 10 -10 18 -72 13 -79 -5z"/>
<path d="M3067 8774 c-15 -15 -6 -24 18 -18 14 3 25 2 25 -4 0 -5 -13 -12 -30
-15 -21 -5 -30 -12 -30 -26 0 -24 30 -43 50 -31 7 4 19 6 27 3 11 -4 14 5 11
43 -3 46 -5 49 -33 52 -17 2 -34 0 -38 -4z m43 -63 c0 -14 -18 -23 -30 -16 -6
4 -8 11 -5 16 8 12 35 12 35 0z"/>
<path d="M3177 8773 c-17 -16 -5 -42 25 -52 24 -8 29 -14 20 -23 -8 -8 -15 -8
-27 2 -18 15 -34 5 -18 -11 15 -15 61 -15 76 0 16 16 -3 45 -32 49 -21 3 -27
13 -14 25 3 4 12 2 20 -5 15 -12 28 -5 18 11 -7 12 -58 15 -68 4z"/>
<path d="M3542 8768 c-34 -34 4 -102 51 -90 27 7 37 20 37 53 0 32 -17 49 -50
49 -14 0 -31 -5 -38 -12z m62 -23 c8 -23 -4 -45 -25 -45 -14 0 -19 7 -19 30 0
23 5 30 19 30 10 0 21 -7 25 -15z"/>
<path d="M3667 8773 c-15 -15 -5 -22 23 -16 17 3 30 1 30 -4 0 -6 -14 -13 -30
-17 -17 -3 -33 -13 -37 -22 -8 -22 24 -47 45 -35 8 5 23 6 33 4 16 -5 19 1 19
34 0 21 -5 44 -12 51 -13 13 -60 16 -71 5z m45 -75 c-11 -11 -32 -3 -32 12 0
12 34 18 39 7 2 -5 -1 -13 -7 -19z"/>
<path d="M3770 8729 c0 -37 4 -49 15 -49 11 0 15 11 15 36 0 27 5 37 20 41 32
8 23 21 -15 21 l-35 0 0 -49z"/>
<path d="M10700 8748 c0 -21 2 -38 4 -38 9 0 12 50 5 62 -6 8 -9 -1 -9 -24z"/>
<path d="M10739 8738 c4 -28 6 -29 9 -9 2 13 0 27 -5 32 -6 6 -7 -3 -4 -23z"/>
<path d="M10806 8756 c3 -9 2 -16 -4 -16 -6 0 -12 6 -15 13 -3 8 -7 6 -12 -6
-5 -11 -3 -23 5 -30 10 -9 11 -9 6 1 -5 8 0 12 13 12 27 0 34 15 16 30 -13 11
-14 10 -9 -4z"/>
<path d="M10879 8738 c4 -28 6 -29 9 -9 2 13 0 27 -5 32 -6 6 -7 -3 -4 -23z"/>
<path d="M10916 8743 c9 -38 14 -42 14 -10 0 14 -5 29 -10 32 -7 4 -8 -3 -4
-22z"/>
<path d="M10979 8758 c12 -16 11 -18 -2 -18 -8 0 -18 6 -20 13 -3 6 -6 0 -6
-15 -1 -16 4 -28 10 -28 5 0 7 5 4 10 -3 6 3 10 14 10 26 0 27 13 4 31 -16 13
-17 12 -4 -3z"/>
<path d="M12792 8761 c4 -13 18 -16 19 -4 0 4 -5 9 -11 12 -7 2 -11 -2 -8 -8z"/>
<path d="M12840 8755 c0 -8 5 -15 10 -15 6 0 10 7 10 15 0 8 -4 15 -10 15 -5
0 -10 -7 -10 -15z"/>
<path d="M12885 8761 c-6 -11 9 -23 19 -14 9 9 7 23 -3 23 -6 0 -12 -4 -16 -9z"/>
<path d="M10528 8753 c7 -3 16 -2 19 1 4 3 -2 6 -13 5 -11 0 -14 -3 -6 -6z"/>
<path d="M10840 8740 c0 -11 2 -20 4 -20 2 0 6 9 9 20 3 11 1 20 -4 20 -5 0
-9 -9 -9 -20z"/>
<path d="M11521 8747 c-1 -9 -13 -23 -27 -29 -22 -10 -28 -10 -39 5 -15 21
-25 22 -25 3 0 -15 21 -26 49 -26 23 0 55 35 48 52 -4 8 -6 7 -6 -5z"/>
<path d="M12231 8728 c-1 -24 3 -28 27 -28 19 0 23 3 13 9 -9 6 -10 11 -2 15
6 4 11 12 11 18 0 6 -9 3 -19 -6 -18 -17 -19 -17 -24 1 -3 12 -5 9 -6 -9z"/>
<path d="M10481 8704 c0 -11 3 -14 6 -6 3 7 2 16 -1 19 -3 4 -6 -2 -5 -13z"/>
<path d="M6360 8097 c0 -31 3 -57 8 -57 4 0 7 22 7 49 0 27 -3 53 -7 57 -5 4
-8 -18 -8 -49z"/>
<path d="M6399 8145 c-3 -26 0 -97 5 -102 3 -3 6 19 6 50 0 32 -2 57 -5 57 -3
0 -5 -2 -6 -5z"/>
<path d="M6702 8133 c-11 -21 -4 -93 9 -93 8 0 13 36 12 78 -1 6 5 12 13 12 8
0 14 5 14 10 0 17 -39 11 -48 -7z"/>
<path d="M5985 8125 c-3 -8 -7 -21 -9 -27 -7 -26 13 -58 37 -58 40 0 59 38 41
84 -8 21 -63 21 -69 1z m53 -29 c5 -38 -13 -55 -34 -34 -11 11 -14 25 -10 43
9 36 40 30 44 -9z"/>
<path d="M6470 8090 c0 -27 5 -50 10 -50 6 0 10 9 10 20 0 13 7 20 19 20 10 0
24 7 31 15 18 21 -4 45 -41 45 -28 0 -29 -2 -29 -50z m55 20 c0 -8 -8 -16 -17
-18 -13 -2 -18 3 -18 18 0 15 5 20 18 18 9 -2 17 -10 17 -18z"/>
<path d="M6782 8128 c-17 -21 0 -82 23 -86 16 -2 17 -1 6 6 -9 7 -12 20 -8 39
7 36 -5 60 -21 41z"/>
<path d="M6871 8088 c2 -48 2 -50 9 -18 l7 35 12 -32 c7 -18 16 -33 21 -33 4
0 15 17 24 38 10 24 14 28 11 12 -2 -14 0 -32 5 -40 7 -11 10 1 10 38 0 61
-13 67 -36 15 l-16 -38 -12 34 c-20 56 -36 51 -35 -11z"/>
<path d="M6070 8115 c0 -12 29 -75 35 -75 10 0 34 64 28 74 -3 5 -11 -4 -18
-20 l-12 -29 -8 28 c-6 22 -25 39 -25 22z"/>
<path d="M6161 8106 c-21 -26 -10 -61 22 -64 15 -2 27 1 27 6 0 6 -8 8 -19 5
-10 -3 -22 0 -25 6 -5 7 3 11 19 11 22 0 26 4 23 22 -4 27 -30 35 -47 14z m34
-16 c-3 -5 -10 -10 -16 -10 -5 0 -9 5 -9 10 0 6 7 10 16 10 8 0 12 -4 9 -10z"/>
<path d="M6231 8075 c0 -30 2 -35 8 -20 5 11 7 23 4 28 -2 4 3 10 11 13 23 9
20 23 -4 21 -17 -1 -20 -8 -19 -42z"/>
<path d="M6287 8113 c-14 -13 -6 -21 16 -16 19 4 19 2 -5 -12 -34 -19 -27 -45
13 -45 25 0 29 4 29 28 0 39 -32 67 -53 45z m28 -52 c-3 -6 -11 -8 -17 -5 -6
4 -5 9 3 15 16 10 23 4 14 -10z"/>
<path d="M6560 8078 c0 -21 5 -38 10 -38 6 0 10 14 10 30 0 17 5 30 10 30 6 0
10 4 10 8 0 4 -9 8 -20 8 -16 0 -20 -7 -20 -38z"/>
<path d="M6620 8106 c-20 -26 -8 -61 22 -64 22 -3 29 2 34 22 11 44 -29 74
-56 42z m38 -28 c-5 -32 -28 -35 -28 -4 0 17 5 26 16 26 10 0 14 -7 12 -22z"/>
<path d="M6747 8113 c-11 -10 -8 -73 3 -73 6 0 10 18 10 40 0 41 -2 45 -13 33z"/>
<path d="M7005 8111 c-3 -6 -4 -15 -1 -20 4 -5 1 -11 -6 -13 -23 -8 1 -38 30
-38 28 0 29 1 23 37 -6 37 -32 56 -46 34z m30 -11 c3 -5 -1 -10 -10 -10 -9 0
-13 5 -10 10 3 6 8 10 10 10 2 0 7 -4 10 -10z m-4 -43 c-13 -13 -26 -3 -16 12
3 6 11 8 17 5 6 -4 6 -10 -1 -17z"/>
<path d="M7075 8112 c-9 -10 -5 -72 5 -72 6 0 10 14 10 30 0 17 5 30 10 30 6
0 10 4 10 8 0 9 -27 12 -35 4z"/>
<path d="M7130 8105 c-19 -23 -8 -58 20 -65 17 -4 21 -8 12 -14 -6 -4 -16 -4
-22 -1 -5 3 -10 1 -10 -4 0 -16 36 -13 49 3 7 8 11 31 9 52 -2 29 -8 38 -24
40 -12 2 -27 -3 -34 -11z m38 -27 c-2 -13 -7 -23 -13 -23 -5 0 -11 10 -13 23
-2 15 2 22 13 22 11 0 15 -7 13 -22z"/>
<path d="M7213 8080 c0 -25 2 -35 4 -22 2 12 2 32 0 45 -2 12 -4 2 -4 -23z"/>
<path d="M7240 8079 c0 -21 5 -39 10 -39 6 0 10 14 10 30 0 20 5 30 15 30 10
0 15 -10 15 -30 0 -16 5 -30 10 -30 14 0 12 56 -2 67 -7 5 -23 10 -35 11 -20
1 -23 -4 -23 -39z"/>
<path d="M10802 8038 c-7 -7 -12 -24 -12 -38 0 -14 5 -31 12 -38 14 -14 44
-16 52 -4 2 4 -8 8 -22 7 -24 0 -27 4 -27 35 0 31 3 35 27 35 14 -1 24 3 22 7
-8 12 -38 10 -52 -4z"/>
<path d="M11348 8033 c-2 -10 -1 -34 3 -53 6 -31 6 -30 8 18 1 52 -3 67 -11
35z"/>
<path d="M11621 7998 c1 -29 4 -43 6 -30 5 26 21 29 37 7 9 -12 11 -6 11 27 0
39 -2 43 -27 46 -28 3 -28 3 -27 -50z m49 22 c0 -13 -7 -20 -20 -20 -13 0 -20
7 -20 20 0 13 7 20 20 20 13 0 20 -7 20 -20z"/>
<path d="M11101 7998 c-1 -27 3 -48 7 -48 4 0 6 17 4 38 -5 58 -10 62 -11 10z"/>
<path d="M10970 8019 c0 -5 5 -7 10 -4 6 3 10 8 10 11 0 2 -4 4 -10 4 -5 0
-10 -5 -10 -11z"/>
<path d="M10862 8000 c0 -14 2 -19 5 -12 2 6 2 18 0 25 -3 6 -5 1 -5 -13z"/>
<path d="M10893 7988 c2 -28 6 -34 30 -36 25 -3 27 -1 25 35 -1 37 -1 37 -5 6
-6 -45 -39 -46 -47 -3 -6 30 -6 30 -3 -2z"/>
<path d="M11021 8004 c0 -11 3 -14 6 -6 3 7 2 16 -1 19 -3 4 -6 -2 -5 -13z"/>
<path d="M11220 7985 c0 -19 2 -35 4 -35 2 0 6 16 8 35 2 19 0 35 -4 35 -4 0
-8 -16 -8 -35z"/>
<path d="M11300 8009 c0 -5 5 -7 10 -4 6 3 10 8 10 11 0 2 -4 4 -10 4 -5 0
-10 -5 -10 -11z"/>
<path d="M11383 7985 c0 -22 2 -30 4 -17 2 12 2 30 0 40 -3 9 -5 -1 -4 -23z"/>
<path d="M11420 8009 c0 -5 5 -7 10 -4 6 3 10 8 10 11 0 2 -4 4 -10 4 -5 0
-10 -5 -10 -11z"/>
<path d="M11461 8004 c0 -11 3 -14 6 -6 3 7 2 16 -1 19 -3 4 -6 -2 -5 -13z"/>
<path d="M11746 8007 c3 -10 9 -15 12 -12 3 3 0 11 -7 18 -10 9 -11 8 -5 -6z"/>
<path d="M11854 8006 c-11 -28 1 -51 26 -53 24 -1 24 -1 1 4 -19 4 -22 10 -19
34 5 31 1 38 -8 15z"/>
<path d="M11930 8009 c0 -5 5 -7 10 -4 6 3 10 8 10 11 0 2 -4 4 -10 4 -5 0
-10 -5 -10 -11z"/>
<path d="M11701 7989 c-1 -21 24 -43 41 -36 8 3 6 6 -5 6 -10 1 -22 11 -27 24
-6 15 -9 17 -9 6z"/>
<path d="M11050 7983 c17 -8 11 -21 -12 -26 -20 -5 -20 -5 2 -4 26 2 35 28 12
33 -7 1 -8 0 -2 -3z"/>
<path d="M11141 7973 c-1 -17 5 -23 18 -23 11 0 22 4 25 9 4 5 -3 7 -13 4 -13
-3 -21 1 -24 14 -4 15 -5 14 -6 -4z"/>
<path d="M11810 7981 c0 -7 -4 -9 -10 -6 -6 4 -7 -1 -3 -11 6 -15 7 -15 15 1
6 9 7 19 4 22 -3 4 -6 1 -6 -6z"/>
<path d="M11303 7970 c2 -8 12 -16 23 -17 13 -2 15 -1 4 4 -8 3 -19 11 -23 17
-6 7 -7 6 -4 -4z"/>
<path d="M12010 7968 c0 -13 8 -18 25 -18 14 0 25 4 25 10 0 5 -7 7 -16 3 -9
-3 -20 0 -25 8 -7 11 -9 11 -9 -3z"/>
<path d="M11507 7958 c2 -5 13 -8 24 -8 10 0 19 3 19 8 0 4 -11 7 -24 7 -13 0
-22 -3 -19 -7z"/>
<path d="M11525 7930 c-16 -7 -17 -9 -3 -9 9 -1 20 4 23 9 7 11 7 11 -20 0z"/>
<path d="M1462 7864 c-12 -8 -22 -22 -22 -30 0 -19 26 -18 34 1 7 18 56 20 57
3 3 -29 -5 -46 -47 -95 -24 -28 -44 -56 -44 -62 0 -7 25 -11 65 -11 50 0 65 3
65 14 0 10 -13 16 -40 18 l-40 3 40 49 c45 54 49 77 20 106 -24 24 -57 26 -88
4z"/>
<path d="M1645 7811 c-25 -38 -45 -74 -45 -80 0 -6 20 -11 45 -11 41 0 45 -2
45 -25 0 -16 6 -25 15 -25 9 0 15 9 15 24 0 13 6 27 13 30 10 5 10 7 0 12 -9
4 -13 29 -13 75 0 91 -16 91 -75 0z m43 -28 c-2 -31 -7 -38 -25 -39 -28 -2
-28 5 -5 45 23 41 34 39 30 -6z"/>
<path d="M1928 7863 c-25 -30 -78 -119 -78 -131 0 -7 17 -12 45 -12 41 0 45
-2 45 -25 0 -16 6 -25 15 -25 9 0 15 9 15 24 0 13 6 27 13 30 10 5 10 7 0 12
-9 4 -13 29 -13 75 0 73 -12 87 -42 52z m8 -109 c-6 -17 -46 -19 -46 -3 0 7
10 28 23 48 l22 36 3 -33 c2 -19 1 -40 -2 -48z"/>
<path d="M2048 7868 c-23 -19 -28 -43 -14 -70 10 -19 10 -26 -1 -36 -33 -32 1
-92 52 -92 52 0 84 59 51 92 -11 12 -11 17 0 33 19 26 18 41 -6 65 -23 23 -59
26 -82 8z m66 -34 c7 -19 -10 -44 -31 -44 -17 0 -27 24 -19 45 7 20 42 19 50
-1z m4 -107 c-2 -17 -10 -22 -33 -22 -35 0 -47 31 -20 51 25 18 57 0 53 -29z"/>
<path d="M2202 7871 c-8 -5 -12 -22 -10 -42 2 -27 8 -35 26 -37 29 -4 52 14
52 42 0 39 -36 58 -68 37z m43 -41 c0 -36 -29 -33 -33 3 -3 23 0 28 15 25 12
-2 18 -12 18 -28z"/>
<path d="M2267 7776 c-25 -41 -43 -77 -40 -80 4 -3 23 20 44 53 51 81 61 101
51 101 -5 0 -30 -33 -55 -74z"/>
<path d="M10930 7816 c0 -7 -11 -21 -25 -30 -15 -10 -25 -26 -25 -41 0 -27 9
-37 58 -65 34 -21 42 -47 17 -56 -16 -6 -29 -2 -57 18 -9 7 -20 9 -23 6 -10
-10 14 -48 30 -48 8 0 18 -7 23 -16 7 -13 13 -11 40 13 33 29 41 64 20 83 -7
6 -28 20 -46 31 -21 12 -32 26 -30 37 4 22 46 28 54 8 3 -9 12 -16 20 -16 23
0 16 28 -11 46 -14 9 -25 23 -25 30 0 8 -4 14 -10 14 -5 0 -10 -6 -10 -14z"/>
<path d="M11052 7773 c-30 -30 -14 -47 18 -18 24 22 54 16 58 -12 2 -15 -11
-38 -42 -71 -25 -27 -46 -54 -46 -61 0 -7 23 -11 65 -11 37 0 65 4 65 10 0 6
-21 10 -46 10 l-46 0 41 46 c47 54 54 94 19 118 -32 23 -55 20 -86 -11z"/>
<path d="M11237 7793 c-35 -9 -50 -112 -26 -167 21 -44 84 -42 109 4 13 25 13
103 -1 134 -10 20 -40 39 -59 35 -3 -1 -13 -3 -23 -6z m51 -35 c18 -18 15
-113 -4 -129 -36 -30 -68 45 -49 118 6 25 33 31 53 11z"/>
<path d="M11612 7773 c-30 -30 -14 -47 18 -18 24 22 54 16 58 -12 2 -15 -11
-38 -42 -71 -25 -27 -46 -54 -46 -61 0 -7 23 -11 65 -11 37 0 65 4 65 10 0 6
-21 10 -46 10 l-45 0 40 48 c47 55 53 93 19 116 -32 23 -55 20 -86 -11z"/>
<path d="M11782 7784 c-12 -8 -22 -22 -22 -30 0 -19 26 -18 34 2 9 24 50 14
54 -14 2 -15 -11 -38 -42 -73 -25 -28 -46 -55 -46 -60 0 -5 29 -9 65 -9 37 0
65 4 65 10 0 6 -18 10 -40 10 -22 0 -40 3 -40 6 0 4 16 24 35 45 45 50 49 104
9 119 -35 14 -46 13 -72 -6z"/>
<path d="M11979 7782 c-62 -31 -76 -144 -22 -179 31 -21 71 -8 92 28 29 51
-22 114 -71 88 -13 -7 -18 -6 -18 4 0 18 32 47 53 47 9 0 17 4 17 9 0 19 -17
20 -51 3z m40 -104 c12 -31 -5 -60 -32 -56 -22 3 -34 35 -23 64 9 22 46 17 55
-8z"/>
<path d="M11360 7780 c0 -5 23 -10 50 -10 28 0 50 -2 50 -4 0 -2 -16 -38 -35
-80 -40 -89 -40 -86 -20 -86 13 0 34 39 76 143 l19 47 -70 0 c-40 0 -70 -4
-70 -10z"/>
<path d="M2297 7753 c-4 -3 -7 -21 -7 -39 0 -35 22 -50 54 -38 22 8 31 50 16
69 -13 15 -51 20 -63 8z m53 -34 c0 -24 -29 -37 -40 -18 -12 18 7 50 25 43 8
-4 15 -15 15 -25z"/>
<path d="M1785 7700 c-4 -6 -3 -16 3 -22 6 -6 12 -6 17 2 4 6 3 16 -3 22 -6 6
-12 6 -17 -2z"/>
<path d="M11527 7588 c-2 -18 -3 -35 0 -38 7 -8 33 32 33 52 0 32 -27 20 -33
-14z"/>
<path d="M1460 7458 c0 -28 3 -49 6 -45 3 3 6 23 6 44 0 21 5 41 11 45 8 5 6
8 -5 8 -15 0 -18 -9 -18 -52z"/>
<path d="M1731 7473 c7 -10 15 -20 16 -22 2 -2 3 3 3 11 0 9 -7 19 -16 22 -15
6 -15 4 -3 -11z"/>
<path d="M1807 7480 c6 -8 13 -28 16 -45 l4 -30 2 31 c0 20 -6 37 -16 45 -16
12 -16 12 -6 -1z"/>
<path d="M1940 7476 c-19 -24 -9 -61 18 -62 18 -1 19 -1 2 3 -23 5 -27 42 -8
61 7 7 9 12 6 12 -3 0 -11 -7 -18 -14z"/>
<path d="M1547 7460 c-3 -11 -1 -20 4 -20 5 0 9 9 9 20 0 11 -2 20 -4 20 -2 0
-6 -9 -9 -20z"/>
<path d="M1591 7464 c0 -11 3 -14 6 -6 3 7 2 16 -1 19 -3 4 -6 -2 -5 -13z"/>
<path d="M1693 7464 c-8 -22 9 -48 33 -51 14 -2 12 0 -5 7 -18 8 -22 16 -19
35 6 28 1 33 -9 9z"/>
<path d="M1770 7445 c0 -19 2 -35 4 -35 2 0 6 16 8 35 2 19 0 35 -4 35 -4 0
-8 -16 -8 -35z"/>
<path d="M1853 7448 c2 -28 6 -33 30 -34 25 -1 27 2 26 35 -1 36 -1 36 -8 6
-9 -42 -38 -45 -45 -6 l-6 31 3 -32z"/>
<path d="M1976 7467 c3 -10 9 -15 12 -12 3 3 0 11 -7 18 -10 9 -11 8 -5 -6z"/>
<path d="M1503 7462 c-8 -5 -6 -14 8 -32 19 -23 19 -23 9 -2 -6 12 -8 27 -5
32 7 12 4 12 -12 2z"/>
<path d="M4374 7452 c-35 -23 -15 -102 25 -102 24 0 45 25 37 45 -6 17 -36 21
-36 5 0 -5 5 -10 10 -10 6 0 10 -5 10 -11 0 -6 -10 -9 -22 -7 -18 2 -23 10
-23 33 0 27 3 30 28 28 29 -2 37 11 11 21 -20 8 -26 7 -40 -2z"/>
<path d="M4779 7453 c-5 -40 -4 -95 3 -99 4 -3 8 4 8 15 0 14 8 21 27 23 50 6
38 68 -13 68 -13 0 -24 -3 -25 -7z m51 -28 c0 -8 -9 -15 -20 -15 -11 0 -20 7
-20 15 0 8 9 15 20 15 11 0 20 -7 20 -15z"/>
<path d="M5003 7445 c-11 -18 -4 -95 8 -95 5 0 9 15 9 34 0 19 6 37 13 39 10
4 10 6 0 6 -22 2 -14 19 10 24 19 4 19 4 -5 6 -15 0 -31 -6 -35 -14z"/>
<path d="M5170 7405 c0 -30 5 -55 10 -55 6 0 10 15 10 33 l1 32 16 -35 15 -35
19 40 18 40 1 -39 c0 -28 3 -37 11 -29 13 13 8 95 -7 100 -6 2 -17 -15 -24
-38 l-14 -42 -18 42 c-24 57 -38 52 -38 -14z"/>
<path d="M7747 7454 c-10 -11 -9 -92 2 -99 6 -3 11 12 13 32 l3 38 23 -38 c12
-21 27 -35 32 -32 13 8 13 92 0 100 -6 4 -10 -9 -11 -32 0 -35 -1 -37 -14 -18
-35 49 -41 56 -48 49z"/>
<path d="M8010 7404 c0 -34 4 -53 10 -49 6 3 10 12 10 20 0 7 10 15 21 17 12
2 27 11 33 21 9 15 7 21 -8 33 -11 8 -30 14 -43 14 -21 0 -23 -4 -23 -56z m58
19 c2 -8 -5 -13 -17 -13 -12 0 -21 6 -21 16 0 18 31 15 38 -3z"/>
<path d="M8242 7443 c-4 -10 -5 -36 -1 -58 6 -38 10 -37 13 4 0 11 4 22 8 26
4 4 4 13 2 20 -3 7 3 15 13 18 15 4 14 5 -4 6 -12 0 -26 -7 -31 -16z"/>
<path d="M8405 7437 c-6 -23 0 -75 10 -85 3 -3 5 12 6 34 l0 39 19 -40 18 -40
16 35 c15 34 15 34 16 8 0 -15 5 -30 10 -33 6 -4 10 15 10 49 0 60 -14 73 -31
29 -5 -16 -12 -35 -15 -43 -4 -10 -11 0 -21 28 -16 47 -30 54 -38 19z"/>
<path d="M8745 7450 c3 -5 8 -10 11 -10 2 0 4 5 4 10 0 6 -5 10 -11 10 -5 0
-7 -4 -4 -10z"/>
<path d="M5088 7439 c-8 -25 5 -89 18 -89 8 0 14 5 14 10 0 6 -4 10 -9 10 -9
0 -7 31 2 48 3 4 -1 12 -8 19 -9 8 -15 9 -17 2z"/>
<path d="M7922 7433 c-8 -8 -9 -13 -2 -13 5 0 10 -13 10 -29 0 -17 5 -33 11
-36 13 -9 27 4 14 13 -14 10 -17 32 -6 46 14 17 -11 36 -27 19z"/>
<path d="M8318 7438 c-7 -21 6 -81 18 -85 9 -3 10 15 5 90 -1 12 -19 8 -23 -5z"/>
<path d="M1645 7429 c-4 -6 -5 -12 -2 -15 2 -3 7 2 10 11 7 17 1 20 -8 4z"/>
<path d="M1558 7418 c5 -5 16 -8 23 -6 8 3 3 7 -10 11 -17 4 -21 3 -13 -5z"/>
<path d="M4458 7425 c-6 -6 0 -66 7 -73 3 -3 5 9 5 26 0 18 5 32 10 32 6 0 10
5 10 10 0 10 -23 14 -32 5z"/>
<path d="M4512 7418 c-29 -29 3 -82 36 -61 25 15 22 67 -3 71 -11 1 -26 -3
-33 -10z m41 -12 c3 -8 0 -22 -8 -33 -13 -17 -14 -17 -20 0 -8 20 0 47 14 47
5 0 11 -6 14 -14z"/>
<path d="M4597 7423 c-14 -13 -7 -31 14 -36 12 -3 18 -10 14 -17 -5 -8 -11 -8
-21 1 -10 9 -14 9 -14 0 0 -18 29 -25 46 -10 15 12 14 15 -5 30 -27 22 -27 29
1 21 14 -3 19 -2 14 6 -8 13 -39 16 -49 5z"/>
<path d="M4664 7419 c-4 -7 4 -20 17 -30 13 -10 21 -21 17 -25 -4 -4 -15 -1
-24 7 -15 12 -17 12 -12 -1 2 -8 15 -15 29 -15 30 0 38 31 10 40 -12 3 -21 11
-21 16 0 6 9 7 21 4 15 -5 19 -4 15 4 -9 14 -43 14 -52 0z"/>
<path d="M4871 7388 c2 -34 3 -37 6 -13 3 16 12 35 21 42 15 11 15 12 -5 13
-21 0 -23 -5 -22 -42z"/>
<path d="M4922 7418 c-27 -27 -3 -73 35 -66 27 5 25 72 -2 76 -11 1 -26 -3
-33 -10z m42 -14 c8 -20 -1 -34 -20 -34 -8 0 -14 8 -14 18 0 33 23 44 34 16z"/>
<path d="M5050 7389 c0 -48 6 -49 15 -2 3 18 1 35 -5 38 -6 4 -10 -10 -10 -36z"/>
<path d="M5305 7420 c-5 -9 -1 -10 14 -5 12 4 21 2 21 -4 0 -6 -9 -11 -19 -11
-18 0 -37 -27 -27 -38 3 -2 19 -6 36 -8 30 -4 31 -3 28 34 -2 29 -8 38 -25 40
-11 2 -24 -2 -28 -8z m35 -40 c0 -5 -7 -10 -16 -10 -8 0 -12 5 -9 10 3 6 10
10 16 10 5 0 9 -4 9 -10z"/>
<path d="M5379 7428 c-5 -16 -2 -71 3 -75 5 -2 8 8 8 23 0 15 8 33 18 40 16
12 15 13 -5 14 -13 0 -23 -1 -24 -2z"/>
<path d="M5430 7415 c-17 -20 -9 -48 19 -61 l24 -12 -24 -4 c-21 -4 -22 -6 -6
-12 28 -13 47 11 47 60 0 40 -2 44 -24 44 -13 0 -29 -7 -36 -15z m40 -20 c0
-16 -6 -25 -15 -25 -15 0 -21 31 -8 43 13 14 23 6 23 -18z"/>
<path d="M5510 7389 c0 -22 4 -38 8 -35 12 7 14 76 2 76 -5 0 -10 -18 -10 -41z"/>
<path d="M5540 7391 c0 -48 17 -55 22 -9 4 46 28 49 28 4 0 -20 5 -36 11 -36
6 0 9 16 7 38 -3 34 -6 37 -35 40 -32 3 -33 2 -33 -37z"/>
<path d="M7850 7415 c-10 -12 -10 -21 -2 -40 12 -26 27 -31 52 -15 12 8 9 10
-12 10 -16 0 -28 5 -28 10 0 6 12 10 26 10 20 0 25 4 20 16 -3 9 -6 18 -6 20
0 11 -39 2 -50 -11z m40 -5 c0 -5 -7 -10 -16 -10 -8 0 -12 5 -9 10 3 6 10 10
16 10 5 0 9 -4 9 -10z"/>
<path d="M8100 7390 c0 -22 5 -40 10 -40 6 0 10 14 10 30 0 17 5 30 10 30 6 0
10 5 10 10 0 6 -9 10 -20 10 -17 0 -20 -7 -20 -40z"/>
<path d="M8154 7416 c-16 -42 24 -83 52 -54 25 25 11 68 -22 68 -13 0 -27 -6
-30 -14z m46 -27 c0 -10 -7 -19 -15 -19 -15 0 -21 31 -9 43 11 10 24 -3 24
-24z"/>
<path d="M8280 7396 c0 -19 5 -38 10 -41 6 -4 10 10 10 34 0 23 -4 41 -10 41
-5 0 -10 -15 -10 -34z"/>
<path d="M8535 7420 c-5 -9 -1 -10 14 -5 11 3 21 2 21 -3 0 -5 -9 -12 -21 -15
-32 -8 -21 -42 14 -43 26 -1 28 1 25 35 -2 28 -8 37 -25 39 -11 2 -24 -2 -28
-8z m35 -40 c0 -5 -4 -10 -10 -10 -5 0 -10 5 -10 10 0 6 5 10 10 10 6 0 10 -4
10 -10z"/>
<path d="M8610 7389 c0 -24 4 -38 10 -34 6 3 10 17 10 31 0 13 5 24 10 24 6 0
10 5 10 10 0 6 -9 10 -20 10 -17 0 -20 -7 -20 -41z"/>
<path d="M8664 7416 c-12 -30 0 -61 23 -60 12 0 20 -3 17 -8 -3 -4 -15 -8 -27
-8 -19 -1 -20 -2 -5 -10 19 -11 48 -3 49 14 6 77 5 81 -24 84 -17 2 -29 -2
-33 -12z m44 -24 c2 -14 -2 -22 -12 -22 -19 0 -28 14 -20 35 9 21 28 14 32
-13z"/>
<path d="M8740 7396 c0 -19 5 -38 10 -41 6 -4 10 10 10 34 0 23 -4 41 -10 41
-5 0 -10 -15 -10 -34z"/>
<path d="M8780 7390 c0 -25 4 -39 10 -35 6 3 10 20 10 36 0 42 23 33 32 -12 6
-34 6 -34 5 6 -2 36 -5 40 -29 43 -27 3 -28 1 -28 -38z"/>
<path d="M1939 7069 c-8 -8 -18 -23 -22 -32 -6 -17 -4 -20 43 -56 20 -16 23
-22 12 -33 -10 -10 -16 -10 -33 0 -31 19 -36 6 -8 -20 l24 -23 23 21 c30 29
28 52 -8 72 -16 9 -30 25 -30 35 0 20 20 23 38 5 22 -22 22 -1 0 23 -21 22
-24 23 -39 8z"/>
<path d="M822 7055 c-28 -26 -21 -50 19 -71 16 -8 29 -19 29 -25 0 -16 -29
-22 -45 -9 -26 22 -30 1 -5 -23 24 -23 24 -23 47 -3 32 28 29 51 -12 75 -23
14 -33 25 -29 36 8 20 31 19 43 -2 5 -10 12 -15 15 -12 10 10 -5 39 -19 39 -7
0 -15 4 -17 9 -1 4 -13 -2 -26 -14z"/>
<path d="M2329 7050 c-19 -15 -21 -19 -7 -20 9 0 18 5 20 12 6 16 38 2 38 -16
0 -9 -13 -31 -30 -49 -16 -19 -30 -37 -30 -41 0 -3 21 -5 48 -4 36 1 39 2 15
5 -40 5 -41 12 -8 43 30 28 32 65 6 80 -26 13 -25 13 -52 -10z"/>
<path d="M936 7041 c-22 -24 -24 -88 -3 -108 20 -20 64 -10 72 17 9 29 -12 60
-40 60 -33 0 -32 16 3 34 24 13 25 15 6 16 -11 0 -29 -9 -38 -19z m44 -56 c16
-20 5 -45 -20 -45 -14 0 -20 7 -20 23 0 38 18 48 40 22z"/>
<path d="M1040 7026 c0 -32 2 -35 28 -33 23 2 28 -2 30 -25 3 -22 -1 -28 -15
-28 -11 0 -24 5 -31 12 -6 6 -14 9 -17 6 -9 -9 25 -38 44 -38 26 0 43 24 39
57 -2 22 -9 29 -31 31 -38 5 -32 35 8 43 27 6 26 7 -12 8 -42 1 -43 1 -43 -33z"/>
<path d="M1216 7044 c-3 -9 -6 -25 -6 -36 0 -16 5 -19 25 -14 26 7 47 -17 38
-41 -5 -15 -43 -17 -43 -3 0 6 -4 10 -10 10 -5 0 -10 -6 -10 -14 0 -18 33 -30
59 -21 45 14 32 85 -15 85 -37 0 -28 33 11 41 29 7 29 7 -6 8 -25 1 -39 -4
-43 -15z"/>
<path d="M1346 7016 c-33 -57 -33 -66 4 -66 20 0 30 -5 30 -15 0 -23 14 -18
27 10 6 14 7 25 2 25 -5 0 -9 20 -9 45 0 59 -20 59 -54 1z m34 -16 c0 -23 -4
-30 -20 -30 -24 0 -25 4 -4 35 21 32 24 31 24 -5z"/>
<path d="M1440 6990 c0 -68 15 -98 22 -43 4 37 20 38 41 3 10 -16 25 -30 33
-30 11 0 8 10 -12 40 l-26 39 22 31 c28 40 8 39 -30 -2 l-29 -33 -1 33 c0 17
-4 32 -10 32 -6 0 -10 -30 -10 -70z"/>
<path d="M2036 7038 c-11 -42 -8 -48 23 -42 20 4 30 2 34 -10 13 -33 -21 -64
-38 -36 -8 13 -25 13 -25 0 0 -15 35 -29 58 -23 24 6 36 34 27 63 -4 14 -15
20 -36 20 -41 0 -36 32 6 41 30 7 29 7 -6 8 -30 1 -38 -3 -43 -21z"/>
<path d="M2168 7053 c-10 -2 -18 -8 -18 -13 0 -5 7 -7 15 -4 12 5 15 -4 15
-50 0 -31 5 -56 10 -56 6 0 10 28 10 65 0 36 -3 64 -7 64 -5 -1 -16 -3 -25 -6z"/>
<path d="M2440 7026 c0 -32 2 -35 27 -33 22 2 29 -3 31 -21 4 -25 -23 -41 -41
-23 -16 16 -27 14 -21 -4 8 -20 40 -28 64 -15 16 9 20 19 18 43 -2 27 -8 33
-30 35 -42 5 -38 39 5 45 28 3 26 4 -10 5 -43 2 -43 2 -43 -32z"/>
<path d="M2550 6995 c0 -37 4 -65 10 -65 6 0 10 9 10 19 0 33 21 35 45 5 31
-38 43 -24 15 16 l-23 32 22 29 c30 40 5 37 -30 -3 l-28 -33 -1 33 c0 17 -4
32 -10 32 -6 0 -10 -28 -10 -65z"/>
<path d="M8130 7023 c-234 -12 -467 -88 -667 -219 -108 -71 -300 -260 -367
-362 -137 -208 -226 -473 -226 -673 l0 -69 264 0 263 0 6 68 c10 102 32 178
82 277 83 166 198 281 360 360 125 61 197 78 335 79 63 1 133 -1 154 -4 l39
-5 57 258 c31 142 54 259 51 261 -25 15 -251 34 -351 29z"/>
<path d="M2265 6941 c-3 -5 -1 -12 5 -16 5 -3 10 1 10 9 0 18 -6 21 -15 7z"/>
<path d="M10030 6900 c0 -50 17 -69 27 -30 3 11 13 20 23 20 23 0 42 24 34 44
-4 11 -18 16 -45 16 l-39 0 0 -50z m64 25 c3 -9 -1 -18 -10 -22 -19 -7 -39 11
-30 26 10 16 33 13 40 -4z"/>
<path d="M10587 6937 c-7 -19 7 -90 18 -94 9 -3 12 53 6 100 -2 12 -18 8 -24
-6z"/>
<path d="M10676 6933 c-7 -18 17 -43 41 -43 7 0 13 -7 13 -15 0 -17 -25 -20
-35 -5 -9 14 -28 13 -23 -2 7 -19 45 -28 64 -14 22 17 12 43 -21 56 -15 6 -23
14 -20 20 9 14 32 12 38 -2 2 -7 8 -10 12 -6 13 12 -6 28 -35 28 -17 0 -30 -7
-34 -17z"/>
<path d="M10767 6937 c-7 -19 7 -90 18 -94 9 -3 12 53 6 100 -2 12 -18 8 -24
-6z"/>
<path d="M10902 6938 c-5 -7 -7 -27 -5 -45 6 -36 27 -61 38 -43 3 5 1 10 -4
10 -13 0 -15 47 -2 52 5 2 4 11 -3 21 -11 13 -16 15 -24 5z"/>
<path d="M1150 6930 c0 -5 5 -10 10 -10 6 0 10 5 10 10 0 6 -4 10 -10 10 -5 0
-10 -4 -10 -10z"/>
<path d="M10143 6923 c-21 -8 -14 -25 7 -18 11 4 20 2 20 -4 0 -6 -9 -11 -20
-11 -22 0 -29 -35 -7 -43 31 -10 48 5 45 42 -3 35 -17 46 -45 34z m27 -53 c0
-5 -4 -10 -10 -10 -5 0 -10 5 -10 10 0 6 5 10 10 10 6 0 10 -4 10 -10z"/>
<path d="M10210 6917 c0 -8 5 -29 12 -47 9 -26 9 -35 0 -38 -15 -5 -16 -22 -2
-22 14 0 52 89 46 109 -3 12 -6 11 -11 -6 -8 -26 -25 -31 -25 -9 0 8 -4 18
-10 21 -5 3 -10 0 -10 -8z"/>
<path d="M10284 6915 c-2 -5 0 -23 4 -40 l8 -30 7 33 c8 40 27 42 27 2 0 -16
5 -30 10 -30 6 0 10 14 10 30 0 20 5 30 15 30 10 0 15 -10 15 -30 0 -16 5 -30
11 -30 6 0 9 16 7 38 l-3 37 -54 0 c-29 0 -55 -4 -57 -10z"/>
<path d="M10427 6916 c-29 -30 0 -84 38 -70 22 9 18 23 -5 17 -11 -3 -20 0
-20 6 0 6 11 11 25 11 28 0 29 3 15 31 -13 23 -33 25 -53 5z m33 -16 c0 -5 -4
-10 -10 -10 -5 0 -10 5 -10 10 0 6 5 10 10 10 6 0 10 -4 10 -10z"/>
<path d="M10500 6888 c0 -21 5 -38 10 -38 6 0 10 14 10 30 0 20 5 30 15 30 10
0 15 -10 15 -30 0 -16 5 -30 10 -30 14 0 12 57 -2 67 -7 4 -23 8 -35 8 -20 1
-23 -4 -23 -37z"/>
<path d="M10833 6923 c-21 -8 -14 -25 7 -18 11 4 20 2 20 -4 0 -6 -9 -11 -19
-11 -11 0 -23 -5 -27 -11 -10 -17 19 -39 44 -33 17 5 22 14 22 39 0 21 -6 35
-16 39 -9 3 -16 6 -17 5 -1 0 -8 -3 -14 -6z m27 -53 c0 -5 -4 -10 -10 -10 -5
0 -10 5 -10 10 0 6 5 10 10 10 6 0 10 -4 10 -10z"/>
<path d="M10950 6891 c0 -42 10 -50 47 -43 18 3 23 11 23 38 0 43 -18 54 -22
12 -4 -46 -28 -49 -28 -4 0 20 -4 36 -10 36 -5 0 -10 -18 -10 -39z"/>
<path d="M11043 6919 c-14 -14 -6 -39 12 -39 8 0 17 -5 21 -11 5 -9 -1 -10
-22 -5 -27 6 -28 5 -10 -8 14 -11 24 -12 37 -5 26 13 24 28 -6 39 -33 13 -32
24 2 15 23 -5 25 -4 14 9 -16 19 -33 20 -48 5z"/>
<path d="M10056 6738 c-24 -57 -28 -78 -17 -78 6 0 11 5 11 10 0 15 48 12 53
-2 2 -7 7 -10 11 -7 7 7 -22 97 -35 105 -5 3 -16 -10 -23 -28z m27 -18 c3 -12
0 -20 -8 -20 -8 0 -11 8 -8 20 3 11 7 20 8 20 1 0 5 -9 8 -20z"/>
<path d="M10320 6755 c-7 -8 -9 -19 -5 -23 4 -4 10 -1 12 6 6 16 33 16 33 -1
0 -8 -11 -24 -25 -37 -34 -32 -31 -40 13 -39 23 1 29 3 14 6 l-22 4 21 31 c17
23 20 35 12 47 -14 22 -37 25 -53 6z"/>
<path d="M10412 6761 c-9 -5 -12 -24 -10 -52 3 -39 6 -44 30 -47 22 -3 29 2
34 24 13 53 -19 98 -54 75z m33 -51 c0 -18 -6 -35 -12 -37 -9 -3 -13 8 -13 37
0 29 4 40 13 38 6 -3 12 -20 12 -38z"/>
<path d="M10490 6755 c-7 -9 -9 -19 -5 -23 4 -4 10 -1 12 6 6 17 33 15 33 -2
0 -8 -11 -27 -25 -42 -14 -15 -25 -29 -25 -30 0 -2 19 -3 43 -3 30 2 34 3 14
6 l-27 4 20 26 c24 31 26 59 4 67 -23 9 -30 8 -44 -9z"/>
<path d="M10579 6754 c-11 -13 -9 -14 14 -9 30 8 39 -11 11 -22 -15 -6 -15 -8
2 -20 14 -10 15 -16 6 -25 -10 -10 -15 -10 -22 2 -5 8 -12 11 -16 7 -13 -12
12 -29 37 -25 20 2 24 9 25 43 2 59 -27 85 -57 49z"/>
<path d="M832 6753 c12 -3 18 -18 21 -51 l3 -47 2 47 c2 35 6 48 20 51 9 3 -1
5 -23 5 -22 0 -32 -2 -23 -5z"/>
<path d="M913 6710 c0 -30 2 -43 4 -27 2 15 2 39 0 55 -2 15 -4 2 -4 -28z"/>
<path d="M1142 6710 c1 -45 2 -48 5 -16 3 29 7 36 14 25 5 -8 9 -9 9 -3 0 5
-7 19 -15 30 -13 17 -14 14 -13 -36z"/>
<path d="M1220 6739 c-7 -11 -9 -23 -6 -27 3 -3 7 1 7 9 1 8 5 -4 9 -26 l7
-40 2 53 c1 57 -2 63 -19 31z"/>
<path d="M1911 6713 c0 -29 3 -53 7 -53 4 0 6 17 4 38 -6 64 -10 69 -11 15z"/>
<path d="M2230 6758 c-1 -17 44 -97 52 -92 4 3 8 10 8 16 0 6 -3 8 -7 4 -4 -4
-17 12 -30 36 -12 24 -22 40 -23 36z"/>
<path d="M2302 6735 c-17 -37 -14 -45 4 -12 9 16 14 31 11 33 -2 2 -9 -7 -15
-21z"/>
<path d="M2563 6710 c0 -30 2 -43 4 -27 2 15 2 39 0 55 -2 15 -4 2 -4 -28z"/>
<path d="M1430 6712 c0 -22 3 -43 8 -45 8 -6 7 71 -2 80 -3 4 -6 -12 -6 -35z"/>
<path d="M2518 6738 c-2 -7 -1 -29 3 -48 6 -34 6 -33 8 13 1 46 -3 59 -11 35z"/>
<path d="M2140 6730 c0 -5 5 -10 11 -10 5 0 7 5 4 10 -3 6 -8 10 -11 10 -2 0
-4 -4 -4 -10z"/>
<path d="M10130 6686 c0 -31 5 -56 10 -56 6 0 10 6 10 14 0 8 10 16 23 18 18
2 22 9 22 38 0 32 -3 35 -32 38 l-33 3 0 -55z m48 12 c-2 -13 -7 -23 -13 -23
-5 0 -11 10 -13 23 -2 15 2 22 13 22 11 0 15 -7 13 -22z"/>
<path d="M10220 6700 c0 -22 5 -40 10 -40 6 0 10 14 10 30 0 17 5 30 10 30 6
0 10 5 10 10 0 6 -9 10 -20 10 -17 0 -20 -7 -20 -40z"/>
<path d="M959 6692 c5 -34 6 -35 9 -8 2 16 0 32 -5 37 -5 5 -7 -7 -4 -29z"/>
<path d="M993 6695 c0 -22 2 -30 4 -17 2 12 2 30 0 40 -3 9 -5 -1 -4 -23z"/>
<path d="M1035 6720 c-8 -13 3 -30 18 -30 8 0 7 3 -2 9 -7 5 -10 14 -7 20 4 6
5 11 2 11 -3 0 -8 -4 -11 -10z"/>
<path d="M1270 6715 c-12 -15 -5 -55 11 -55 5 0 4 9 -3 19 -9 15 -9 23 1 35 8
9 11 16 8 16 -2 0 -10 -7 -17 -15z"/>
<path d="M1312 6708 c7 -15 15 -23 17 -17 2 6 -4 18 -13 27 -15 15 -15 15 -4
-10z"/>
<path d="M1352 6693 c1 -37 1 -37 5 -6 3 23 10 33 26 36 18 4 17 5 -5 6 -26 1
-28 -2 -26 -36z"/>
<path d="M1480 6721 c0 -5 9 -7 19 -4 16 4 20 -1 24 -29 l4 -33 1 38 c2 33 0
37 -23 37 -14 0 -25 -4 -25 -9z"/>
<path d="M2025 6695 c0 -19 3 -35 8 -35 4 0 7 16 7 35 0 19 -3 35 -7 35 -5 0
-8 -16 -8 -35z"/>
<path d="M2357 6723 c-9 -9 -9 -51 1 -56 4 -3 7 10 7 29 0 19 0 34 -1 34 0 0
-4 -3 -7 -7z"/>
<path d="M2396 6717 c3 -10 9 -15 12 -12 3 3 0 11 -7 18 -10 9 -11 8 -5 -6z"/>
<path d="M2436 6714 c-5 -14 -4 -15 9 -4 17 14 19 20 6 20 -5 0 -12 -7 -15
-16z"/>
<path d="M2479 6692 c5 -34 6 -35 9 -8 2 16 0 32 -5 37 -5 5 -7 -7 -4 -29z"/>
<path d="M2609 6692 c5 -34 6 -35 9 -8 2 16 0 32 -5 37 -5 5 -7 -7 -4 -29z"/>
<path d="M2077 6699 c7 -7 15 -10 18 -7 3 3 -2 9 -12 12 -14 6 -15 5 -6 -5z"/>
<path d="M1066 6675 c-3 -8 -1 -15 4 -15 6 0 10 7 10 15 0 8 -2 15 -4 15 -2 0
-6 -7 -10 -15z"/>
<path d="M2106 6673 c-6 -14 -5 -15 5 -6 7 7 10 15 7 18 -3 3 -9 -2 -12 -12z"/>
<path d="M2396 6673 c-6 -14 -5 -15 5 -6 7 7 10 15 7 18 -3 3 -9 -2 -12 -12z"/>
<path d="M1180 6670 c0 -5 5 -10 10 -10 6 0 10 5 10 10 0 6 -4 10 -10 10 -5 0
-10 -4 -10 -10z"/>
<path d="M8292 6216 c-35 -110 -86 -272 -114 -359 -32 -101 -48 -167 -44 -183
14 -54 93 -68 118 -20 10 18 112 756 105 762 -1 1 -30 -89 -65 -200z"/>
<path d="M11353 6320 c-46 -19 -55 -69 -18 -105 31 -32 59 -32 91 1 20 19 24
31 19 52 -11 46 -50 68 -92 52z"/>
<path d="M11954 6295 c-44 -67 44 -135 101 -79 20 20 19 68 -1 88 -25 26 -81
20 -100 -9z"/>
<path d="M11163 6265 c0 -27 2 -38 4 -22 2 15 2 37 0 50 -2 12 -4 0 -4 -28z"/>
<path d="M10870 6263 c0 -28 3 -34 10 -23 5 8 7 23 4 33 -5 14 -2 18 13 15 10
-2 17 -11 15 -19 -3 -11 -1 -11 8 -2 17 16 4 33 -26 33 -21 0 -24 -4 -24 -37z"/>
<path d="M11040 6267 c0 -20 3 -38 8 -41 8 -5 7 62 -2 71 -3 4 -6 -10 -6 -30z"/>
<path d="M11481 6269 c-1 -26 4 -39 16 -43 24 -10 35 7 30 45 l-4 34 -1 -38
c-2 -48 -24 -45 -33 4 l-6 34 -2 -36z"/>
<path d="M11790 6290 c0 -5 -6 -10 -14 -10 -21 0 -26 -26 -10 -47 14 -17 15
-17 5 3 -10 21 -6 34 10 34 4 0 10 -10 12 -22 3 -14 5 -9 6 15 0 20 -1 37 -4
37 -3 0 -5 -4 -5 -10z"/>
<path d="M12100 6263 c0 -21 4 -33 8 -27 4 6 17 15 30 19 32 9 25 39 -11 43
-25 3 -27 1 -27 -35z m48 15 c-7 -19 -38 -22 -38 -4 0 10 9 16 21 16 12 0 19
-5 17 -12z"/>
<path d="M12292 6293 c-1 -7 -8 -13 -16 -13 -8 0 -17 -8 -21 -17 -5 -15 -4
-16 6 -5 19 18 29 15 29 -9 0 -16 -4 -20 -17 -14 -15 5 -16 4 -5 -6 19 -20 34
3 29 42 -2 19 -5 28 -5 22z"/>
<path d="M5186 6003 c-262 -305 -270 -319 -226 -363 27 -27 66 -25 93 4 12 13
101 158 197 322 96 163 179 303 183 311 23 38 -22 -11 -247 -274z"/>
<path d="M10953 6273 c18 -5 18 -5 0 -18 -14 -10 -15 -16 -6 -25 16 -17 33 -4
33 26 0 19 -5 24 -22 23 -19 -1 -19 -2 -5 -6z m17 -33 c0 -5 -4 -10 -10 -10
-5 0 -10 5 -10 10 0 6 5 10 10 10 6 0 10 -4 10 -10z"/>
<path d="M11000 6255 c0 -14 2 -25 4 -25 2 0 6 11 8 25 3 14 1 25 -3 25 -5 0
-9 -11 -9 -25z"/>
<path d="M11072 6255 c0 -16 2 -22 5 -12 2 9 2 23 0 30 -3 6 -5 -1 -5 -18z"/>
<path d="M11116 6259 c-16 -15 -17 -22 -7 -32 10 -9 11 -8 6 6 -8 19 10 24 18
5 3 -7 6 -1 6 15 1 32 2 32 -23 6z"/>
<path d="M11550 6255 c0 -14 2 -25 4 -25 2 0 6 11 8 25 3 14 1 25 -3 25 -5 0
-9 -11 -9 -25z"/>
<path d="M11610 6240 c0 -22 2 -40 4 -40 2 0 6 18 8 40 2 22 0 40 -4 40 -5 0
-8 -18 -8 -40z"/>
<path d="M11646 6265 c4 -8 0 -23 -7 -33 -13 -15 -12 -16 4 -3 19 15 22 36 7
46 -6 3 -7 -1 -4 -10z"/>
<path d="M11686 6259 c-16 -15 -17 -22 -7 -32 10 -9 11 -8 6 6 -4 10 -2 17 4
17 6 0 11 -4 11 -10 0 -5 4 -10 9 -10 8 0 7 38 -1 45 -2 1 -12 -6 -22 -16z"/>
<path d="M11732 6255 c0 -16 2 -22 5 -12 2 9 2 23 0 30 -3 6 -5 -1 -5 -18z"/>
<path d="M12188 6273 c10 -4 8 -8 -5 -18 -14 -11 -16 -16 -5 -26 10 -11 14
-11 25 0 10 10 9 11 -5 6 -11 -4 -18 -2 -18 4 0 6 7 11 15 11 8 0 15 7 15 15
0 8 -8 15 -17 14 -12 0 -13 -2 -5 -6z"/>
<path d="M12232 6250 c0 -19 2 -27 5 -17 2 9 2 25 0 35 -3 9 -5 1 -5 -18z"/>
<path d="M10430 5985 c-9 -10 -9 -15 -1 -15 6 0 11 5 11 10 0 13 27 13 34 1 4
-5 -5 -23 -19 -39 -32 -39 -32 -42 8 -41 30 2 30 2 4 6 l-28 4 25 30 c14 16
23 36 20 44 -8 19 -38 19 -54 0z"/>
<path d="M10514 5986 c-9 -23 -1 -49 16 -54 12 -4 13 -2 3 9 -7 7 -13 22 -13
32 0 14 5 18 20 14 11 -3 18 -1 14 4 -8 14 -34 11 -40 -5z"/>
<path d="M10630 5985 c-9 -10 -9 -15 -1 -15 6 0 11 5 11 10 0 13 27 13 34 1 4
-5 -5 -23 -19 -39 -32 -39 -32 -42 8 -41 30 2 30 2 4 6 l-28 4 26 31 c20 24
23 33 14 44 -15 18 -33 18 -49 -1z"/>
<path d="M10727 5993 l33 -4 -20 -39 c-11 -22 -20 -43 -20 -47 1 -9 49 78 50
90 0 4 -17 6 -37 5 -37 -1 -37 -1 -6 -5z"/>
<path d="M10790 5990 c0 -5 7 -7 15 -4 8 4 15 8 15 10 0 2 -7 4 -15 4 -8 0
-15 -4 -15 -10z"/>
<path d="M10560 5963 c-1 -7 -3 -18 -4 -24 0 -6 -10 -17 -20 -25 -17 -12 -17
-14 -3 -14 20 0 40 35 34 58 -3 9 -6 11 -7 5z"/>
<path d="M12276 5901 c-4 -5 2 -7 13 -4 23 6 38 -15 16 -23 -14 -6 -14 -8 1
-19 21 -15 9 -39 -17 -32 -11 3 -17 1 -13 -4 9 -15 41 -10 48 7 4 9 2 22 -4
29 -7 9 -8 15 -1 19 6 4 8 13 4 21 -6 16 -39 20 -47 6z"/>
<path d="M12357 5903 c-10 -9 -9 -41 2 -47 4 -3 6 6 3 19 -3 18 0 25 12 25 22
0 33 -30 15 -41 -12 -7 -12 -9 1 -9 11 -1 8 -6 -9 -20 -13 -11 -19 -20 -13
-20 30 0 50 47 36 84 -6 16 -35 22 -47 9z"/>
<path d="M12474 5896 c-3 -8 -4 -29 -2 -48 2 -25 8 -34 25 -36 26 -4 39 31 29
73 -7 28 -43 35 -52 11z m41 -36 c0 -25 -5 -36 -17 -38 -15 -3 -18 4 -18 38 0
34 3 41 18 38 12 -2 17 -13 17 -38z"/>
<path d="M12556 5901 c-4 -5 2 -7 13 -4 31 8 35 -17 7 -46 -34 -35 -33 -41 7
-40 23 1 26 3 10 6 -28 5 -29 11 -2 39 12 13 19 30 16 38 -7 17 -42 22 -51 7z"/>
<path d="M12654 5890 c0 -13 4 -16 10 -10 7 7 7 13 0 20 -6 6 -10 3 -10 -10z"/>
<path d="M11365 5854 c-97 -20 -168 -40 -214 -60 -29 -13 -57 -22 -61 -19 -5
3 -10 2 -12 -3 -1 -4 -42 -33 -89 -64 -184 -122 -317 -304 -380 -520 -30 -105
-37 -315 -14 -429 68 -338 312 -603 650 -705 81 -25 106 -27 245 -28 132 -1
168 3 240 22 101 27 223 84 303 142 l57 41 -87 107 c-48 59 -91 109 -95 110
-5 2 -8 10 -8 17 0 8 -10 21 -22 30 -13 8 -23 19 -23 24 0 5 -11 20 -25 33
-14 14 -40 43 -59 65 l-34 41 -62 -34 c-190 -105 -415 -31 -509 166 -28 58
-31 75 -31 155 0 79 3 97 29 150 56 114 166 195 285 211 l51 7 0 273 0 274
-57 -1 c-32 -1 -67 -3 -78 -5z"/>
<path d="M12710 5831 c0 -8 -7 -11 -15 -7 -8 3 -15 1 -15 -4 0 -6 6 -10 14
-10 17 0 31 18 22 27 -3 4 -6 1 -6 -6z"/>
<path d="M9373 5575 c0 -22 2 -30 4 -17 2 12 2 30 0 40 -3 9 -5 -1 -4 -23z"/>
<path d="M3680 5576 c0 -14 4 -27 8 -30 5 -3 6 8 4 25 -5 35 -12 38 -12 5z"/>
<path d="M9499 5572 c-3 -20 -2 -29 4 -23 5 5 7 19 5 32 -3 20 -5 19 -9 -9z"/>
<path d="M6220 5561 c0 -6 4 -13 10 -16 6 -3 7 1 4 9 -7 18 -14 21 -14 7z"/>
<path d="M4842 5548 c-24 -24 -6 -69 28 -67 9 0 6 4 -8 10 -30 11 -27 54 3 54
16 0 21 -8 23 -43 3 -36 0 -44 -20 -51 -14 -6 -17 -10 -7 -10 24 -1 39 20 39
59 0 36 -14 60 -35 60 -6 0 -16 -5 -23 -12z"/>
<path d="M4993 5553 c-7 -2 -13 -9 -13 -15 0 -6 6 -5 16 2 12 11 18 11 30 -1
20 -21 8 -78 -20 -90 -19 -8 -19 -9 -1 -6 30 4 52 49 39 84 -9 27 -27 37 -51
26z"/>
<path d="M5174 5545 c-3 -8 -4 -20 -1 -27 3 -7 6 -3 6 9 1 12 9 24 19 26 16 4
16 5 -1 6 -10 0 -20 -6 -23 -14z"/>
<path d="M8177 5553 c-9 -9 -9 -101 1 -106 4 -3 5 17 4 44 -3 39 0 50 13 55
10 4 21 1 26 -7 13 -20 11 -73 -3 -87 -8 -8 -8 -12 -1 -12 23 0 31 66 13 101
-10 19 -40 26 -53 12z"/>
<path d="M8364 5545 c-3 -8 -4 -20 -1 -27 3 -7 6 -2 6 11 1 17 5 21 17 17 8
-3 12 -2 9 4 -9 15 -25 12 -31 -5z"/>
<path d="M4751 5536 c-17 -20 -10 -88 9 -94 12 -4 13 -3 2 10 -14 17 -13 67 1
86 13 17 2 15 -12 -2z"/>
<path d="M5085 5540 c-3 -5 0 -7 9 -4 12 5 16 -5 19 -48 l3 -53 2 58 c2 44 -1
57 -12 57 -8 0 -18 -4 -21 -10z"/>
<path d="M8062 5498 c-30 -69 -23 -71 11 -3 15 30 23 55 19 55 -4 0 -17 -24
-30 -52z"/>
<path d="M8277 5543 c-4 -3 -7 -15 -7 -25 0 -13 7 -18 25 -18 30 0 43 -24 25
-45 -8 -10 -9 -15 -1 -15 13 0 26 45 16 59 -3 6 -18 11 -32 11 -20 0 -24 4
-20 20 5 21 4 24 -6 13z"/>
<path d="M7930 5509 c0 -5 11 -9 25 -9 31 0 43 -24 24 -47 -12 -14 -12 -16 1
-11 9 3 15 17 15 33 0 25 -5 30 -32 36 -18 3 -33 3 -33 -2z"/>
<path d="M1460 5490 c-11 -11 -20 -24 -20 -30 0 -5 9 -10 20 -10 11 0 20 6 20
14 0 20 16 29 40 21 32 -10 24 -46 -25 -102 -25 -28 -45 -56 -45 -62 0 -7 25
-11 65 -11 37 0 65 4 65 10 0 6 -21 10 -46 10 l-46 0 41 51 c42 53 52 94 29
117 -19 19 -76 14 -98 -8z"/>
<path d="M1632 5498 c-15 -15 -16 -64 -2 -73 7 -4 5 -14 -5 -28 -19 -28 -19
-52 1 -71 18 -19 85 -21 102 -4 15 15 16 60 1 75 -8 8 -8 17 0 31 15 28 14 48
-5 66 -18 19 -75 21 -92 4z m72 -30 c14 -22 -12 -52 -37 -42 -17 6 -23 44 -10
58 11 11 35 3 47 -16z m-6 -77 c21 -13 11 -55 -14 -59 -30 -4 -48 21 -34 47
11 22 27 26 48 12z"/>
<path d="M1860 5497 c0 -9 11 -12 35 -9 67 8 68 1 25 -93 -33 -72 -37 -85 -22
-85 13 0 28 25 55 88 20 48 37 93 37 100 0 8 -20 12 -65 12 -47 0 -65 -4 -65
-13z"/>
<path d="M2062 5441 c-23 -37 -42 -73 -42 -80 0 -6 18 -11 45 -11 38 0 45 -3
45 -20 0 -11 7 -20 15 -20 8 0 15 9 15 20 0 11 5 20 10 20 6 0 10 7 10 15 0 8
-4 15 -10 15 -6 0 -10 28 -10 65 0 89 -21 88 -78 -4z m48 -21 c0 -38 -2 -40
-30 -40 l-30 0 26 40 c15 22 28 40 30 40 2 0 4 -18 4 -40z"/>
<path d="M2202 5498 c-33 -33 4 -87 49 -73 16 5 20 14 17 43 -3 31 -7 37 -28
40 -14 2 -31 -3 -38 -10z m46 -31 c2 -19 -1 -27 -13 -27 -19 0 -30 24 -21 46
9 23 31 11 34 -19z"/>
<path d="M4791 5492 c11 -17 10 -24 -2 -38 -12 -15 -12 -17 1 -12 19 6 20 60
2 66 -11 3 -11 0 -1 -16z"/>
<path d="M4983 5500 c2 -8 12 -16 23 -17 13 -2 15 -1 4 4 -8 3 -19 11 -23 17
-6 7 -7 6 -4 -4z"/>
<path d="M2277 5415 c-27 -43 -46 -80 -43 -83 7 -7 6 -9 55 70 24 38 41 73 39
79 -2 6 -25 -24 -51 -66z"/>
<path d="M5233 5475 c-3 -9 -3 -19 1 -22 3 -4 6 1 6 10 0 8 8 18 18 20 16 4
16 5 -1 6 -10 0 -20 -6 -24 -14z"/>
<path d="M8424 5475 c-3 -8 -4 -20 -1 -27 3 -7 6 -3 6 9 1 12 7 24 14 26 9 4
9 6 -1 6 -7 1 -15 -6 -18 -14z"/>
<path d="M1160 5455 c0 -8 81 -109 89 -112 5 -2 65 71 84 103 7 11 -9 14 -83
14 -49 0 -90 -2 -90 -5z"/>
<path d="M2308 5389 c-19 -11 -23 -45 -9 -67 5 -8 21 -12 37 -10 24 2 30 8 32
33 3 19 -2 33 -14 42 -21 15 -24 15 -46 2z m37 -39 c0 -27 -22 -39 -31 -16 -8
22 3 49 19 43 6 -2 12 -14 12 -27z"/>
<path d="M1780 5325 c0 -8 9 -15 20 -15 11 0 20 7 20 15 0 8 -9 15 -20 15 -11
0 -20 -7 -20 -15z"/>
<path d="M1433 5095 c0 -27 2 -40 4 -28 2 13 13 24 26 26 l22 4 -22 2 c-14 1
-23 9 -26 24 -2 12 -4 0 -4 -28z"/>
<path d="M1580 5067 c0 -28 3 -47 7 -44 3 4 6 23 5 42 -2 39 22 59 40 34 8
-12 9 -11 5 1 -2 8 -16 15 -30 16 -26 1 -27 -1 -27 -49z"/>
<path d="M1672 5108 c-14 -14 -16 -44 -2 -53 6 -3 7 1 4 9 -5 12 1 16 21 16
20 0 26 4 23 17 -4 22 -29 28 -46 11z m38 -8 c0 -5 -9 -10 -21 -10 -11 0 -17
5 -14 10 3 6 13 10 21 10 8 0 14 -4 14 -10z"/>
<path d="M1741 5081 c1 -36 1 -36 8 -6 8 40 38 46 44 8 4 -28 4 -28 3 2 -1 26
-5 30 -28 31 -26 1 -28 -2 -27 -35z"/>
<path d="M1825 5110 c-8 -13 3 -30 18 -29 9 0 9 2 0 6 -21 8 -15 26 7 20 11
-3 18 -1 14 4 -7 12 -31 11 -39 -1z"/>
<path d="M1907 5113 c-3 -5 5 -8 18 -8 13 0 21 3 18 8 -2 4 -10 7 -18 7 -8 0
-16 -3 -18 -7z"/>
<path d="M1998 5113 c7 -3 16 -2 19 1 4 3 -2 6 -13 5 -11 0 -14 -3 -6 -6z"/>
<path d="M1526 5088 c3 -5 0 -17 -8 -26 -11 -15 -11 -15 3 -5 12 10 18 10 29
0 12 -10 12 -9 1 5 -7 9 -10 21 -7 26 3 5 -1 9 -9 9 -8 0 -12 -4 -9 -9z"/>
<path d="M1890 5082 c0 -5 14 -7 30 -4 17 2 30 6 30 8 0 2 -13 4 -30 4 -16 0
-30 -4 -30 -8z"/>
<path d="M1620 5055 c-11 -13 -10 -14 4 -9 9 3 16 10 16 15 0 13 -6 11 -20 -6z"/>
<path d="M5262 4863 c-4 -10 -5 -34 -1 -53 l6 -35 3 35 c1 19 2 40 1 47 -1 6
6 14 16 16 16 4 16 5 1 6 -10 0 -21 -7 -26 -16z"/>
<path d="M8502 4863 c-4 -10 -5 -36 -1 -58 l6 -40 3 40 c1 22 2 45 1 52 -1 6
6 14 16 16 16 4 16 5 1 6 -10 0 -21 -7 -26 -16z"/>
<path d="M4627 4863 c-9 -9 -9 -71 1 -76 4 -3 7 15 7 39 0 24 0 44 -1 44 0 0
-4 -3 -7 -7z"/>
<path d="M5080 4866 c0 -2 7 -9 15 -16 13 -11 14 -10 9 4 -5 14 -24 23 -24 12z"/>
<path d="M8012 4818 l1 -53 6 44 6 45 28 -42 c15 -23 29 -42 32 -42 3 0 4 24
4 53 -2 51 -2 51 -8 12 l-6 -40 -25 37 c-14 21 -28 38 -32 38 -5 0 -7 -24 -6
-52z"/>
<path d="M8281 4818 c1 -29 4 -43 6 -31 2 12 12 24 21 26 15 4 14 5 -2 6 -14
1 -17 7 -14 26 3 14 1 25 -3 25 -5 0 -8 -24 -8 -52z"/>
<path d="M8330 4855 c6 -8 8 -20 4 -27 -5 -10 -4 -10 5 -2 13 12 5 44 -11 44
-6 0 -5 -6 2 -15z"/>
<path d="M5339 4854 c-1 -5 0 -22 1 -39 3 -46 15 -50 14 -4 -1 35 -12 67 -15
43z"/>
<path d="M8580 4822 c0 -22 3 -43 8 -45 9 -6 7 71 -2 80 -3 3 -6 -12 -6 -35z"/>
<path d="M4772 4838 c-22 -22 -7 -68 22 -68 5 0 2 6 -8 13 -25 18 -17 52 11
51 12 0 20 3 17 8 -7 12 -28 10 -42 -4z"/>
<path d="M4857 4843 c-10 -10 -8 -33 3 -33 5 0 7 7 3 17 -5 13 -2 15 15 11 12
-4 20 -2 16 3 -6 11 -28 12 -37 2z"/>
<path d="M4940 4846 c0 -2 7 -7 16 -10 8 -3 12 -2 9 4 -6 10 -25 14 -25 6z"/>
<path d="M5182 4838 c-22 -22 -7 -68 22 -68 5 0 2 6 -8 13 -25 18 -17 52 11
51 12 0 20 3 17 8 -7 12 -28 10 -42 -4z"/>
<path d="M5303 4815 c0 -22 2 -30 4 -17 2 12 2 30 0 40 -3 9 -5 -1 -4 -23z"/>
<path d="M8151 4833 c7 -12 15 -20 18 -17 3 2 -3 12 -13 22 -17 16 -18 16 -5
-5z"/>
<path d="M4722 4810 c0 -19 2 -27 5 -17 2 9 2 25 0 35 -3 9 -5 1 -5 -18z"/>
<path d="M4920 4831 c0 -6 4 -13 10 -16 6 -3 7 1 4 9 -7 18 -14 21 -14 7z"/>
<path d="M8113 4824 c-8 -22 9 -48 33 -51 14 -2 12 0 -5 7 -18 8 -22 16 -19
35 6 28 1 33 -9 9z"/>
<path d="M8414 4825 c-13 -32 25 -70 47 -48 6 6 2 9 -13 9 -19 -1 -23 4 -23
27 1 30 -3 34 -11 12z"/>
<path d="M8543 4805 c0 -22 2 -30 4 -17 2 12 2 30 0 40 -3 9 -5 -1 -4 -23z"/>
<path d="M4682 4800 c0 -14 2 -19 5 -12 2 6 2 18 0 25 -3 6 -5 1 -5 -13z"/>
<path d="M4886 4795 c4 -8 8 -15 10 -15 2 0 4 7 4 15 0 8 -4 15 -10 15 -5 0
-7 -7 -4 -15z"/>
<path d="M4964 4802 c3 -6 -2 -15 -11 -21 -10 -6 -13 -11 -7 -11 20 0 37 27
23 36 -7 4 -9 3 -5 -4z"/>
<path d="M4857 4779 c7 -7 15 -10 18 -7 3 3 -2 9 -12 12 -14 6 -15 5 -6 -5z"/>
<path d="M960 4705 c0 -8 -7 -15 -15 -15 -10 0 -15 -10 -15 -27 0 -21 8 -33
30 -45 17 -9 30 -22 30 -28 0 -17 -29 -23 -45 -10 -26 22 -29 1 -4 -22 l24
-23 23 21 c30 29 28 52 -8 72 -16 9 -30 25 -30 35 0 20 20 23 38 5 6 -6 15 -9
18 -5 4 4 -5 18 -19 31 -19 18 -27 21 -27 11z"/>
<path d="M1943 4694 c-31 -29 -29 -52 7 -72 34 -20 41 -52 10 -52 -11 0 -20 5
-20 10 0 6 -7 10 -15 10 -21 0 -8 -25 19 -38 16 -7 27 -6 39 3 23 17 22 62 -2
70 -29 9 -46 34 -33 47 8 8 15 8 27 -2 8 -7 19 -10 23 -6 4 4 0 13 -9 19 -9 7
-18 17 -20 22 -2 6 -14 1 -26 -11z"/>
<path d="M1054 4686 c-10 -8 -15 -18 -11 -22 4 -5 12 -2 17 5 10 17 40 7 40
-13 0 -9 -13 -31 -30 -49 -16 -19 -30 -37 -30 -41 0 -3 21 -5 48 -4 36 1 39 2
15 5 -40 5 -41 12 -8 43 30 28 32 65 6 80 -25 13 -23 13 -47 -4z"/>
<path d="M1346 4687 c-22 -16 -25 -65 -5 -78 8 -5 22 -7 32 -5 23 6 22 -11 -3
-26 -25 -16 -26 -30 -2 -21 29 10 42 35 42 80 0 32 -5 45 -19 53 -25 13 -24
13 -45 -3z m42 -40 c3 -22 -1 -27 -17 -27 -15 0 -21 6 -21 23 0 46 33 49 38 4z"/>
<path d="M2046 4684 c-35 -34 -9 -93 34 -79 20 6 21 5 11 -14 -7 -12 -18 -21
-26 -21 -8 0 -15 -4 -15 -9 0 -16 40 1 55 22 21 30 19 73 -5 97 -24 24 -34 25
-54 4z m49 -34 c0 -16 -6 -26 -18 -28 -19 -4 -32 20 -23 44 9 25 41 13 41 -16z"/>
<path d="M2220 4680 c-26 -26 -26 -80 -1 -111 16 -21 22 -22 45 -11 23 10 26
17 26 66 0 44 -4 57 -19 66 -26 13 -28 13 -51 -10z m48 -53 c2 -36 -1 -49 -13
-53 -21 -8 -25 -3 -32 40 -6 37 10 70 31 63 6 -2 12 -25 14 -50z"/>
<path d="M2335 4686 c-11 -8 -17 -18 -13 -22 4 -4 14 -1 23 6 16 13 45 7 45
-10 0 -5 -16 -27 -35 -49 -19 -21 -35 -41 -35 -44 0 -3 20 -7 45 -9 25 -2 45
0 45 4 0 5 -14 8 -32 8 l-31 0 20 23 c11 12 26 32 32 44 11 22 6 53 -9 53 -5
0 -14 2 -22 5 -7 3 -22 -1 -33 -9z"/>
<path d="M1220 4656 c0 -32 2 -35 27 -33 22 2 29 -3 31 -21 4 -25 -23 -41 -41
-23 -16 16 -27 14 -21 -4 8 -20 40 -28 64 -15 16 9 20 19 18 43 -2 27 -8 33
-30 35 -42 5 -38 39 5 45 28 3 26 4 -10 5 -43 2 -43 2 -43 -32z"/>
<path d="M1448 4641 c-1 -26 -2 -56 0 -65 5 -23 22 -20 22 3 0 31 18 34 36 6
9 -14 23 -25 31 -25 10 0 7 10 -11 37 l-26 37 22 23 c12 13 18 26 14 30 -4 5
-21 -7 -37 -25 l-29 -32 0 30 c0 49 -18 34 -22 -19z"/>
<path d="M2440 4625 c0 -61 15 -91 22 -43 4 31 22 33 38 3 7 -14 19 -25 27
-25 18 0 17 6 -9 40 l-22 30 22 30 c31 42 5 40 -30 -2 l-27 -33 -1 33 c0 17
-4 32 -10 32 -6 0 -10 -28 -10 -65z"/>
<path d="M4460 4637 c0 -8 -11 -19 -25 -25 -20 -9 -25 -19 -25 -47 0 -30 5
-37 39 -55 49 -24 58 -38 38 -57 -17 -18 -57 -9 -57 13 0 8 -7 14 -15 14 -8 0
-15 -5 -15 -11 0 -20 21 -49 36 -49 8 0 17 -6 20 -14 5 -12 9 -12 24 2 10 9
26 23 34 30 19 15 21 47 4 62 -7 6 -28 20 -45 30 -35 21 -44 54 -18 64 9 3 23
-3 32 -14 19 -21 43 -27 43 -10 0 6 -11 21 -25 34 -14 13 -25 28 -25 35 0 6
-4 11 -10 11 -5 0 -10 -6 -10 -13z"/>
<path d="M7770 4636 c0 -8 -9 -18 -20 -21 -24 -7 -37 -51 -23 -74 5 -9 26 -24
46 -34 42 -20 50 -52 15 -63 -16 -5 -27 -1 -39 15 -19 24 -39 28 -39 8 0 -16
32 -47 48 -47 7 0 12 -7 12 -15 0 -8 5 -15 10 -15 6 0 10 6 10 13 0 7 10 17
23 22 17 8 22 18 22 45 0 30 -5 37 -42 58 -46 25 -53 41 -27 63 14 11 19 10
34 -9 10 -12 23 -22 29 -22 20 0 12 28 -14 48 -14 11 -25 25 -25 31 0 6 -4 11
-10 11 -5 0 -10 -6 -10 -14z"/>
<path d="M4579 4601 c-27 -21 -18 -42 9 -23 32 23 44 25 60 8 20 -20 6 -49
-27 -54 -26 -4 -28 -22 -2 -22 26 0 44 -25 36 -50 -8 -24 -53 -28 -61 -5 -7
18 -34 20 -34 2 0 -37 83 -52 114 -21 20 19 21 58 1 74 -13 11 -13 14 0 27 20
20 19 39 -5 63 -25 25 -61 26 -91 1z"/>
<path d="M4740 4600 c-11 -11 -20 -24 -20 -30 0 -5 9 -10 20 -10 11 0 20 6 20
14 0 19 21 26 43 14 28 -14 20 -40 -28 -95 -25 -28 -45 -56 -45 -62 0 -7 25
-11 65 -11 73 0 89 17 20 22 l-45 3 40 49 c42 51 50 85 24 110 -22 22 -70 20
-94 -4z"/>
<path d="M4880 4605 c0 -12 13 -15 55 -15 l55 0 -24 -47 c-13 -27 -31 -65 -39
-85 -15 -35 -15 -38 1 -38 12 0 29 27 55 88 20 48 37 93 37 100 0 8 -21 12
-70 12 -56 0 -70 -3 -70 -15z"/>
<path d="M5135 4574 c-3 -25 -4 -48 -1 -51 3 -3 23 -6 43 -7 36 -1 38 -2 38
-36 0 -26 -5 -36 -19 -38 -11 -2 -25 3 -32 13 -7 9 -20 15 -29 13 -16 -3 -16
-5 2 -27 14 -17 29 -24 52 -23 45 1 61 18 61 63 0 30 -6 42 -25 55 -14 9 -32
13 -45 9 -17 -5 -20 -2 -20 19 0 24 3 26 45 26 33 0 45 4 45 15 0 11 -13 15
-54 15 l-54 0 -7 -46z"/>
<path d="M5298 4598 c-20 -20 -21 -23 -5 -26 9 -2 24 4 33 12 19 20 28 20 44
1 16 -19 6 -45 -20 -52 -28 -7 -25 -20 6 -27 20 -5 25 -12 22 -34 -4 -32 -37
-42 -58 -17 -14 16 -40 21 -40 6 0 -21 34 -41 69 -41 57 0 83 42 51 83 -17 21
-18 26 -5 31 20 7 19 50 -1 70 -23 23 -70 20 -96 -6z"/>
<path d="M5465 4586 c-12 -59 -5 -71 40 -71 37 0 40 -2 40 -29 0 -39 -27 -56
-53 -33 -20 18 -42 23 -42 9 0 -13 32 -40 50 -42 52 -7 80 16 80 65 0 40 -36
71 -70 60 -17 -5 -20 -2 -20 19 0 23 4 26 39 26 25 0 41 5 45 15 4 12 -5 15
-49 15 -54 0 -54 0 -60 -34z"/>
<path d="M7890 4600 c-11 -11 -20 -24 -20 -30 0 -15 30 -12 36 4 13 34 64 24
64 -12 0 -8 -20 -39 -45 -68 -25 -28 -45 -57 -45 -63 0 -7 25 -11 65 -11 73 0
89 17 20 22 l-45 3 40 49 c42 51 50 85 24 110 -22 22 -70 20 -94 -4z"/>
<path d="M8088 4603 c-43 -17 -52 -39 -13 -29 l25 6 0 -80 c0 -64 3 -80 15
-80 12 0 15 18 15 100 0 55 -1 100 -2 99 -2 0 -20 -7 -40 -16z"/>
<path d="M8228 4610 c-26 -16 -33 -66 -13 -96 14 -21 23 -25 51 -22 19 2 34 0
34 -4 0 -14 -39 -48 -55 -48 -8 0 -15 -4 -15 -10 0 -28 73 2 89 37 18 40 14
110 -9 133 -21 21 -55 25 -82 10z m70 -63 c-4 -38 -34 -49 -55 -21 -17 23 -16
39 3 58 25 25 56 3 52 -37z"/>
<path d="M8456 4604 c-26 -25 -30 -61 -11 -90 14 -21 23 -25 51 -22 19 2 34 0
34 -4 0 -14 -39 -48 -55 -48 -8 0 -15 -4 -15 -10 0 -20 51 -10 75 15 20 19 25
34 25 77 0 66 -20 98 -60 98 -16 0 -36 -7 -44 -16z m63 -18 c7 -8 11 -27 9
-43 -2 -22 -8 -28 -27 -28 -31 0 -45 35 -25 64 18 25 27 26 43 7z"/>
<path d="M8649 4605 c-46 -25 -65 -118 -33 -163 18 -26 74 -30 98 -6 21 20 20
78 -1 99 -12 12 -26 15 -51 12 -33 -6 -33 -5 -19 16 8 12 24 23 36 25 11 2 21
10 21 18 0 18 -17 17 -51 -1z m51 -119 c0 -32 -26 -53 -48 -39 -24 14 -27 54
-7 70 24 17 55 -1 55 -31z"/>
<path d="M8786 4604 c-22 -21 -29 -57 -23 -110 6 -58 21 -74 68 -74 28 0 41 5
49 19 16 30 12 133 -6 159 -18 26 -65 30 -88 6z m63 -18 c19 -22 10 -126 -11
-140 -29 -17 -43 8 -43 75 0 42 4 63 15 69 20 13 26 12 39 -4z"/>
<path d="M1160 4564 c0 -8 5 -12 10 -9 6 4 8 11 5 16 -9 14 -15 11 -15 -7z"/>
<path d="M2155 4571 c-3 -5 -1 -12 5 -16 5 -3 10 1 10 9 0 18 -6 21 -15 7z"/>
<path d="M5060 4433 c0 -10 -3 -28 -6 -40 -4 -13 -2 -23 3 -23 11 0 29 38 29
59 -1 22 -26 26 -26 4z"/>
<path d="M8368 4414 c-5 -41 6 -54 21 -25 15 28 14 61 -3 61 -8 0 -15 -14 -18
-36z"/>
<path d="M842 4383 c12 -3 18 -18 21 -51 l3 -47 2 47 c2 35 6 48 20 51 9 3 -1
5 -23 5 -22 0 -32 -2 -23 -5z"/>
<path d="M923 4340 c0 -30 2 -43 4 -27 2 15 2 39 0 55 -2 15 -4 2 -4 -28z"/>
<path d="M1151 4340 l2 -55 7 45 c4 25 4 49 -1 55 -5 5 -8 -13 -8 -45z"/>
<path d="M1226 4374 c-8 -22 -8 -26 3 -19 6 3 12 -12 14 -32 3 -36 4 -35 5 9
2 47 -11 71 -22 42z"/>
<path d="M2231 4338 c2 -52 2 -53 8 -13 6 36 7 38 15 17 4 -13 10 -21 13 -19
5 6 -25 67 -32 67 -3 0 -4 -24 -4 -52z"/>
<path d="M2318 4383 c-2 -5 -1 -28 3 -53 l6 -45 1 53 c2 48 -2 63 -10 45z"/>
<path d="M1440 4335 c0 -27 2 -46 5 -44 7 8 9 78 2 85 -4 4 -7 -14 -7 -41z"/>
<path d="M2150 4335 c0 -27 2 -46 5 -44 7 8 9 78 2 85 -4 4 -7 -14 -7 -41z"/>
<path d="M2520 4342 c0 -22 3 -43 8 -45 8 -6 7 71 -2 80 -3 4 -6 -12 -6 -35z"/>
<path d="M1003 4325 c0 -22 2 -30 4 -17 2 12 2 30 0 40 -3 9 -5 -1 -4 -23z"/>
<path d="M1398 4325 c2 -19 6 -35 8 -35 2 0 4 16 4 35 0 19 -4 35 -8 35 -4 0
-6 -16 -4 -35z"/>
<path d="M1490 4349 c0 -5 5 -7 10 -4 6 3 10 8 10 11 0 2 -4 4 -10 4 -5 0 -10
-5 -10 -11z"/>
<path d="M1529 4322 c5 -34 6 -35 9 -8 2 16 0 32 -5 37 -5 5 -7 -7 -4 -29z"/>
<path d="M2075 4349 c-4 -6 -5 -12 -2 -15 2 -3 7 2 10 11 7 17 1 20 -8 4z"/>
<path d="M2105 4350 c3 -5 8 -10 11 -10 2 0 4 5 4 10 0 6 -5 10 -11 10 -5 0
-7 -4 -4 -10z"/>
<path d="M2360 4345 c-12 -15 -5 -55 11 -55 5 0 4 9 -3 19 -9 15 -9 23 1 35 8
9 11 16 8 16 -2 0 -10 -7 -17 -15z"/>
<path d="M2400 4345 c6 -8 9 -24 5 -37 -5 -20 -4 -21 5 -5 12 19 5 57 -12 57
-7 0 -6 -5 2 -15z"/>
<path d="M2442 4323 c1 -37 1 -37 5 -6 3 23 10 33 26 36 18 4 17 5 -5 6 -26 1
-28 -2 -26 -36z"/>
<path d="M2570 4349 c0 -5 5 -7 10 -4 6 3 10 8 10 11 0 2 -4 4 -10 4 -5 0 -10
-5 -10 -11z"/>
<path d="M2608 4325 c2 -19 6 -35 8 -35 2 0 4 16 4 35 0 19 -4 35 -8 35 -4 0
-6 -16 -4 -35z"/>
<path d="M972 4315 c0 -16 2 -22 5 -12 2 9 2 23 0 30 -3 6 -5 -1 -5 -18z"/>
<path d="M1047 4329 c7 -7 15 -10 18 -7 3 3 -2 9 -12 12 -14 6 -15 5 -6 -5z"/>
<path d="M1206 4323 c-6 -15 -8 -15 -16 -3 -6 8 -10 11 -10 5 0 -5 4 -16 9
-24 7 -11 11 -9 21 9 6 12 10 24 7 26 -2 3 -8 -3 -11 -13z"/>
<path d="M1270 4321 c0 -11 4 -22 9 -25 4 -3 6 6 3 19 -5 30 -12 33 -12 6z"/>
<path d="M1997 4323 c-11 -10 -8 -33 4 -33 5 0 7 5 3 11 -3 6 0 15 7 20 8 5 9
9 3 9 -6 0 -14 -3 -17 -7z"/>
<path d="M2090 4326 c0 -2 7 -7 16 -10 8 -3 12 -2 9 4 -6 10 -25 14 -25 6z"/>
<path d="M1076 4303 c-6 -14 -5 -15 5 -6 7 7 10 15 7 18 -3 3 -9 -2 -12 -12z"/>
<path d="M2070 4300 c0 -5 5 -10 11 -10 5 0 7 5 4 10 -3 6 -8 10 -11 10 -2 0
-4 -4 -4 -10z"/>
<path d="M2275 4300 c3 -5 8 -10 11 -10 2 0 4 5 4 10 0 6 -5 10 -11 10 -5 0
-7 -4 -4 -10z"/>
<path d="M6800 3505 c0 -25 0 -48 -1 -52 0 -4 4 -9 10 -11 6 -2 11 6 11 17 0
27 17 27 25 1 3 -11 13 -20 21 -20 11 0 12 5 5 18 -5 9 -7 30 -4 46 6 31 -8
46 -44 46 -21 0 -23 -5 -23 -45z m48 8 c-4 -22 -22 -20 -26 1 -2 10 3 16 13
16 10 0 15 -7 13 -17z"/>
<path d="M7410 3540 c0 -5 7 -10 15 -10 11 0 15 -12 15 -45 0 -25 5 -45 10
-45 6 0 10 20 10 45 0 39 3 45 21 45 11 0 17 5 14 10 -3 6 -24 10 -46 10 -21
0 -39 -4 -39 -10z"/>
<path d="M7770 3535 c0 -8 -6 -15 -14 -15 -22 0 -39 -28 -32 -55 5 -20 13 -25
36 -25 30 0 30 1 30 55 0 30 -4 55 -10 55 -5 0 -10 -7 -10 -15z m0 -61 c0 -31
-23 -28 -28 4 -2 15 2 22 12 22 11 0 16 -9 16 -26z"/>
<path d="M6902 3511 c-8 -5 -12 -21 -10 -37 2 -23 9 -30 31 -32 15 -2 27 1 27
7 0 6 -6 8 -14 5 -8 -3 -17 -1 -21 5 -4 7 4 11 19 11 28 0 34 18 14 38 -14 14
-28 15 -46 3z m35 -17 c-3 -3 -12 -4 -19 -1 -8 3 -5 6 6 6 11 1 17 -2 13 -5z"/>
<path d="M6970 3512 c0 -23 23 -73 33 -69 15 5 39 77 26 77 -6 0 -13 -9 -16
-20 -6 -23 -23 -27 -23 -6 0 8 -4 18 -10 21 -5 3 -10 2 -10 -3z"/>
<path d="M7050 3500 c-15 -28 4 -60 35 -60 14 0 25 4 25 9 0 5 -8 7 -19 4 -10
-3 -22 0 -25 6 -5 7 2 11 17 11 31 0 38 9 26 31 -13 25 -46 24 -59 -1z m47 -6
c-3 -3 -12 -4 -19 -1 -8 3 -5 6 6 6 11 1 17 -2 13 -5z"/>
<path d="M7130 3479 c0 -22 5 -39 10 -39 6 0 10 14 10 30 0 20 5 30 15 30 10
0 15 -10 15 -30 0 -16 5 -30 10 -30 12 0 13 49 2 66 -4 7 -19 12 -34 12 -26 0
-28 -4 -28 -39z"/>
<path d="M7212 3483 c3 -35 6 -38 36 -41 31 -3 32 -2 32 37 0 49 -17 55 -22 9
-2 -18 -7 -33 -13 -33 -5 0 -11 15 -13 33 -2 17 -8 32 -13 32 -6 0 -9 -17 -7
-37z"/>
<path d="M7312 3511 c-8 -5 -12 -21 -10 -37 2 -23 9 -30 31 -32 15 -2 27 1 27
7 0 6 -6 8 -14 5 -8 -3 -17 -1 -21 5 -4 7 4 11 19 11 28 0 34 18 14 38 -14 14
-28 15 -46 3z m35 -17 c-3 -3 -12 -4 -19 -1 -8 3 -5 6 6 6 11 1 17 -2 13 -5z"/>
<path d="M7500 3479 c0 -22 5 -39 10 -39 6 0 10 11 10 25 0 14 7 28 15 31 23
9 18 22 -10 22 -22 0 -25 -5 -25 -39z"/>
<path d="M7560 3500 c-15 -28 4 -60 35 -60 14 0 25 4 25 9 0 5 -9 7 -20 4 -11
-3 -20 0 -20 6 0 6 8 11 18 11 26 0 33 10 21 31 -13 25 -46 24 -59 -1z m47 -6
c-3 -3 -12 -4 -19 -1 -8 3 -5 6 6 6 11 1 17 -2 13 -5z"/>
<path d="M7640 3479 c0 -22 5 -39 10 -39 6 0 10 14 10 30 0 20 5 30 15 30 10
0 15 -10 15 -30 0 -16 5 -30 10 -30 12 0 13 49 2 66 -4 7 -19 12 -34 12 -26 0
-28 -4 -28 -39z"/>
<path d="M300 3500 c0 -5 7 -10 15 -10 11 0 15 -12 15 -45 0 -25 5 -45 10 -45
6 0 10 20 10 45 0 33 4 45 15 45 8 0 15 5 15 10 0 6 -18 10 -40 10 -22 0 -40
-4 -40 -10z"/>
<path d="M600 3480 c0 -23 4 -30 20 -30 13 0 20 -7 20 -20 0 -21 -15 -27 -25
-10 -10 16 -25 12 -18 -6 3 -9 15 -14 32 -12 20 2 27 9 29 31 3 22 -1 30 -17
34 -27 7 -27 23 -1 23 11 0 20 5 20 10 0 6 -13 10 -30 10 -27 0 -30 -3 -30
-30z"/>
<path d="M720 3455 l0 -55 38 1 c30 2 32 3 10 6 -20 3 -28 10 -28 25 0 14 5
18 15 15 8 -4 17 -2 20 3 4 6 -3 10 -14 10 -12 0 -21 7 -21 15 0 9 9 15 25 15
14 0 25 5 25 10 0 6 -16 10 -35 10 l-35 0 0 -55z"/>
<path d="M1410 3454 l0 -55 33 3 c28 3 32 6 32 33 0 22 -6 33 -22 40 -13 5
-23 15 -23 22 0 7 -4 13 -10 13 -5 0 -10 -25 -10 -56z m48 -16 c-5 -32 -28
-35 -28 -4 0 17 5 26 16 26 10 0 14 -7 12 -22z"/>
<path d="M1620 3490 c-23 -23 -24 -29 -10 -64 7 -20 17 -26 39 -26 16 0 33 5
36 11 11 17 -3 23 -20 9 -26 -22 -55 28 -34 61 7 12 12 12 30 1 27 -17 40 -5
15 14 -26 18 -32 18 -56 -6z"/>
<path d="M1787 3487 c-10 -27 8 -82 28 -85 15 -2 17 -1 6 6 -9 6 -12 20 -8 38
8 43 -13 76 -26 41z"/>
<path d="M390 3466 c-19 -24 -8 -61 19 -64 29 -4 53 22 44 46 -12 33 -43 41
-63 18z m40 -32 c0 -31 -23 -28 -28 4 -2 15 2 22 12 22 11 0 16 -9 16 -26z"/>
<path d="M470 3424 c0 -30 5 -54 10 -54 6 0 10 6 10 14 0 8 10 16 23 18 14 2
23 11 25 26 5 30 -12 50 -43 50 -24 0 -25 -4 -25 -54z m48 14 c-5 -32 -28 -35
-28 -4 0 17 5 26 16 26 10 0 14 -7 12 -22z"/>
<path d="M800 3472 c0 -4 5 -13 11 -19 8 -8 8 -17 0 -32 -13 -23 -2 -28 17 -9
9 9 12 9 12 0 0 -7 7 -12 16 -12 13 0 14 3 4 15 -7 9 -10 25 -5 42 5 23 4 25
-8 14 -10 -8 -17 -9 -22 -1 -7 12 -25 14 -25 2z"/>
<path d="M880 3423 c0 -29 5 -53 10 -53 6 0 10 7 10 15 0 8 9 15 20 15 25 0
34 21 26 54 -5 20 -12 24 -36 24 -29 -1 -30 -2 -30 -55z m48 15 c-5 -32 -28
-35 -28 -4 0 17 5 26 16 26 10 0 14 -7 12 -22z"/>
<path d="M972 3468 c-15 -15 -15 -41 0 -56 14 -14 58 -16 58 -3 0 5 -8 7 -19
4 -10 -3 -22 0 -25 6 -5 7 3 11 19 11 22 0 26 4 23 23 -3 25 -36 35 -56 15z
m38 -12 c0 -3 -4 -8 -10 -11 -5 -3 -10 -1 -10 4 0 6 5 11 10 11 6 0 10 -2 10
-4z"/>
<path d="M1050 3438 c0 -21 5 -38 10 -38 6 0 10 14 10 30 0 28 19 44 21 18 1
-7 2 -17 4 -23 1 -5 3 -14 4 -20 5 -20 17 29 13 51 -3 18 -10 23 -33 21 -26
-2 -29 -5 -29 -39z"/>
<path d="M1143 3473 c-20 -7 -15 -31 7 -38 11 -3 20 -11 20 -16 0 -6 -9 -7
-21 -4 -15 5 -19 4 -15 -4 4 -6 18 -11 32 -11 31 0 33 32 2 49 l-23 12 23 -5
c15 -3 22 0 19 7 -4 13 -26 18 -44 10z"/>
<path d="M1222 3471 c-8 -5 -12 -21 -10 -37 2 -23 9 -30 31 -32 15 -2 27 1 27
6 0 6 -9 8 -20 5 -11 -3 -20 0 -20 6 0 6 11 11 25 11 27 0 33 18 13 38 -14 14
-28 15 -46 3z m33 -21 c-3 -5 -10 -10 -16 -10 -5 0 -9 5 -9 10 0 6 7 10 16 10
8 0 12 -4 9 -10z"/>
<path d="M1297 3474 c-13 -14 -7 -33 13 -39 11 -3 20 -11 20 -16 0 -6 -9 -7
-21 -4 -15 5 -19 4 -15 -4 4 -6 18 -11 32 -11 31 0 33 32 2 49 l-23 12 23 -5
c15 -3 22 0 19 7 -4 14 -39 21 -50 11z"/>
<path d="M1490 3476 c0 -5 5 -26 12 -48 10 -33 9 -41 -3 -49 -11 -8 -10 -9 5
-7 13 2 25 20 37 56 11 31 14 52 7 52 -5 0 -12 -10 -15 -21 -6 -21 -6 -21 -24
2 -10 13 -19 20 -19 15z"/>
<path d="M1715 3470 c-3 -6 4 -10 17 -10 l23 0 -25 -13 c-36 -18 -32 -41 8
-45 28 -3 32 0 32 22 0 13 -3 31 -6 40 -7 18 -39 22 -49 6z m30 -49 c-3 -6
-11 -8 -17 -5 -6 4 -5 9 3 15 16 10 23 4 14 -10z"/>
<path d="M1842 3463 c-15 -28 3 -63 33 -63 14 0 25 4 25 9 0 5 -9 7 -20 4 -11
-3 -20 0 -20 6 0 6 11 11 25 11 28 0 29 3 15 31 -13 24 -46 25 -58 2z m48 -7
c0 -2 -7 -6 -15 -10 -8 -3 -15 -1 -15 4 0 6 7 10 15 10 8 0 15 -2 15 -4z"/>
<path d="M1924 3466 c-11 -30 1 -60 26 -66 17 -4 21 -8 12 -14 -6 -4 -16 -4
-22 -1 -5 3 -10 1 -10 -5 0 -6 12 -10 28 -8 25 3 27 7 30 56 l3 52 -31 0 c-17
0 -33 -6 -36 -14z m44 -28 c-5 -32 -28 -35 -28 -4 0 17 5 26 16 26 10 0 14 -7
12 -22z"/>
<path d="M2010 3460 c-16 -30 -3 -60 24 -60 35 0 52 25 38 55 -14 30 -47 33
-62 5z m50 -19 c0 -11 -5 -23 -11 -27 -15 -9 -33 12 -26 30 9 23 37 20 37 -3z"/>
<path d="M2090 3439 c0 -44 17 -53 22 -12 4 40 31 40 45 2 9 -24 10 -36 2 -46
-9 -10 -8 -13 4 -13 13 0 47 74 47 102 0 20 -19 5 -25 -19 l-8 -28 -6 25 c-6
21 -13 25 -44 27 -37 1 -37 1 -37 -38z"/>
<path d="M7600 3295 c0 -30 5 -55 10 -55 6 0 10 14 10 30 0 20 5 30 15 30 10
0 15 -10 15 -30 0 -16 5 -30 10 -30 6 0 10 13 10 29 0 31 -22 57 -40 46 -6 -3
-10 3 -10 14 0 12 -4 21 -10 21 -5 0 -10 -25 -10 -55z"/>
<path d="M6802 3294 c-2 -56 13 -74 46 -54 14 8 12 9 -10 10 -25 0 -27 4 -31
48 l-3 47 -2 -51z"/>
<path d="M7143 3328 c-20 -26 -21 -58 -3 -80 15 -19 20 -20 34 -9 29 24 12 77
-20 64 -10 -4 -12 0 -8 10 3 9 13 18 22 20 15 4 15 5 1 6 -9 0 -21 -5 -26 -11z
m35 -61 c2 -12 -3 -17 -17 -17 -15 0 -21 6 -21 21 0 25 33 22 38 -4z"/>
<path d="M7250 3290 c0 -27 4 -50 9 -50 5 0 8 16 6 35 -2 41 11 38 20 -5 9
-39 23 -38 40 3 14 32 18 30 28 -18 3 -11 5 4 6 33 1 63 -13 67 -36 10 l-17
-42 -17 42 c-24 56 -39 53 -39 -8z"/>
<path d="M7038 3318 c-6 -20 6 -81 17 -85 6 -2 9 17 7 47 -4 47 -15 65 -24 38z"/>
<path d="M7557 3324 c-7 -7 3 -76 12 -86 4 -4 6 13 6 37 -1 45 -7 60 -18 49z"/>
<path d="M1113 3260 c0 -47 1 -56 6 -30 9 51 38 53 44 3 l4 -38 1 43 c2 38 0
42 -22 42 -18 0 -26 7 -29 23 -2 12 -4 -7 -4 -43z"/>
<path d="M6893 3313 c-21 -8 -15 -22 7 -16 11 3 20 0 20 -6 0 -6 -9 -11 -19
-11 -23 0 -34 -25 -17 -39 6 -6 22 -8 34 -4 25 6 31 50 10 71 -13 13 -16 13
-35 5z m27 -53 c0 -5 -7 -10 -15 -10 -8 0 -15 5 -15 10 0 6 7 10 15 10 8 0 15
-4 15 -10z"/>
<path d="M6973 3313 c-22 -8 -14 -33 12 -43 14 -5 25 -12 25 -16 0 -3 -11 -4
-25 -2 -14 3 -25 2 -25 -2 0 -12 28 -20 45 -14 23 9 18 33 -11 44 -14 6 -22
14 -19 20 4 7 14 6 28 -2 20 -10 21 -10 8 5 -14 18 -18 19 -38 10z"/>
<path d="M7390 3306 c-15 -19 -9 -56 12 -69 34 -22 66 41 36 71 -16 16 -33 15
-48 -2z m44 -44 c-13 -20 -25 -20 -38 1 -7 10 -5 21 4 32 12 15 15 15 29 0 12
-12 13 -19 5 -33z"/>
<path d="M7488 3313 c-14 -3 -18 -14 -16 -41 l1 -37 4 33 c3 23 9 32 23 32 14
0 20 -9 23 -32 4 -28 4 -26 3 6 -1 40 -8 47 -38 39z"/>
<path d="M7701 3311 c-17 -11 -7 -41 14 -41 8 0 15 -5 15 -11 0 -7 -10 -9 -27
-4 -23 5 -25 4 -14 -9 16 -19 33 -20 48 -5 14 14 6 39 -12 39 -8 0 -17 5 -21
11 -5 9 1 10 21 5 25 -6 27 -5 16 8 -15 18 -21 19 -40 7z"/>
<path d="M312 3268 c-1 -27 -3 -51 -4 -55 -2 -5 13 -9 32 -9 25 -1 27 -1 8 3
-25 4 -27 9 -31 56 l-3 52 -2 -47z"/>
<path d="M646 3288 c-31 -44 -6 -106 32 -81 26 16 22 57 -5 61 -27 4 -30 17
-5 31 9 6 12 11 5 11 -6 0 -19 -10 -27 -22z m39 -53 c0 -28 -29 -25 -33 3 -3
19 0 23 15 20 10 -2 18 -12 18 -23z"/>
<path d="M762 3253 l1 -58 6 45 6 45 18 -45 19 -45 18 40 19 40 0 -38 c1 -57
21 -35 21 24 0 60 -15 63 -39 7 l-19 -43 -17 43 c-9 23 -21 42 -26 42 -5 0 -8
-26 -7 -57z"/>
<path d="M548 3288 c-8 -24 7 -81 22 -86 12 -4 13 -2 3 9 -16 16 -17 56 -2 61
7 2 6 8 -4 16 -12 10 -16 10 -19 0z"/>
<path d="M1060 3285 c-8 -10 -9 -15 -1 -15 6 0 11 -16 11 -35 0 -19 3 -35 8
-35 7 0 7 88 -1 96 -2 2 -10 -2 -17 -11z"/>
<path d="M385 3270 c-4 -7 2 -9 19 -4 16 4 26 2 26 -5 0 -6 -6 -11 -12 -11
-23 0 -39 -16 -32 -33 9 -24 64 -23 64 1 0 41 -13 62 -36 62 -12 0 -26 -5 -29
-10z m43 -42 c-6 -18 -28 -21 -28 -4 0 9 7 16 16 16 9 0 14 -5 12 -12z"/>
<path d="M470 3261 c0 -10 9 -21 20 -24 11 -3 20 -10 20 -16 0 -14 -27 -14
-33 -1 -3 6 -4 5 -3 -2 4 -18 37 -23 47 -7 9 15 -7 39 -27 39 -8 0 -14 5 -14
11 0 7 10 9 26 5 17 -5 23 -3 19 4 -3 5 -17 10 -31 10 -17 0 -24 -6 -24 -19z"/>
<path d="M894 3266 c-11 -28 1 -61 22 -64 28 -4 48 22 40 53 -5 18 -13 25 -32
25 -13 0 -27 -6 -30 -14z m44 -23 c-3 -30 -25 -42 -34 -19 -9 22 2 46 21 46
12 0 15 -8 13 -27z"/>
<path d="M970 3253 c0 -15 5 -35 10 -43 7 -11 10 -5 10 23 0 31 3 38 18 35 10
-2 19 -16 24 -38 l6 -35 -1 40 c-2 37 -4 40 -34 43 -30 3 -33 1 -33 -25z"/>
<path d="M1197 3273 c-13 -13 -7 -24 20 -34 19 -7 23 -13 15 -21 -8 -8 -16 -7
-28 3 -15 12 -17 12 -12 -1 2 -8 15 -15 29 -15 31 0 39 34 10 42 -12 3 -21 10
-21 15 0 6 9 8 20 5 11 -3 18 -1 14 4 -6 10 -38 12 -47 2z"/>
<path d="M6792 2984 c-18 -19 -15 -42 8 -54 23 -13 27 -40 5 -40 -8 0 -15 5
-15 10 0 6 -5 10 -12 10 -6 0 -3 -9 7 -20 19 -21 19 -21 39 -1 16 17 17 23 6
35 -7 9 -19 16 -26 16 -8 0 -14 7 -14 15 0 18 26 20 33 3 4 -10 6 -10 6 0 1 7
-5 19 -12 26 -10 11 -15 11 -25 0z"/>
<path d="M6859 2973 c0 -4 -2 -23 -3 -40 -4 -40 17 -62 42 -46 10 6 15 17 13
25 -2 7 -4 24 -5 38 -1 18 -7 26 -23 28 -13 2 -23 0 -24 -5z m41 -18 c0 -8 -7
-15 -15 -15 -8 0 -15 7 -15 15 0 8 7 15 15 15 8 0 15 -7 15 -15z m0 -39 c0
-18 -16 -29 -30 -21 -13 8 -1 35 16 35 8 0 14 -6 14 -14z"/>
<path d="M6937 2974 c-13 -13 -7 -71 8 -84 27 -23 46 -4 43 42 -2 34 -7 44
-23 46 -12 2 -24 0 -28 -4z m41 -41 c-3 -41 -23 -55 -33 -24 -9 28 3 61 21 61
11 0 14 -9 12 -37z"/>
<path d="M7010 2930 c0 -27 5 -50 10 -50 6 0 10 12 10 28 l1 27 24 -27 c31
-36 42 -36 16 0 -19 27 -19 30 -4 53 l16 24 -26 -24 c-27 -24 -27 -24 -27 -3
0 12 -4 22 -10 22 -5 0 -10 -22 -10 -50z"/>
<path d="M2102 2854 c-34 -23 -27 -83 11 -104 24 -13 30 -13 55 0 37 21 44 81
10 104 -12 9 -29 16 -38 16 -9 0 -26 -7 -38 -16z"/>
<path d="M4330 2850 c-11 -11 -20 -31 -20 -45 0 -14 9 -34 20 -45 11 -11 31
-20 45 -20 14 0 34 9 45 20 11 11 20 31 20 45 0 14 -9 34 -20 45 -11 11 -31
20 -45 20 -14 0 -34 -9 -45 -20z"/>
<path d="M1291 2808 c1 -24 3 -35 6 -25 6 21 19 22 31 1 7 -12 9 -6 8 22 -1
32 -5 40 -23 42 -21 3 -23 0 -22 -40z m37 20 c-6 -18 -28 -21 -28 -4 0 9 7 16
16 16 9 0 14 -5 12 -12z"/>
<path d="M1662 2813 c-2 -41 -1 -43 26 -42 22 1 23 2 5 6 -17 3 -23 13 -26 41
l-4 37 -1 -42z"/>
<path d="M2250 2814 c-7 -19 -9 -38 -6 -41 3 -4 6 -1 6 5 0 7 9 12 20 12 11 0
20 -5 20 -12 0 -6 2 -9 5 -6 11 10 -7 37 -21 31 -9 -3 -14 1 -14 12 0 9 5 13
10 10 6 -3 10 -2 10 4 0 27 -20 17 -30 -15z"/>
<path d="M2350 2841 c0 -5 -9 -11 -21 -14 -29 -8 -22 -51 9 -55 20 -3 22 1 22
37 0 23 -2 41 -5 41 -3 0 -5 -4 -5 -9z m-2 -44 c2 -10 -3 -17 -12 -17 -10 0
-16 9 -16 21 0 24 23 21 28 -4z"/>
<path d="M3076 2841 c-3 -4 6 -6 19 -3 14 2 25 6 25 8 0 8 -39 4 -44 -5z"/>
<path d="M3170 2840 c0 -5 -6 -10 -14 -10 -8 0 -16 -7 -20 -15 -8 -23 4 -45
25 -45 15 0 19 7 19 40 0 22 -2 40 -5 40 -3 0 -5 -4 -5 -10z m0 -40 c0 -11 -4
-20 -9 -20 -14 0 -23 18 -16 30 10 17 25 11 25 -10z"/>
<path d="M3740 2840 c0 -5 -6 -10 -14 -10 -8 0 -16 -7 -20 -15 -8 -23 4 -45
25 -45 15 0 19 7 19 40 0 22 -2 40 -5 40 -3 0 -5 -4 -5 -10z m0 -40 c0 -11 -4
-20 -9 -20 -14 0 -23 18 -16 30 10 17 25 11 25 -10z"/>
<path d="M3797 2842 c6 -4 13 -23 16 -42 l4 -35 1 37 c2 25 7 38 20 41 9 3 1
5 -18 6 -19 0 -30 -3 -23 -7z"/>
<path d="M4480 2836 c-19 -24 -4 -68 22 -64 12 2 23 10 25 18 4 12 3 13 -5 1
-14 -19 -42 -6 -42 19 0 25 28 38 42 19 8 -12 9 -11 5 1 -5 21 -31 24 -47 6z"/>
<path d="M5346 2815 c-20 -46 -20 -51 -1 -35 8 7 22 10 30 6 8 -3 15 -1 15 4
0 6 -9 10 -20 10 -14 0 -18 5 -13 16 5 13 7 13 14 2 5 -7 9 -8 9 -3 0 6 -4 16
-9 24 -7 11 -13 5 -25 -24z"/>
<path d="M5478 2838 c-2 -7 -1 -26 2 -43 l6 -30 5 32 c6 34 -4 66 -13 41z"/>
<path d="M3378 2835 c-6 -7 3 -65 11 -65 7 0 7 58 -1 65 -2 3 -7 3 -10 0z"/>
<path d="M4668 2835 c-6 -7 3 -65 11 -65 7 0 7 58 -1 65 -2 3 -7 3 -10 0z"/>
<path d="M4858 2835 c-6 -7 3 -65 11 -65 7 0 7 58 -1 65 -2 3 -7 3 -10 0z"/>
<path d="M1354 2816 c-9 -23 3 -46 23 -45 17 1 17 2 1 6 -25 6 -22 23 3 23 12
0 19 5 17 13 -7 18 -37 21 -44 3z m33 -2 c-3 -3 -12 -4 -19 -1 -8 3 -5 6 6 6
11 1 17 -2 13 -5z"/>
<path d="M1412 2800 c0 -19 2 -27 5 -17 2 9 2 25 0 35 -3 9 -5 1 -5 -18z"/>
<path d="M1436 2823 c7 -4 14 -19 17 -33 4 -22 5 -21 4 4 -1 17 -9 31 -17 33
-10 3 -11 2 -4 -4z"/>
<path d="M1534 2816 c-9 -24 4 -48 23 -44 12 2 18 12 18 28 0 29 -32 41 -41
16z m36 -17 c0 -24 -23 -21 -28 4 -2 10 3 17 12 17 10 0 16 -9 16 -21z"/>
<path d="M1600 2800 c0 -16 2 -30 4 -30 2 0 6 14 8 30 3 17 1 30 -4 30 -4 0
-8 -13 -8 -30z"/>
<path d="M1724 2815 c-9 -23 3 -45 23 -44 16 1 16 2 1 6 -9 2 -16 13 -15 24 1
19 17 28 17 9 0 -5 4 -10 10 -10 5 0 7 7 4 15 -4 8 -13 15 -20 15 -8 0 -17 -7
-20 -15z"/>
<path d="M1798 2822 c11 -7 11 -10 -2 -15 -23 -9 -20 -37 5 -37 16 0 20 5 17
27 -2 14 -10 28 -18 30 -12 4 -12 3 -2 -5z m12 -32 c0 -5 -4 -10 -10 -10 -5 0
-10 5 -10 10 0 6 5 10 10 10 6 0 10 -4 10 -10z"/>
<path d="M1840 2816 c0 -8 8 -17 18 -21 16 -7 15 -8 -3 -15 -16 -7 -17 -9 -3
-9 26 -1 32 19 12 35 -18 15 -18 15 -1 10 11 -3 16 -2 12 4 -9 15 -35 12 -35
-4z"/>
<path d="M1894 2816 c-9 -23 3 -46 23 -45 16 1 16 2 1 6 -20 5 -20 43 0 43 7
0 10 -4 7 -10 -3 -5 -1 -10 5 -10 18 0 6 25 -13 28 -10 2 -20 -4 -23 -12z"/>
<path d="M2400 2818 c0 -9 -6 -18 -12 -21 -10 -3 -10 -8 -2 -16 9 -10 13 -6
18 14 4 15 5 30 1 33 -3 3 -5 -2 -5 -10z"/>
<path d="M2427 2815 c-9 -21 2 -45 21 -45 14 0 14 1 -1 13 -12 8 -14 16 -7 27
9 13 11 13 21 0 9 -13 10 -13 6 0 -5 21 -33 24 -40 5z"/>
<path d="M2481 2798 c2 -28 2 -29 6 -8 3 14 10 28 17 32 7 5 5 8 -6 8 -14 0
-18 -8 -17 -32z"/>
<path d="M2562 2800 c0 -19 2 -27 5 -17 2 9 2 25 0 35 -3 9 -5 1 -5 -18z"/>
<path d="M2585 2821 c-3 -5 0 -13 6 -17 8 -5 9 -3 4 6 -6 10 -3 12 13 8 12 -4
20 -2 16 3 -7 12 -31 12 -39 0z"/>
<path d="M2642 2800 c0 -19 2 -27 5 -17 2 9 2 25 0 35 -3 9 -5 1 -5 -18z"/>
<path d="M2671 2798 c2 -31 2 -31 6 -5 2 15 8 27 13 27 5 0 11 -12 13 -27 4
-26 4 -26 6 5 1 26 -3 32 -19 32 -16 0 -20 -6 -19 -32z"/>
<path d="M2737 2823 c-13 -12 -7 -44 10 -50 15 -6 15 -7 -3 -14 -17 -7 -17 -8
4 -8 19 -1 22 4 22 39 0 38 -14 52 -33 33z m23 -23 c0 -11 -4 -20 -10 -20 -5
0 -10 9 -10 20 0 11 5 20 10 20 6 0 10 -9 10 -20z"/>
<path d="M3201 2803 c-1 -27 3 -33 19 -33 16 0 20 6 19 33 -2 30 -2 30 -6 5
-2 -16 -8 -28 -13 -28 -5 0 -11 12 -13 28 -4 25 -4 25 -6 -5z"/>
<path d="M3261 2816 c-6 -7 -9 -21 -5 -30 7 -17 29 -22 38 -7 3 5 -2 8 -12 7
-9 0 -17 6 -17 14 0 8 8 14 17 14 10 -1 15 2 12 7 -8 13 -20 11 -33 -5z"/>
<path d="M3335 2821 c19 -8 19 -8 -3 -15 -28 -9 -24 -30 7 -34 19 -3 22 0 19
25 -2 19 -9 29 -23 30 l-20 3 20 -9z m15 -31 c0 -5 -7 -10 -16 -10 -8 0 -12 5
-9 10 3 6 10 10 16 10 5 0 9 -4 9 -10z"/>
<path d="M3412 2800 c0 -19 2 -27 5 -17 2 9 2 25 0 35 -3 9 -5 1 -5 -18z"/>
<path d="M3441 2816 c-14 -16 -4 -46 15 -46 20 0 36 34 22 48 -15 15 -23 15
-37 -2z m33 -4 c2 -4 1 -14 -4 -22 -7 -11 -12 -12 -21 -3 -6 6 -8 16 -5 22 8
13 23 14 30 3z"/>
<path d="M3501 2798 c2 -31 2 -31 6 -5 2 15 8 27 13 27 5 0 11 -12 13 -27 4
-26 4 -26 6 5 1 26 -3 32 -19 32 -16 0 -20 -6 -19 -32z"/>
<path d="M3603 2824 c18 -5 18 -7 -2 -21 -24 -17 -19 -33 10 -33 29 0 23 54
-6 57 -17 2 -18 1 -2 -3z m17 -34 c0 -5 -7 -10 -16 -10 -8 0 -12 5 -9 10 3 6
10 10 16 10 5 0 9 -4 9 -10z"/>
<path d="M3655 2821 c-3 -7 0 -8 9 -5 10 4 16 -3 19 -23 l5 -28 -2 29 c-1 30
-19 45 -31 27z"/>
<path d="M3851 2798 c2 -28 2 -29 6 -8 3 14 10 28 17 32 7 5 5 8 -6 8 -14 0
-18 -8 -17 -32z"/>
<path d="M3899 2828 c-11 -45 -8 -58 11 -58 17 0 21 5 18 27 -2 14 -9 28 -15
31 -7 2 -13 2 -14 0z m21 -38 c0 -5 -4 -10 -10 -10 -5 0 -10 5 -10 10 0 6 5
10 10 10 6 0 10 -4 10 -10z"/>
<path d="M3952 2800 c0 -19 2 -27 5 -17 2 9 2 25 0 35 -3 9 -5 1 -5 -18z"/>
<path d="M3971 2798 c1 -29 2 -30 8 -9 9 34 29 37 34 6 4 -24 4 -24 3 2 -1 21
-7 29 -23 31 -20 3 -23 -1 -22 -30z"/>
<path d="M4061 2798 c2 -30 2 -31 6 -5 5 34 30 36 36 2 4 -23 4 -23 3 2 -1 21
-7 29 -23 31 -20 3 -23 -1 -22 -30z"/>
<path d="M4127 2823 c-15 -15 -6 -45 15 -51 21 -5 21 -6 2 -14 -18 -8 -18 -8
1 -5 29 3 36 77 7 77 -10 0 -22 -3 -25 -7z m31 -26 c2 -10 -3 -17 -12 -17 -10
0 -16 9 -16 21 0 24 23 21 28 -4z"/>
<path d="M4547 2815 c-9 -22 3 -46 22 -43 10 2 16 13 16 28 0 28 -29 40 -38
15z m33 -15 c0 -11 -4 -20 -9 -20 -14 0 -23 18 -16 30 10 17 25 11 25 -10z"/>
<path d="M4611 2798 c2 -31 2 -31 6 -5 2 15 8 27 13 27 5 0 11 -12 13 -27 4
-26 4 -26 6 5 1 26 -3 32 -19 32 -16 0 -20 -6 -19 -32z"/>
<path d="M4701 2798 c2 -28 2 -29 6 -8 3 14 10 28 17 32 7 5 5 8 -6 8 -14 0
-18 -8 -17 -32z"/>
<path d="M4749 2828 c-11 -45 -8 -58 11 -58 17 0 21 5 18 27 -2 14 -9 28 -15
31 -7 2 -13 2 -14 0z m21 -38 c0 -5 -4 -10 -10 -10 -5 0 -10 5 -10 10 0 6 5
10 10 10 6 0 10 -4 10 -10z"/>
<path d="M4806 2822 c-2 -4 4 -8 14 -8 10 0 16 4 14 8 -3 4 -9 8 -14 8 -5 0
-11 -4 -14 -8z"/>
<path d="M4894 2815 c-8 -21 3 -45 20 -45 20 0 29 16 21 40 -7 23 -33 27 -41
5z m34 -18 c2 -10 -3 -17 -12 -17 -10 0 -16 9 -16 21 0 24 23 21 28 -4z"/>
<path d="M4951 2798 c2 -28 2 -29 6 -8 3 14 10 28 17 32 7 5 5 8 -6 8 -14 0
-18 -8 -17 -32z"/>
<path d="M4995 2819 c-4 -6 1 -17 11 -25 17 -14 17 -15 2 -10 -10 3 -18 1 -18
-4 0 -13 27 -13 35 1 4 6 -1 17 -11 25 -18 15 -18 15 -1 10 11 -3 16 -2 12 4
-8 13 -22 13 -30 -1z"/>
<path d="M5412 2800 c0 -19 2 -27 5 -17 2 9 2 25 0 35 -3 9 -5 1 -5 -18z"/>
<path d="M5431 2798 c1 -22 3 -26 6 -13 3 11 10 26 15 33 8 9 6 12 -6 12 -12
0 -16 -9 -15 -32z"/>
<path d="M5519 2828 c0 -2 -3 -15 -5 -30 -4 -23 -1 -28 16 -28 16 0 20 6 20
30 0 20 -5 30 -15 30 -8 0 -15 -1 -16 -2z m21 -38 c0 -5 -4 -10 -10 -10 -5 0
-10 5 -10 10 0 6 5 10 10 10 6 0 10 -4 10 -10z"/>
<path d="M5571 2798 c2 -28 2 -29 6 -8 3 14 10 28 17 32 7 5 5 8 -6 8 -14 0
-18 -8 -17 -32z"/>
<path d="M5607 2815 c-9 -21 2 -45 21 -45 14 0 14 1 -1 13 -12 8 -14 16 -7 27
9 13 11 13 21 0 9 -13 10 -13 6 0 -5 21 -33 24 -40 5z"/>
<path d="M2615 2790 c6 -10 3 -12 -13 -8 -12 4 -20 2 -16 -3 7 -12 31 -12 39
0 3 5 0 13 -6 17 -8 5 -9 3 -4 -6z"/>
<path d="M2530 2780 c0 -5 5 -10 11 -10 5 0 7 5 4 10 -3 6 -8 10 -11 10 -2 0
-4 -4 -4 -10z"/>
<path d="M3080 2779 c0 -5 9 -9 20 -9 11 0 20 2 20 4 0 2 -9 6 -20 9 -11 3
-20 1 -20 -4z"/>
<path d="M4810 2776 c7 -7 13 -7 20 0 6 6 3 10 -10 10 -13 0 -16 -4 -10 -10z"/>
<path d="M6792 2658 c-18 -18 -14 -46 8 -53 22 -7 28 -35 7 -35 -7 0 -18 5
-25 12 -7 7 -12 8 -12 2 0 -5 8 -17 18 -25 17 -15 20 -14 35 4 17 21 13 47 -8
47 -20 0 -29 20 -16 33 9 9 14 8 21 -3 5 -8 10 -10 10 -4 0 21 -25 35 -38 22z"/>
<path d="M6873 2653 c31 -5 32 -8 12 -43 -8 -14 -14 -32 -14 -40 0 -18 13 2
35 55 l14 35 -37 -1 c-31 -2 -33 -3 -10 -6z"/>
<path d="M6942 2648 c-27 -27 -11 -88 25 -88 23 0 24 3 21 47 -3 50 -21 66
-46 41z m36 -41 c2 -28 -1 -37 -12 -37 -18 0 -30 33 -21 61 10 31 30 17 33
-24z"/>
<path d="M7018 2654 c-12 -11 -10 -94 2 -94 6 0 10 9 10 20 0 11 3 20 8 20 4
0 13 -9 20 -20 7 -11 17 -20 23 -20 6 0 1 12 -10 27 -19 23 -20 28 -6 43 24
27 17 36 -9 11 l-24 -23 -4 22 c-2 12 -6 18 -10 14z"/>
<path d="M11256 2636 c-16 -20 -16 -22 11 -43 21 -17 25 -25 16 -34 -9 -9 -16
-9 -28 1 -8 7 -15 9 -15 5 0 -17 35 -33 47 -23 20 16 15 49 -7 55 -11 3 -20
12 -20 19 0 17 27 18 33 2 4 -10 6 -10 6 0 1 7 -5 19 -12 27 -11 10 -16 9 -31
-9z"/>
<path d="M11610 2635 c-18 -22 -8 -50 20 -53 l24 -4 -25 -19 c-13 -10 -19 -19
-12 -19 21 0 43 31 43 60 0 36 -31 58 -50 35z m35 -25 c0 -8 -8 -16 -17 -18
-13 -2 -18 3 -18 18 0 15 5 20 18 18 9 -2 17 -10 17 -18z"/>
<path d="M11330 2619 c-15 -27 -9 -59 13 -73 14 -9 21 -7 32 8 17 23 4 56 -23
56 -15 1 -15 2 2 15 17 13 17 15 3 15 -9 0 -21 -9 -27 -21z m40 -37 c0 -26
-11 -34 -27 -21 -10 9 -10 15 -2 25 16 19 29 17 29 -4z"/>
<path d="M11410 2615 c0 -17 4 -23 15 -19 19 8 32 -24 15 -39 -10 -9 -14 -9
-17 1 -3 6 -10 12 -16 12 -6 0 -3 -8 6 -17 13 -14 21 -15 35 -7 24 16 21 47
-5 59 -13 5 -23 13 -23 17 0 3 10 9 23 11 19 4 18 4 -5 6 -23 1 -28 -3 -28
-24z"/>
<path d="M11520 2632 c0 -6 8 -8 19 -5 23 6 38 -15 16 -23 -14 -6 -14 -8 2
-20 14 -10 15 -15 6 -25 -10 -10 -16 -9 -29 2 -15 12 -17 12 -12 -1 2 -8 16
-15 29 -15 22 0 24 4 24 45 0 42 -2 45 -27 48 -16 2 -28 -1 -28 -6z"/>
<path d="M11681 2590 c0 -37 2 -50 8 -40 6 8 8 17 5 21 -2 4 0 10 5 14 6 3 18
-6 27 -20 9 -14 20 -25 25 -25 5 0 0 13 -12 30 -22 29 -22 30 -4 50 10 11 13
20 8 20 -6 0 -16 -7 -23 -15 -16 -20 -27 -19 -33 3 -3 9 -5 -8 -6 -38z"/>
<path d="M7412 2564 c-18 -20 -15 -40 10 -56 13 -9 18 -19 14 -27 -6 -9 -11
-9 -22 0 -22 18 -27 5 -6 -14 18 -16 20 -16 38 4 19 21 19 21 -10 44 -17 13
-26 28 -21 34 5 9 10 9 21 0 17 -14 19 -2 1 15 -10 11 -15 11 -25 0z"/>
<path d="M7559 2554 c-11 -13 -9 -14 14 -9 29 8 39 -11 12 -21 -14 -6 -13 -8
2 -20 14 -10 15 -15 6 -25 -10 -10 -16 -9 -30 1 -17 13 -17 13 -1 -4 26 -30
47 -14 46 36 0 55 -22 74 -49 42z"/>
<path d="M7679 2554 c-13 -16 -12 -16 8 -6 40 22 39 -24 -1 -58 -25 -20 -19
-30 17 -29 23 1 26 3 10 6 -29 5 -29 11 -1 40 17 18 20 28 12 40 -15 24 -29
26 -45 7z"/>
<path d="M7763 2563 c-23 -9 -14 -20 12 -15 27 5 35 -15 10 -24 -14 -6 -13 -8
2 -20 14 -10 15 -15 6 -25 -10 -10 -15 -9 -28 1 -9 8 -15 8 -15 2 0 -16 18
-24 40 -17 16 5 19 14 17 43 -4 55 -14 68 -44 55z"/>
<path d="M7478 2535 c-23 -50 27 -102 52 -54 13 24 -2 49 -29 49 -13 1 -13 3
3 15 18 13 18 15 3 15 -10 0 -23 -11 -29 -25z m40 -37 c-2 -13 -7 -23 -13 -23
-5 0 -11 10 -13 23 -2 15 2 22 13 22 11 0 15 -7 13 -22z"/>
<path d="M7830 2515 c0 -25 5 -45 10 -45 6 0 10 10 10 23 1 21 1 21 25 -6 28
-31 34 -24 9 11 -15 21 -15 25 2 43 9 10 12 19 7 19 -6 0 -18 -10 -26 -22
l-16 -23 0 23 c-1 43 -21 22 -21 -23z"/>
<path d="M2194 2488 c-4 -6 -3 -8 4 -4 7 4 12 -10 15 -41 l3 -48 2 53 c2 49
-8 66 -24 40z"/>
<path d="M2269 2473 c-19 -51 25 -100 50 -56 11 21 -3 53 -24 53 -21 0 -19 18
3 23 16 4 16 5 -1 6 -10 1 -22 -10 -28 -26z m44 -25 c6 -19 -3 -38 -18 -38 -7
0 -15 6 -18 13 -6 18 3 37 18 37 7 0 15 -6 18 -12z"/>
<path d="M2384 2485 c-10 -24 2 -42 30 -47 23 -5 26 -2 26 23 0 15 -4 30 -9
33 -4 3 -6 -6 -3 -19 3 -21 0 -25 -18 -25 -18 0 -21 4 -18 25 6 28 1 33 -8 10z"/>
<path d="M2468 2475 c-8 -19 -8 -31 1 -51 12 -26 42 -30 47 -6 1 7 0 8 -3 2
-7 -14 -30 -13 -35 3 -7 18 2 37 17 37 7 0 16 -6 18 -12 4 -10 6 -10 6 0 1 8
-8 16 -19 19 -25 7 -26 20 -2 26 16 4 16 5 -1 6 -10 0 -22 -10 -29 -24z"/>
<path d="M2571 2488 c-1 -21 -17 -24 -24 -5 -4 9 -6 9 -6 -1 -1 -8 8 -16 20
-19 12 -4 18 -11 15 -20 -3 -8 -2 -12 3 -9 5 3 11 -4 14 -15 7 -26 32 -20 32
7 0 12 -6 18 -18 17 -12 -1 -17 4 -13 14 3 8 2 11 -3 8 -5 -3 -12 5 -14 17 -3
15 -5 17 -6 6z m49 -63 c0 -8 -4 -15 -10 -15 -5 0 -10 7 -10 15 0 8 5 15 10
15 6 0 10 -7 10 -15z"/>
<path d="M2405 2410 c-3 -6 1 -7 9 -4 18 7 21 14 7 14 -6 0 -13 -4 -16 -10z"/>
<path d="M8373 2365 c-20 -22 -16 -37 15 -61 25 -21 25 -23 8 -30 -11 -4 -21
-2 -26 7 -5 7 -11 11 -15 8 -3 -3 3 -13 14 -23 17 -16 20 -16 35 0 21 20 17
36 -12 49 -12 5 -22 15 -22 22 0 17 27 17 33 1 2 -7 7 -10 11 -7 4 3 -1 16
-11 27 -15 18 -20 19 -30 7z"/>
<path d="M8440 2334 c0 -19 4 -25 14 -21 20 8 43 -20 28 -35 -8 -8 -16 -7 -28
3 -15 12 -17 12 -12 -1 8 -24 45 -24 53 0 7 23 -9 50 -31 50 -26 0 -14 19 14
23 25 4 25 4 -5 6 -29 1 -33 -2 -33 -25z"/>
<path d="M8533 2353 c31 -5 32 -8 12 -43 -8 -14 -14 -32 -14 -40 0 -18 13 2
35 55 l14 35 -37 -1 c-31 -2 -33 -3 -10 -6z"/>
<path d="M8652 2351 l27 -6 -19 -42 c-10 -24 -16 -43 -11 -43 4 0 17 23 28 50
l21 50 -36 -1 c-33 -1 -34 -2 -10 -8z"/>
<path d="M8717 2354 c-13 -13 -7 -71 8 -84 27 -23 46 -4 43 42 -2 34 -7 44
-23 46 -12 2 -24 0 -28 -4z m41 -41 c-4 -43 -25 -55 -34 -19 -8 33 1 56 21 56
13 0 15 -9 13 -37z"/>
<path d="M8800 2345 c-2 -11 -4 -30 -5 -42 -1 -12 2 -27 6 -35 6 -9 9 -7 9 10
0 27 16 29 32 2 7 -11 17 -20 21 -20 5 0 -1 13 -12 28 -18 26 -19 31 -5 50 8
12 11 22 7 22 -5 0 -15 -10 -22 -22 l-15 -23 -7 25 c-6 21 -7 22 -9 5z"/>
<path d="M4347 2334 c-4 -4 -7 -12 -7 -18 0 -6 5 -5 12 2 16 16 38 15 38 -2 0
-8 -12 -28 -26 -45 l-26 -31 34 1 c25 1 27 3 10 6 l-24 5 22 23 c12 13 20 31
18 42 -3 18 -38 30 -51 17z"/>
<path d="M4442 2304 c-27 -41 -27 -44 -3 -44 11 0 23 -5 27 -11 4 -8 9 -7 15
2 12 20 0 30 -28 23 -23 -6 -24 -5 -11 15 7 12 14 17 16 11 6 -17 18 -11 19
10 3 33 -11 30 -35 -6z"/>
<path d="M4547 2333 c-4 -3 -7 -11 -7 -17 0 -6 5 -5 12 2 16 16 38 15 38 -2 0
-8 -12 -28 -26 -45 l-26 -31 34 1 c23 1 26 3 11 6 l-23 4 22 29 c11 16 18 36
15 44 -6 16 -38 22 -50 9z"/>
<path d="M4627 2334 c-4 -4 -7 -12 -7 -18 0 -6 5 -5 12 2 7 7 18 12 25 12 22
0 15 -32 -14 -62 l-27 -28 40 1 c31 2 34 3 10 6 l-28 5 22 23 c12 13 20 31 18
42 -3 18 -38 30 -51 17z"/>
<path d="M4704 2325 c-4 -9 -4 -19 0 -22 3 -4 6 1 6 10 0 21 17 22 23 2 4 -12
5 -11 3 1 -2 23 -24 30 -32 9z"/>
<path d="M4750 2300 c-6 -11 -8 -20 -6 -20 3 0 10 9 16 20 6 11 8 20 6 20 -3
0 -10 -9 -16 -20z"/>
<path d="M6792 2298 c-18 -18 -14 -46 8 -53 22 -7 28 -35 7 -35 -7 0 -18 5
-25 12 -7 7 -12 8 -12 2 0 -5 8 -17 18 -25 17 -15 20 -14 35 4 18 23 13 44
-14 52 -10 4 -19 13 -19 21 0 17 26 19 33 2 4 -8 6 -9 6 -2 2 20 -24 35 -37
22z"/>
<path d="M6864 2275 c-22 -34 -12 -75 20 -75 26 0 39 21 30 45 -4 8 -15 15
-25 15 -24 0 -25 16 -1 29 9 6 11 11 5 11 -7 0 -20 -11 -29 -25z m36 -45 c0
-11 -7 -20 -15 -20 -8 0 -15 9 -15 20 0 11 7 20 15 20 8 0 15 -9 15 -20z"/>
<path d="M6942 2288 c-14 -14 -16 -57 -3 -76 5 -8 17 -12 27 -10 15 3 19 12
19 48 0 47 -18 63 -43 38z m36 -41 c2 -28 -1 -37 -12 -37 -18 0 -30 33 -21 61
10 31 30 17 33 -24z"/>
<path d="M7010 2250 c0 -27 5 -50 10 -50 6 0 10 9 10 20 0 11 3 20 8 20 4 0
13 -9 20 -20 7 -11 17 -20 23 -20 6 0 1 12 -10 27 -19 23 -20 28 -6 43 25 27
17 35 -10 10 l-25 -23 0 21 c0 12 -4 22 -10 22 -5 0 -10 -22 -10 -50z"/>
<path d="M4754 2269 c-3 -6 -1 -16 5 -22 9 -9 11 -8 6 6 -4 9 -3 17 3 17 6 0
13 -8 15 -17 4 -14 5 -12 6 5 1 23 -22 31 -35 11z"/>
<path d="M12216 2126 c-16 -20 -16 -22 11 -43 21 -17 25 -25 16 -34 -9 -9 -16
-9 -28 1 -9 8 -15 8 -15 2 0 -6 8 -15 17 -21 26 -14 56 15 42 40 -5 11 -16 19
-24 19 -8 0 -15 7 -15 15 0 18 26 20 33 3 4 -10 6 -10 6 0 1 7 -5 19 -12 27
-11 10 -16 9 -31 -9z"/>
<path d="M12290 2105 c0 -18 5 -25 20 -25 13 0 20 -7 20 -20 0 -22 -25 -28
-33 -7 -4 9 -6 9 -6 -1 -1 -20 29 -26 46 -9 19 19 10 47 -17 54 -27 7 -25 21
3 26 19 4 18 4 -5 6 -24 1 -28 -3 -28 -24z"/>
<path d="M12374 2118 c-4 -6 -3 -8 4 -4 7 4 12 -10 15 -41 l3 -48 2 53 c2 49
-8 66 -24 40z"/>
<path d="M12485 2119 c-4 -6 -4 -13 -1 -16 3 -4 6 -1 6 5 0 7 9 12 20 12 26 0
25 -12 -5 -48 -32 -38 -32 -42 8 -41 28 1 29 2 9 8 l-24 6 22 28 c12 15 19 34
16 42 -6 17 -42 20 -51 4z"/>
<path d="M12570 2105 c0 -17 4 -23 15 -19 18 7 32 -23 17 -38 -8 -8 -16 -8
-27 2 -13 11 -14 10 -9 -4 8 -21 40 -21 53 1 11 21 -3 53 -24 53 -24 0 -17 18
8 23 19 4 18 4 -5 6 -23 1 -28 -3 -28 -24z"/>
<path d="M12640 2080 c0 -32 4 -49 10 -45 6 3 10 13 10 21 0 21 18 17 30 -6 6
-11 15 -20 21 -20 5 0 0 13 -12 30 -22 29 -22 30 -4 50 10 11 13 20 7 20 -6 0
-16 -9 -22 -20 -12 -23 -35 -27 -27 -5 4 8 2 17 -3 20 -6 4 -10 -15 -10 -45z"/>
<path d="M9329 2064 c-13 -25 -12 -28 9 -42 12 -8 22 -21 22 -28 0 -17 -12
-18 -28 -2 -7 7 -12 8 -12 2 0 -21 23 -33 42 -23 26 14 22 34 -9 57 -31 22
-24 44 7 24 25 -15 26 -1 2 21 -18 16 -19 15 -33 -9z"/>
<path d="M9411 2038 l-20 -33 20 -3 c11 -2 23 -11 26 -20 6 -14 7 -14 13 2 8
22 0 86 -10 86 -4 0 -17 -15 -29 -32z m29 -18 c0 -5 -7 -10 -16 -10 -8 0 -12
5 -9 10 3 6 10 10 16 10 5 0 9 -4 9 -10z"/>
<path d="M9480 2040 c0 -23 4 -30 20 -30 24 0 26 -15 4 -24 -9 -4 -14 -9 -10
-13 9 -10 46 28 46 48 0 23 -10 49 -20 49 -4 0 -5 -11 -2 -25 3 -19 0 -25 -13
-25 -13 0 -16 6 -13 25 3 14 1 25 -3 25 -5 0 -9 -13 -9 -30z"/>
<path d="M9599 2043 c-18 -49 17 -93 49 -61 21 21 14 47 -15 54 -25 7 -25 8
-8 20 17 13 17 14 2 14 -10 0 -22 -12 -28 -27z m37 -49 c-5 -13 -10 -14 -18
-6 -6 6 -8 18 -4 28 5 13 10 14 18 6 6 -6 8 -18 4 -28z"/>
<path d="M9693 2063 c32 -5 32 -5 11 -44 -8 -17 -14 -35 -12 -41 2 -6 14 12
25 40 l22 52 -37 -1 c-30 -2 -32 -3 -9 -6z"/>
<path d="M9761 2048 c0 -14 -7 -29 -13 -31 -10 -4 -10 -6 0 -6 6 -1 12 -11 13
-23 1 -22 2 -19 15 20 2 9 12 4 29 -15 13 -15 25 -23 25 -17 0 6 -9 19 -20 29
-19 17 -19 20 -4 44 l17 26 -26 -23 -25 -24 -5 24 c-4 21 -4 21 -6 -4z"/>
<path d="M6792 1939 c-18 -28 -15 -47 8 -54 22 -7 28 -35 7 -35 -7 0 -18 5
-25 12 -7 7 -12 8 -12 2 0 -5 8 -17 18 -25 17 -15 20 -14 35 4 18 23 13 44
-14 52 -21 7 -25 20 -8 31 6 3 15 0 20 -7 5 -8 9 -9 9 -4 -1 6 -6 18 -13 27
-12 15 -14 15 -25 -3z"/>
<path d="M6860 1915 c0 -18 5 -25 20 -25 14 0 20 -7 20 -21 0 -16 -5 -20 -20
-16 -11 3 -20 1 -20 -4 0 -15 47 -10 54 6 8 23 -4 45 -25 45 -26 0 -24 19 4
30 21 8 21 9 -5 9 -23 1 -28 -3 -28 -24z"/>
<path d="M6941 1926 c-7 -8 -11 -30 -9 -48 2 -28 7 -33 28 -33 23 0 25 4 25
45 0 48 -20 65 -44 36z m37 -39 c2 -28 -1 -37 -12 -37 -18 0 -30 33 -21 61 10
31 30 17 33 -24z"/>
<path d="M7010 1890 c0 -27 5 -50 10 -50 6 0 10 9 10 20 0 11 3 20 8 20 4 0
13 -9 20 -20 7 -11 17 -20 23 -20 6 0 1 12 -10 27 -19 23 -20 28 -6 43 25 27
17 35 -10 10 l-25 -23 0 21 c0 12 -4 22 -10 22 -5 0 -10 -22 -10 -50z"/>
<path d="M2445 1817 c-48 -99 -82 -243 -91 -375 l-7 -111 -41 -4 -41 -4 46 -1
46 -2 7 -65 c13 -130 97 -350 168 -440 24 -30 38 -31 68 -5 13 12 30 18 37 15
8 -2 11 -1 8 5 -6 10 9 22 165 136 58 43 107 81 108 86 2 4 8 8 14 8 10 0 55
33 89 65 9 8 21 15 27 15 7 0 12 5 12 12 0 6 3 9 6 5 4 -3 12 -1 19 6 22 20
108 86 142 110 18 12 59 43 91 69 l59 47 37 -117 c21 -64 56 -178 80 -252 206
-653 188 -602 216 -595 14 3 70 28 125 55 117 58 241 154 322 248 31 37 63 66
70 66 10 -1 11 2 3 11 -7 9 -5 19 9 36 22 29 78 138 98 193 35 96 54 188 60
295 l6 114 -104 -7 c-57 -3 -212 -11 -344 -16 -132 -6 -314 -15 -404 -20
l-165 -9 -175 98 c-97 54 -203 113 -236 131 -33 18 -130 72 -215 120 -243 136
-269 150 -275 150 -3 0 -21 -33 -40 -73z"/>
<path d="M6792 1579 c-18 -28 -15 -47 8 -54 23 -7 27 -35 5 -35 -8 0 -15 5
-15 10 0 6 -4 10 -10 10 -13 0 -1 -27 15 -34 19 -7 46 21 39 39 -3 8 -14 17
-25 20 -10 4 -19 13 -19 21 0 17 27 19 33 2 2 -7 7 -11 10 -8 3 3 -3 15 -12
26 -17 21 -18 21 -29 3z"/>
<path d="M6887 1574 c-3 -4 -3 -19 0 -35 4 -19 1 -29 -6 -29 -8 0 -10 8 -6 23
6 21 6 21 -9 3 -21 -26 -20 -36 3 -36 11 0 22 -6 24 -12 10 -25 23 10 19 52
-4 38 -11 48 -25 34z"/>
<path d="M6934 1556 c-10 -43 3 -78 29 -74 19 3 22 9 22 48 0 39 -3 45 -22 48
-17 3 -24 -3 -29 -22z m41 -26 c0 -38 -20 -52 -30 -21 -8 27 3 63 18 58 7 -2
12 -19 12 -37z"/>
<path d="M7010 1530 c0 -27 5 -50 10 -50 6 0 10 9 10 20 0 11 4 20 10 20 5 0
14 -9 20 -20 6 -11 15 -20 21 -20 6 0 1 12 -10 27 -20 25 -20 27 -5 52 l17 26
-27 -24 c-26 -24 -26 -24 -26 -3 0 12 -4 22 -10 22 -5 0 -10 -22 -10 -50z"/>
<path d="M10296 1461 c-18 -20 -12 -51 9 -51 19 0 29 -20 17 -32 -8 -8 -16 -7
-28 3 -15 12 -17 12 -12 -1 2 -8 16 -15 29 -15 32 0 40 40 10 50 -12 3 -21 13
-21 21 0 17 12 18 28 2 16 -16 15 3 -2 24 -12 17 -14 17 -30 -1z"/>
<path d="M10378 1462 c-10 -2 -18 -7 -18 -12 0 -4 8 -6 19 -3 23 6 38 -15 16
-23 -14 -6 -14 -8 2 -20 14 -10 15 -15 6 -25 -10 -10 -16 -9 -29 2 -15 12 -17
12 -12 -1 2 -8 16 -15 29 -15 21 0 24 4 25 43 1 45 -10 61 -38 54z"/>
<path d="M10458 1462 c-10 -2 -18 -11 -17 -20 0 -11 2 -12 6 -4 5 14 29 16 37
3 4 -5 -5 -23 -19 -39 -32 -39 -32 -42 8 -41 28 1 29 2 9 8 l-24 6 21 27 c12
14 21 31 21 36 0 15 -23 29 -42 24z"/>
<path d="M10578 1453 c26 -5 26 -2 7 -46 -23 -54 -17 -58 10 -7 31 58 31 60
-7 59 -24 -1 -27 -3 -10 -6z"/>
<path d="M10658 1453 c26 -5 26 -2 7 -46 -23 -54 -17 -58 10 -7 31 58 31 60
-7 59 -24 -1 -27 -3 -10 -6z"/>
<path d="M10722 1410 c0 -30 2 -48 5 -40 2 8 7 22 9 30 4 10 11 6 29 -15 13
-17 24 -26 25 -21 0 5 -8 18 -17 28 -14 16 -15 22 -4 40 15 24 9 34 -9 13 -16
-20 -27 -19 -33 3 -3 9 -5 -8 -5 -38z"/>
<path d="M1694 1392 c-13 -8 -17 -92 -4 -92 4 0 6 9 3 20 -4 15 0 20 16 20 23
0 28 -19 9 -40 -11 -12 -10 -12 4 -1 17 13 20 64 5 89 -9 14 -17 15 -33 4z
m30 -10 c2 -4 1 -14 -4 -22 -7 -11 -12 -12 -21 -3 -6 6 -8 16 -5 22 8 13 23
14 30 3z"/>
<path d="M1890 1391 c0 -5 -3 -16 -6 -24 -4 -11 2 -16 18 -19 17 -2 23 -9 22
-26 0 -14 3 -19 9 -13 15 15 3 45 -20 51 -26 6 -19 25 12 33 15 4 14 5 -7 6
-16 0 -28 -3 -28 -8z"/>
<path d="M1965 1390 c-3 -6 1 -7 9 -4 18 7 21 14 7 14 -6 0 -13 -4 -16 -10z"/>
<path d="M1617 1382 c6 -4 13 -25 16 -47 4 -40 4 -40 5 8 2 39 -1 47 -15 47
-12 0 -14 -3 -6 -8z"/>
<path d="M1817 1382 c6 -4 13 -25 16 -47 4 -40 4 -40 5 8 2 39 -1 47 -15 47
-12 0 -14 -3 -6 -8z"/>
<path d="M1991 1371 c-1 -8 -7 -11 -17 -7 -9 3 -12 2 -9 -5 4 -6 14 -8 22 -5
10 4 13 2 10 -7 -3 -8 3 -14 16 -14 11 -1 24 -8 28 -15 7 -11 9 -10 9 0 0 8
-9 16 -21 19 -12 4 -18 11 -15 20 3 8 2 12 -3 8 -5 -3 -12 1 -14 7 -4 10 -6
10 -6 -1z"/>
<path d="M2118 1313 c18 -2 45 -2 60 0 15 2 0 4 -33 4 -33 0 -45 -2 -27 -4z"/>
<path d="M6792 1219 c-18 -28 -15 -47 8 -54 11 -3 20 -13 20 -21 0 -17 -27
-19 -33 -1 -2 6 -7 9 -11 6 -4 -4 1 -14 10 -23 15 -16 18 -16 35 0 25 23 24
32 -6 46 -14 6 -25 17 -25 25 0 17 27 17 33 1 4 -10 6 -10 6 0 1 7 -5 19 -12
27 -11 11 -15 10 -25 -6z"/>
<path d="M6855 1210 c-4 -7 2 -9 19 -4 20 5 26 2 26 -10 0 -9 -8 -16 -17 -16
-17 -1 -17 -1 0 -11 20 -12 23 -39 4 -39 -7 0 -19 6 -26 13 -11 10 -13 9 -9
-3 3 -8 16 -15 29 -15 22 0 24 4 24 45 0 38 -3 45 -22 48 -11 2 -24 -2 -28 -8z"/>
<path d="M6934 1196 c-10 -43 3 -78 29 -74 19 3 22 9 22 48 0 39 -3 45 -22 48
-17 3 -24 -3 -29 -22z m46 -26 c0 -46 -25 -57 -36 -15 -8 32 1 55 21 55 11 0
15 -11 15 -40z"/>
<path d="M7010 1170 c0 -27 5 -50 10 -50 6 0 10 9 10 20 0 11 4 20 10 20 5 0
14 -9 20 -20 6 -11 15 -20 21 -20 6 0 1 12 -10 27 -20 25 -20 27 -5 52 l17 26
-27 -24 c-26 -24 -26 -24 -26 -3 0 12 -4 22 -10 22 -5 0 -10 -22 -10 -50z"/>
<path d="M6792 894 c-18 -20 -15 -40 10 -56 13 -9 18 -19 14 -27 -6 -9 -11 -9
-22 0 -22 18 -27 5 -6 -14 18 -16 20 -16 38 4 19 21 19 21 -9 43 -32 26 -35
40 -7 33 23 -6 25 -1 7 17 -10 11 -15 11 -25 0z"/>
<path d="M6863 885 c-10 -8 -13 -15 -7 -15 5 0 15 5 22 12 9 9 13 7 18 -6 4
-11 -2 -27 -20 -45 -14 -15 -23 -30 -19 -34 10 -11 65 -8 58 3 -3 5 -12 7 -20
3 -19 -7 -19 8 0 33 30 40 6 77 -32 49z"/>
<path d="M6942 888 c-30 -30 -3 -108 33 -94 21 8 21 92 -1 100 -20 8 -18 8
-32 -6z m38 -42 c0 -39 -8 -50 -27 -35 -16 14 -17 51 -1 67 17 17 28 5 28 -32z"/>
<path d="M7052 873 c-21 -27 -21 -27 -22 -5 0 12 -4 22 -10 22 -5 0 -10 -20
-10 -45 0 -25 5 -45 10 -45 6 0 10 10 10 22 0 21 1 20 32 -8 l31 -29 -22 33
c-22 32 -22 34 -5 53 9 10 15 22 12 25 -3 3 -15 -8 -26 -23z"/>
<path d="M4513 783 c-7 -2 -13 -9 -13 -15 0 -6 6 -6 15 2 15 13 35 6 35 -13 0
-6 -12 -24 -27 -39 -15 -15 -23 -28 -17 -27 5 0 20 14 33 31 18 22 22 34 15
46 -12 18 -24 22 -41 15z"/>
<path d="M4592 778 c-32 -32 -1 -116 33 -88 26 22 14 100 -15 100 -3 0 -11 -5
-18 -12z m33 -44 c0 -28 -4 -39 -15 -39 -16 0 -26 45 -16 72 11 28 31 7 31
-33z"/>
<path d="M4710 775 c-17 -21 -8 -50 18 -53 19 -3 21 -6 11 -18 -7 -8 -7 -14
-1 -14 22 0 30 68 10 88 -16 16 -23 15 -38 -3z m35 -21 c0 -10 -8 -20 -17 -22
-18 -3 -26 27 -11 42 12 11 28 0 28 -20z"/>
<path d="M4863 774 c-8 -21 13 -42 28 -27 13 13 5 43 -11 43 -6 0 -13 -7 -17
-16z m27 -9 c0 -8 -4 -15 -10 -15 -5 0 -10 7 -10 15 0 8 5 15 10 15 6 0 10 -7
10 -15z"/>
<path d="M4792 768 c-16 -16 -15 -63 2 -77 22 -18 48 -2 44 27 -2 18 -11 28
-28 32 -24 6 -24 6 -5 18 11 6 15 12 10 12 -6 0 -16 -5 -23 -12z m38 -47 c0
-11 -5 -23 -11 -27 -15 -9 -33 12 -26 30 9 23 37 20 37 -3z"/>
<path d="M4914 758 c-4 -7 -14 -24 -22 -38 -14 -24 -13 -24 3 -5 20 24 37 55
31 55 -3 0 -8 -6 -12 -12z"/>
<path d="M4913 714 c-8 -21 13 -42 28 -27 13 13 5 43 -11 43 -6 0 -13 -7 -17
-16z m27 -9 c0 -8 -4 -15 -10 -15 -5 0 -10 7 -10 15 0 8 5 15 10 15 6 0 10 -7
10 -15z"/>
<path d="M7732 688 c-14 -14 -16 -38 -3 -38 5 0 8 8 7 18 0 9 6 17 14 17 10 0
16 -12 18 -35 5 -47 15 -55 37 -28 11 13 13 17 5 11 -22 -20 -29 -16 -32 24
-3 40 -23 54 -46 31z"/>
<path d="M8700 685 c-6 -8 -8 -20 -4 -26 5 -9 10 -5 16 10 11 31 27 17 34 -30
7 -44 19 -46 43 -8 l15 24 -22 -19 c-22 -19 -22 -19 -22 3 0 51 -34 77 -60 46z"/>
<path d="M9662 688 c-15 -15 -16 -38 -1 -38 5 0 8 4 5 9 -7 11 18 33 27 24 4
-3 7 -16 7 -29 0 -53 21 -69 41 -31 11 20 11 21 -4 8 -19 -15 -23 -9 -29 39
-3 28 -27 37 -46 18z"/>
<path d="M10622 688 c-14 -14 -16 -38 -3 -38 5 0 8 8 7 18 -2 35 29 17 35 -21
8 -50 11 -52 40 -20 17 20 18 23 3 10 -27 -22 -29 -22 -30 8 -3 52 -25 70 -52
43z"/>
<path d="M11582 688 c-15 -15 -16 -38 -1 -38 5 0 8 4 5 9 -3 5 1 14 8 20 17
14 21 8 30 -41 8 -43 15 -46 39 -18 18 21 9 28 -10 9 -9 -9 -13 -5 -18 17 -11
48 -14 54 -28 54 -7 0 -18 -5 -25 -12z"/>
<path d="M12552 688 c-15 -15 -16 -38 -1 -38 5 0 7 5 3 11 -7 12 15 31 28 23
4 -3 8 -20 8 -39 0 -43 12 -51 36 -22 16 18 16 19 2 8 -20 -15 -24 -9 -30 39
-3 28 -27 37 -46 18z"/>
<path d="M7670 625 c-10 -12 -10 -19 -2 -27 9 -9 12 -7 12 10 0 42 28 24 36
-24 l9 -46 25 29 c21 24 22 25 3 9 -23 -19 -23 -19 -23 3 0 51 -34 77 -60 46z"/>
<path d="M8644 625 c-3 -8 -4 -20 -1 -27 3 -7 6 -3 6 10 1 17 6 23 19 20 12
-2 18 -16 22 -45 5 -44 12 -45 40 -8 15 20 14 20 -8 1 -22 -19 -22 -19 -22 7
0 14 -3 32 -6 41 -8 20 -43 21 -50 1z"/>
<path d="M9600 625 c-6 -8 -8 -20 -4 -26 5 -9 10 -6 15 9 16 42 38 14 39 -45
0 -28 11 -29 33 -5 24 26 21 39 -3 17 -19 -18 -20 -17 -20 4 0 51 -34 77 -60
46z"/>
<path d="M10560 625 c-10 -12 -10 -19 -2 -27 9 -9 12 -7 12 10 0 13 6 22 15
22 14 0 21 -18 27 -68 l3 -24 25 28 c21 25 22 26 3 10 -23 -19 -23 -19 -23 7
0 55 -31 76 -60 42z"/>
<path d="M11520 621 c-7 -13 -7 -22 0 -26 5 -3 10 3 10 14 0 25 25 28 34 5 3
-9 6 -29 6 -45 0 -33 18 -31 39 4 14 22 14 22 -8 3 -21 -19 -21 -19 -21 10 0
50 -39 73 -60 35z"/>
<path d="M12490 625 c-10 -12 -10 -19 -2 -27 9 -9 12 -6 12 11 0 37 24 19 35
-28 l11 -42 24 28 c22 24 22 25 3 9 -23 -19 -23 -19 -23 3 0 51 -34 77 -60 46z"/>
<path d="M7620 575 c-27 -32 33 -101 65 -75 21 17 19 33 -7 57 -35 31 -45 34
-58 18z m50 -25 c24 -24 26 -40 3 -40 -20 0 -53 28 -53 47 0 19 27 16 50 -7z"/>
<path d="M8597 579 c-24 -14 -21 -31 11 -62 33 -32 62 -28 62 8 0 31 -49 67
-73 54z m45 -26 c20 -18 23 -38 9 -48 -13 -7 -63 43 -56 56 9 14 26 11 47 -8z"/>
<path d="M10512 578 c-18 -18 -15 -32 18 -63 24 -23 32 -26 45 -15 21 18 19
35 -10 65 -29 28 -36 30 -53 13z m52 -30 c20 -29 20 -38 -1 -38 -20 0 -53 28
-53 47 0 21 37 15 54 -9z"/>
<path d="M9544 565 c-9 -22 1 -41 31 -61 20 -13 28 -14 40 -4 21 17 19 33 -8
58 -27 25 -55 28 -63 7z m56 -15 c22 -22 25 -36 9 -45 -12 -8 -59 33 -59 52 0
19 27 16 50 -7z"/>
<path d="M11464 566 c-6 -17 21 -62 42 -70 22 -8 44 4 44 25 0 40 -73 78 -86
45z m56 -16 c22 -22 25 -36 11 -44 -12 -8 -61 32 -61 50 0 20 27 17 50 -6z"/>
<path d="M12434 565 c-9 -21 1 -41 29 -60 50 -32 78 12 34 53 -27 25 -55 28
-63 7z m56 -20 c16 -17 20 -29 14 -35 -13 -13 -64 24 -64 46 0 22 24 17 50
-11z"/>
<path d="M7562 518 c-7 -7 -12 -19 -11 -27 0 -10 4 -6 10 7 14 35 34 21 37
-26 4 -48 11 -51 38 -19 10 12 12 16 4 10 -21 -19 -30 -16 -30 11 0 51 -21 71
-48 44z"/>
<path d="M8532 518 c-15 -15 -16 -38 -1 -38 5 0 8 4 5 9 -3 5 1 14 9 21 12 10
16 8 25 -15 5 -14 10 -35 10 -46 0 -17 3 -18 20 -9 11 6 20 16 20 22 0 9 -3 9
-12 0 -10 -10 -15 -4 -23 25 -11 40 -32 52 -53 31z"/>
<path d="M9492 518 c-14 -14 -16 -38 -2 -38 5 0 7 7 4 15 -4 10 0 15 15 15 18
0 21 -6 21 -40 0 -46 3 -47 37 -20 14 11 21 20 15 20 -6 0 -14 -4 -17 -10 -12
-19 -25 -10 -25 18 0 26 -15 52 -30 52 -3 0 -11 -5 -18 -12z"/>
<path d="M10452 518 c-14 -14 -16 -38 -3 -38 5 0 8 8 7 18 0 9 6 17 14 17 10
0 16 -12 18 -35 5 -47 15 -55 38 -28 15 18 15 20 2 9 -20 -15 -24 -9 -30 39
-3 28 -27 37 -46 18z"/>
<path d="M11412 518 c-15 -15 -16 -38 -1 -38 5 0 8 4 5 9 -3 5 1 14 9 21 16
13 15 15 31 -49 l9 -33 20 23 c12 14 14 19 4 11 -15 -11 -18 -8 -26 25 -9 40
-30 52 -51 31z"/>
<path d="M12382 518 c-14 -14 -16 -38 -3 -38 5 0 8 8 7 18 0 9 6 17 14 17 10
0 16 -13 18 -42 4 -49 11 -53 38 -20 10 12 12 16 4 10 -22 -20 -30 -16 -30 15
0 26 -15 52 -30 52 -3 0 -11 -5 -18 -12z"/>
<path d="M7490 435 c0 -10 56 -55 69 -55 8 0 2 9 -13 21 -14 11 -24 25 -21 30
4 5 -3 9 -14 9 -12 0 -21 -2 -21 -5z"/>
<path d="M8490 434 c0 -3 5 -14 10 -25 12 -22 7 -24 -21 -9 -10 6 -19 7 -19 2
0 -11 58 -37 66 -29 3 3 -2 19 -11 36 -14 29 -25 39 -25 25z"/>
<path d="M12332 428 c-9 -9 -7 -17 10 -35 12 -13 26 -23 31 -23 6 0 0 11 -12
24 -13 14 -20 29 -16 35 8 15 2 14 -13 -1z"/>
<path d="M9429 414 c-16 -20 -1 -48 28 -52 23 -3 50 23 33 33 -5 3 -10 -1 -10
-9 0 -19 -21 -21 -38 -4 -18 18 -15 28 11 38 15 6 17 9 6 9 -9 1 -22 -6 -30
-15z"/>
<path d="M10383 411 c-10 -16 -8 -22 11 -40 31 -30 44 -26 16 4 -18 19 -21 28
-12 37 9 9 18 6 39 -13 l28 -24 -24 28 c-29 32 -42 34 -58 8z"/>
<path d="M11355 420 c-4 -6 -16 -8 -28 -4 -18 5 -15 -1 14 -30 38 -40 69 -41
69 -2 0 36 -39 62 -55 36z m33 -12 c16 -16 15 -38 -2 -38 -18 0 -39 27 -31 40
8 13 18 13 33 -2z"/>
<path d="M7465 389 c-11 -16 3 -56 21 -63 20 -8 44 11 43 33 -1 13 -2 13 -6
-1 -2 -10 -13 -18 -24 -18 -28 0 -36 30 -14 46 16 12 17 14 3 14 -9 0 -20 -5
-23 -11z"/>
<path d="M12276 374 c-10 -26 -6 -30 9 -10 18 24 30 15 16 -12 -18 -33 21 -47
44 -15 11 14 9 20 -10 35 -29 22 -51 23 -59 2z m54 -29 c0 -8 -4 -15 -10 -15
-5 0 -10 7 -10 15 0 8 5 15 10 15 6 0 10 -7 10 -15z"/>
<path d="M8419 364 c-17 -20 -1 -48 31 -52 36 -6 51 26 24 52 -20 20 -38 20
-55 0z m35 0 c20 -8 21 -44 2 -44 -18 0 -39 27 -31 40 7 12 8 12 29 4z"/>
<path d="M9382 368 c-18 -18 -14 -46 7 -58 24 -12 51 -3 51 18 0 13 -2 13 -13
-3 -10 -13 -16 -15 -21 -6 -4 6 -2 18 4 26 21 25 -5 46 -28 23z m28 -12 c0 -2
-7 -9 -15 -16 -12 -10 -15 -10 -15 4 0 9 7 16 15 16 8 0 15 -2 15 -4z"/>
<path d="M10326 354 c-10 -26 -7 -29 8 -8 8 10 18 16 22 12 4 -4 1 -14 -5 -22
-14 -17 -7 -36 13 -36 8 0 19 7 26 15 10 13 10 19 -5 35 -22 24 -51 26 -59 4z
m54 -29 c0 -8 -4 -15 -10 -15 -5 0 -10 7 -10 15 0 8 5 15 10 15 6 0 10 -7 10
-15z"/>
<path d="M11297 363 c-12 -11 -8 -40 8 -53 18 -15 55 -3 55 18 -1 16 -2 15
-11 0 -12 -22 -34 -24 -25 -3 3 8 9 22 12 30 4 10 0 15 -13 15 -11 0 -23 -3
-26 -7z m33 -7 c0 -2 -7 -9 -15 -16 -12 -10 -15 -10 -15 4 0 9 7 16 15 16 8 0
15 -2 15 -4z"/>
<path d="M7386 338 c-13 -19 -14 -25 -3 -42 22 -32 44 -43 65 -30 28 18 26 49
-4 73 -33 26 -39 26 -58 -1z m64 -17 c14 -27 13 -38 -6 -45 -21 -8 -54 20 -54
46 0 25 46 24 60 -1z"/>
<path d="M12220 355 c0 -3 7 -21 14 -40 16 -39 10 -43 -33 -20 -42 21 -46 6
-9 -32 38 -39 62 -45 27 -6 -21 23 -22 25 -4 18 57 -22 58 -21 40 21 l-16 38
24 -22 c38 -36 44 -25 7 13 -31 32 -50 43 -50 30z"/>
<path d="M8360 345 c0 -5 10 -19 22 -32 l22 -23 -50 6 -49 7 34 -37 c19 -20
39 -36 45 -36 5 0 -3 13 -18 29 l-28 29 42 -9 c62 -14 65 -8 20 36 -22 21 -40
35 -40 30z"/>
<path d="M11227 332 c-10 -10 -17 -21 -17 -25 0 -12 61 -69 68 -62 3 3 0 10
-8 15 -13 8 -13 13 -2 30 12 20 11 20 -8 10 -28 -15 -38 -5 -21 21 16 27 9 34
-12 11z"/>
<path d="M10299 306 c32 -33 35 -63 5 -52 -8 3 -14 1 -14 -5 0 -16 31 -6 44
13 8 14 5 23 -19 48 -16 16 -33 30 -39 30 -5 0 5 -15 23 -34z"/>
<path d="M9289 314 c-11 -13 -7 -21 25 -52 36 -36 38 -36 52 -18 19 27 18 50
-4 69 -23 21 -56 22 -73 1z m66 -14 c17 -19 15 -50 -3 -50 -19 0 -54 40 -48
55 8 21 29 19 51 -5z"/>
</g>
</svg>
